<svg width="35" height="19" viewBox="0 0 35 19" fill="none" xmlns="http://www.w3.org/2000/svg">
<path d="M0.29384 5.60715V17.8356H3.1729V5.60715H0.29384ZM12.7386 3.45074C15.6905 3.45074 17.5867 5.80949 17.5867 9.50024C17.5867 13.2199 15.6905 15.5786 12.7386 15.5786C9.75775 15.5786 7.87537 13.2199 7.87537 9.50024C7.87537 5.80949 9.75659 3.45074 12.7386 3.45074ZM28.4266 0.918554C24.8087 0.918554 22.2325 2.9154 22.2325 5.88234C22.2325 8.24109 23.694 9.71762 26.7627 10.4264L28.9191 10.9479C31.0177 11.4254 31.871 12.1203 31.871 13.3216C31.871 14.7115 30.4673 15.6954 28.4705 15.6954C26.4297 15.6954 24.8954 14.6964 24.737 13.1632H21.8429C21.9585 16.2319 24.4768 18.1131 28.2971 18.1131C32.3347 18.1131 34.868 16.1302 34.868 12.9759C34.868 10.5016 33.4204 9.09787 30.0638 8.33012L28.1387 7.89537C26.0979 7.4028 25.2584 6.75184 25.2584 5.65224C25.2584 4.26243 26.5315 3.33627 28.4138 3.33627C30.3101 3.33627 31.612 4.27746 31.7566 5.82568H34.5928C34.52 2.90268 32.1034 0.919711 28.4277 0.919711L28.4266 0.918554ZM12.7386 0.918554C7.87653 0.918554 4.83675 4.23237 4.83675 9.50024C4.83675 14.8121 7.87537 18.1108 12.7386 18.1108C17.5728 18.1108 20.6253 14.8109 20.6253 9.50024C20.6253 4.23237 17.5717 0.918554 12.7374 0.918554H12.7386ZM1.72528 0.889648C1.71718 0.889648 1.70678 0.889648 1.69753 0.889648C0.833809 0.889648 0.134277 1.58918 0.134277 2.4529C0.134277 3.31662 0.833809 4.01615 1.69753 4.01615C1.70793 4.01615 1.71718 4.01615 1.72759 4.01615C1.74031 4.01615 1.75418 4.0173 1.76921 4.0173C2.63293 4.0173 3.33246 3.31777 3.33246 2.45405C3.33246 1.59034 2.63293 0.890804 1.76921 0.890804C1.75418 0.890804 1.73915 0.890805 1.72412 0.891961H1.72643L1.72528 0.889648Z" fill="#5075F7"/>
</svg>
