<svg width="44" height="40" viewBox="0 0 44 40" fill="none" xmlns="http://www.w3.org/2000/svg">
<path d="M19.5749 28.9283C20.3656 28.9643 21.1734 28.9902 21.9914 28.9902C22.8179 28.9902 23.6344 28.9729 24.4351 28.9283C23.6344 29.9633 22.8438 30.879 22.0072 31.7516L22.0187 31.7401C21.1864 30.8776 20.3871 29.9605 19.6339 29.006L19.5749 28.9283ZM11.3841 27.7783C12.9409 28.1737 14.8398 28.51 16.7776 28.717L16.9659 28.7328C18.1518 30.3615 19.3507 31.7947 20.6373 33.1431L20.6214 33.1258C18.7369 35.2289 16.1939 36.7067 13.3175 37.2371L13.2384 37.2486C13.2327 37.2486 13.2269 37.2486 13.2212 37.2486C12.8647 37.2486 12.5283 37.1609 12.2336 37.0057L12.2451 37.0114C11.0491 36.3286 10.5302 33.7167 10.9341 30.3601C11.0304 29.5335 11.1886 28.6638 11.3826 27.7769L11.3841 27.7783ZM32.6346 27.7597C32.8043 28.441 32.9638 29.3093 33.0774 30.1919L33.0903 30.3155C33.5029 33.6707 32.994 36.2797 31.8081 36.9769C31.5436 37.1235 31.2273 37.2098 30.8909 37.2098C30.8579 37.2098 30.8248 37.2083 30.7918 37.2069H30.7961C27.8449 36.6678 25.3034 35.2002 23.4231 33.123L23.4131 33.1115C24.6766 31.7847 25.8669 30.3543 26.9579 28.8493L27.0413 28.7285C29.1631 28.5072 31.0649 28.165 32.9178 27.6978L32.6346 27.7582V27.7597ZM13.0645 22.3949C13.4239 23.0993 13.8005 23.8008 14.2145 24.5052C14.6276 25.2057 15.0497 25.8899 15.4809 26.5579C14.2332 26.3753 13.0286 26.1453 11.8771 25.865C12.2006 24.7337 12.6059 23.5622 13.0631 22.392L13.0645 22.3949ZM30.9298 22.359C31.4056 23.5392 31.8095 24.7165 32.1444 25.8578C30.9944 26.1396 29.7798 26.3782 28.5234 26.5579C28.9546 25.8837 29.3859 25.1894 29.7898 24.4778C30.1938 23.7778 30.5718 23.0619 30.9326 22.3575L30.9298 22.359ZM9.95232 14.6698C10.5791 16.7944 11.2518 18.5712 12.0353 20.2847L11.9274 20.023C11.2576 21.4677 10.5949 23.2344 10.0515 25.0528L9.97676 25.3475C8.96189 25.0356 8.14539 24.7294 7.35045 24.3858L7.51576 24.4491C4.40501 23.1252 2.39251 21.3843 2.39251 20.0043C2.39251 18.6243 4.40501 16.8749 7.51576 15.5567C8.27045 15.2333 9.09845 14.9415 9.95232 14.6698ZM34.0146 14.6626C34.8843 14.9314 35.7109 15.2318 36.4843 15.5567C39.595 16.8864 41.6075 18.6243 41.6075 20.0043C41.5989 21.3843 39.5864 23.1295 36.4756 24.4505C35.7209 24.774 34.8944 25.0643 34.0419 25.336C33.4094 23.2042 32.7367 21.4289 31.9561 19.7125L32.0654 19.9828C32.7324 18.5395 33.3965 16.7728 33.9384 14.9544L34.0146 14.6583V14.6626ZM28.5119 13.4508C29.7611 13.6362 30.9643 13.8633 32.1157 14.1465C31.7923 15.2822 31.3883 16.4494 30.9298 17.6195C30.5704 16.9195 30.1938 16.2137 29.7798 15.5107C29.3758 14.8063 28.9446 14.1207 28.5133 13.4522L28.5119 13.4508ZM15.4709 13.4508C15.0396 14.1278 14.6084 14.8207 14.2059 15.5352C13.8019 16.2352 13.4239 16.9396 13.0645 17.644C12.5887 16.4652 12.1848 15.2908 11.8498 14.1465C12.9998 13.8777 14.2116 13.6377 15.4694 13.4537L15.4709 13.4508ZM22 12.9937C23.3297 12.9937 24.6536 13.054 25.956 13.1604C26.6853 14.2059 27.3935 15.3195 28.0806 16.5012C28.7486 17.6512 29.3581 18.8165 29.9091 19.9972C29.3557 21.1745 28.7491 22.3503 28.0893 23.5003C27.4064 24.6863 26.7006 25.8147 25.9689 26.8598C24.6608 26.9733 23.3354 27.0352 21.9986 27.0352C20.6689 27.0352 19.3449 26.9719 18.0426 26.8684C17.3138 25.8233 16.6022 24.705 15.9179 23.5277C15.25 22.3777 14.6405 21.2123 14.0894 20.0317C14.6343 18.8515 15.2495 17.6727 15.9093 16.5213C16.5921 15.3353 17.2979 14.2112 18.0296 13.1662C19.3378 13.0512 20.6631 12.9908 22 12.9908V12.9937ZM21.9727 8.27722C22.8064 9.13972 23.6057 10.0554 24.3575 11.0099L24.415 11.0861C23.6244 11.0502 22.8165 11.0257 21.9986 11.0257C21.172 11.0257 20.3555 11.043 19.5548 11.0861C20.3541 10.0511 21.1447 9.13541 21.9828 8.26284L21.9713 8.27434L21.9727 8.27722ZM13.2025 2.79747C16.1537 3.33797 18.6938 4.80566 20.5754 6.88141L20.5855 6.89291C19.3219 8.22116 18.1317 9.65147 17.0406 11.1594L16.9573 11.2802C14.8369 11.5001 12.9351 11.8393 11.0836 12.3065L11.3654 12.2462C11.1641 11.3664 11.0146 10.514 10.9097 9.69603C10.4971 6.34091 11.006 3.73184 12.1919 3.03753C12.4881 2.89809 12.8345 2.81184 13.1996 2.80034H13.2039L13.2025 2.79747ZM30.7544 2.76153V2.77303C30.7731 2.77303 30.7946 2.77159 30.8176 2.77159C31.1612 2.77159 31.4846 2.85641 31.7693 3.00591L31.7578 3.00016C32.9538 3.68584 33.4727 6.29634 33.0688 9.65434C32.9724 10.4809 32.8143 11.352 32.6203 12.2404C31.0606 11.8408 29.1616 11.503 27.2239 11.2974L27.0399 11.2816C25.8525 9.65147 24.6536 8.21828 23.3671 6.86847L23.3843 6.88572C25.2689 4.78697 27.8075 3.30922 30.6782 2.77591L30.7587 2.76297L30.7544 2.76153ZM30.763 0.803656C27.2526 1.33697 24.2138 3.04184 21.9943 5.50141L21.9828 5.51434C19.7474 3.05622 16.7086 1.36284 13.2844 0.849656L13.2039 0.839594C13.1853 0.839594 13.1623 0.839594 13.1393 0.839594C12.4334 0.839594 11.7708 1.02503 11.1972 1.34991L11.2173 1.33984C8.7477 2.76441 8.19426 7.20341 9.46933 12.7737C4.00108 14.4628 0.444702 17.1624 0.444702 20.0072C0.444702 22.8635 4.01976 25.5703 9.50383 27.2465C8.23883 32.8383 8.80376 37.2845 11.2791 38.7077C11.8225 39.0196 12.4751 39.2022 13.1694 39.2022C13.2011 39.2022 13.2327 39.2022 13.2629 39.2007H13.2586C16.7689 38.6674 19.8078 36.9611 22.0273 34.5001L22.0388 34.4872C24.2741 36.9467 27.313 38.6401 30.7371 39.1533L30.8176 39.1633C30.8392 39.1633 30.8665 39.1633 30.8924 39.1633C31.5939 39.1633 32.2537 38.9793 32.8244 38.6588L32.8043 38.6688C35.2724 37.2457 35.8273 32.8067 34.5523 27.235C40.0004 25.5603 43.5568 22.8549 43.5568 20.0058C43.5568 17.1495 39.9817 14.4427 34.4976 12.7622C35.7626 7.17609 35.1977 2.72559 32.7223 1.30103C32.1732 0.986219 31.5148 0.800781 30.8133 0.800781C30.7946 0.800781 30.7759 0.800781 30.7573 0.800781H30.7601L30.763 0.803656ZM26.0063 20.0072C26.0063 22.2253 24.208 24.0236 21.9899 24.0236C19.7719 24.0236 17.9736 22.2253 17.9736 20.0072C17.9736 17.7892 19.7719 15.9908 21.9899 15.9908C23.0997 15.9908 24.1031 16.4408 24.8304 17.1667C25.5578 17.8941 26.0063 18.8975 26.0063 20.0072Z" fill="#5075F7"/>
</svg>
