<svg width="62" height="70" viewBox="0 0 62 70" fill="#5075F7" xmlns="http://www.w3.org/2000/svg">
<path d="M57.26 23.4298C56.1797 23.4298 55.1436 23.8589 54.3796 24.6228C53.6156 25.3867 53.1866 26.4227 53.1866 27.503V45.963C53.1866 47.0433 53.6156 48.0794 54.3796 48.8434C55.1436 49.6073 56.1797 50.0363 57.26 50.0363C58.3403 50.0363 59.3764 49.6073 60.1403 48.8434C60.9043 48.0794 61.3333 47.0433 61.3333 45.963V27.503C61.3333 26.4227 60.9043 25.3867 60.1403 24.6228C59.3764 23.8589 58.3403 23.4298 57.26 23.4298Z" fill=""/>
<path d="M4.73996 23.4298C3.65966 23.4298 2.62356 23.8589 1.85968 24.6228C1.0958 25.3867 0.666626 26.4227 0.666626 27.503V45.963C0.666626 47.0433 1.0958 48.0794 1.85968 48.8434C2.62356 49.6073 3.65966 50.0363 4.73996 50.0363C5.82026 50.0363 6.85636 49.6073 7.62024 48.8434C8.38412 48.0794 8.81329 47.0433 8.81329 45.963V27.503C8.81329 26.4227 8.38412 25.3867 7.62024 24.6228C6.85636 23.8589 5.82026 23.4298 4.73996 23.4298Z" fill=""/>
<path d="M11.76 23.4298V51.163C11.76 51.7718 11.8799 52.375 12.1129 52.9375C12.3459 53.5 12.6874 54.0113 13.118 54.4416C13.5485 54.8723 14.0597 55.2138 14.6223 55.4469C15.1848 55.6796 15.7877 55.7997 16.3966 55.7997H19.3433V65.6363C19.3433 66.7166 19.7724 67.7527 20.5363 68.5167C21.3002 69.2807 22.3363 69.7097 23.4166 69.7097C24.4969 69.7097 25.533 69.2807 26.297 68.5167C27.061 67.7527 27.49 66.7166 27.49 65.6363V55.7997H34.51V65.6363C34.51 66.7166 34.939 67.7527 35.7029 68.5167C36.4669 69.2807 37.503 69.7097 38.5833 69.7097C39.6636 69.7097 40.6997 69.2807 41.4637 68.5167C42.2276 67.7527 42.6566 66.7166 42.6566 65.6363V55.7997H45.6033C46.8331 55.7997 48.0122 55.3113 48.8819 54.4416C49.7516 53.5723 50.24 52.3928 50.24 51.163V23.4298H11.76Z" fill=""/>
<path d="M49.72 17.6664C48.4447 13.3877 45.6163 9.7402 41.79 7.43976L41.14 7.04976L40.4466 6.70309L41.2266 5.35976L43.5233 1.02643C43.5666 0.90297 43.5692 0.768724 43.5302 0.643751C43.4912 0.518821 43.4128 0.409837 43.3066 0.333094H43.0033C42.8928 0.338077 42.7845 0.367891 42.687 0.420411C42.5895 0.472931 42.505 0.546771 42.44 0.636428L40.1 4.66643L39.3633 6.00976L38.67 5.70643L37.9333 5.44643C33.4427 3.8879 28.5573 3.8879 24.0666 5.44643L23.3733 5.70643L22.6366 6.00976L21.9 4.66643L19.56 0.333094C19.5201 0.261984 19.4667 0.199367 19.4026 0.148927C19.3386 0.0984439 19.2653 0.0610477 19.1868 0.0389477C19.1083 0.0168044 19.0263 0.0103477 18.9453 0.0199244C18.8644 0.029501 18.7861 0.054937 18.715 0.0947604C18.6438 0.134627 18.5812 0.188057 18.5307 0.252104C18.4803 0.316107 18.4429 0.38947 18.4208 0.467903C18.3987 0.54638 18.3922 0.628455 18.4018 0.709401C18.4114 0.790348 18.4368 0.86865 18.4766 0.93976L20.7733 5.27309L21.5533 6.61643L20.86 6.96309L20.21 7.35309C16.3653 9.66298 13.5452 13.3509 12.3233 17.6664C11.9851 18.7925 11.7957 19.9579 11.76 21.1331H50.24C50.1975 19.9617 50.0229 18.7988 49.72 17.6664ZM22.3333 15.3698C21.9905 15.3698 21.6553 15.2681 21.3703 15.0776C21.0852 14.8872 20.8631 14.6165 20.7319 14.2998C20.6007 13.9831 20.5664 13.6345 20.6332 13.2983C20.7001 12.962 20.8652 12.6532 21.1076 12.4108C21.3501 12.1684 21.6589 12.0033 21.9951 11.9364C22.3313 11.8696 22.68 11.9039 22.9967 12.035C23.3135 12.1663 23.5839 12.3884 23.7746 12.6735C23.9648 12.9585 24.0666 13.2936 24.0666 13.6364C24.0666 14.0962 23.8842 14.537 23.5588 14.8621C23.2338 15.1872 22.7931 15.3698 22.3333 15.3698ZM39.6666 15.3698C39.3239 15.3698 38.9885 15.2681 38.7038 15.0776C38.4186 14.8872 38.1963 14.6165 38.065 14.2998C37.9342 13.9831 37.8995 13.6345 37.9667 13.2983C38.0334 12.962 38.1985 12.6532 38.4412 12.4108C38.6834 12.1684 38.9924 12.0033 39.3286 11.9364C39.6649 11.8696 40.0133 11.9039 40.3301 12.035C40.6468 12.1663 40.9172 12.3884 41.1079 12.6735C41.2981 12.9585 41.4 13.2936 41.4 13.6364C41.4 14.0962 41.2175 14.537 40.8921 14.8621C40.5671 15.1872 40.1264 15.3698 39.6666 15.3698Z" fill=""/>
</svg>
