<svg xmlns="http://www.w3.org/2000/svg" width="920" height="1174" viewBox="0 0 920 1174" fill="none"><path opacity="0.5" d="M725.65 250.716L729.444 255.334C781.996 319.313 779.571 412.18 723.751 473.328C673.818 528.028 666.006 609.13 704.581 672.354L725.054 705.909C760.332 763.731 759.287 836.671 722.365 893.458C667.785 977.404 554.25 998.943 472.718 940.818L187.75 737.665C132.874 698.544 103.182 633.006 109.957 565.954C115.445 511.644 144.303 462.413 189.01 431.093L492.105 218.753C566.345 166.742 668.115 180.67 725.65 250.716Z" stroke="#D2D2D2" stroke-width="0.6" stroke-linecap="round"></path><path opacity="0.5" d="M758.125 209.512L762.29 214.587C821.257 286.439 818.535 390.684 755.899 459.36C699.869 520.792 691.103 611.829 734.38 682.823L757.43 720.635C796.971 785.501 795.798 867.297 754.415 931.003C693.158 1025.3 565.641 1049.49 474.106 984.178L154.618 756.214C93.0168 712.26 59.6909 638.668 67.2919 563.376C73.4491 502.385 105.842 447.092 156.034 411.898L495.859 173.616C579.219 115.165 693.537 130.811 758.125 209.512Z" stroke="#D2D2D2" stroke-width="0.6" stroke-linecap="round"></path><path opacity="0.4" d="M798.567 158.347L803.34 164.161C870.31 245.735 867.219 364.111 796.082 442.078C732.448 511.823 722.493 615.2 771.647 695.806L797.789 738.676C842.717 812.353 841.385 905.272 794.364 977.631C724.8 1084.68 580.032 1112.14 476.096 1038.01L113.123 779.109C43.1728 729.215 5.32836 645.66 13.9615 560.174C20.9546 490.929 57.7382 428.155 114.73 388.208L500.802 117.594C595.45 51.2515 725.226 69.0132 798.567 158.347Z" stroke="#D2D2D2" stroke-width="0.6" stroke-linecap="round"></path><path d="M544.528 477.985L413.284 568.948C407.617 572.876 407.532 581.226 413.118 585.268L546.795 682.016C563.16 693.86 568.775 715.677 560.16 733.95L553.466 748.149C541.855 772.777 510.24 780.018 489.068 762.898L296.476 607.172C287.608 600.001 282.972 588.831 284.155 577.488C285.121 568.23 289.876 559.785 297.29 554.158L492.371 406.094C511.133 391.854 537.936 395.824 551.764 414.893L554.604 418.809C568.427 437.871 563.881 464.571 544.528 477.985Z" stroke="#D2D2D2" stroke-width="0.6" stroke-linecap="round"></path><path d="M544.528 477.985L413.285 568.948C407.618 572.876 407.533 581.226 413.118 585.268L546.795 682.016C563.161 693.86 568.775 715.677 560.16 733.95L553.466 748.149C541.855 772.777 510.241 780.018 489.069 762.898L296.476 607.172C287.609 600.001 282.972 588.831 284.156 577.488C285.122 568.23 289.876 559.785 297.291 554.158L492.371 406.094C511.134 391.854 537.936 395.824 551.764 414.893L554.604 418.809C568.427 437.871 563.881 464.571 544.528 477.985Z" stroke="#D2D2D2" stroke-width="0.6" stroke-linecap="round"></path><path d="M586.964 467.342L465.107 562.473C458.603 567.55 458.413 577.323 464.714 582.649L585.833 685.022C601.749 698.475 605.393 721.565 594.394 739.266L562.459 790.66C549.387 811.698 521.042 816.913 501.338 801.907L272.51 627.632C262.079 619.689 255.957 607.33 255.957 594.219V567.276C255.957 553.693 262.525 540.949 273.588 533.068L507.663 366.314C525.327 353.731 549.666 356.665 563.833 373.086L592.92 406.8C608.6 424.974 605.885 452.571 586.964 467.342Z" stroke="#D2D2D2" stroke-width="0.6" stroke-linecap="round"></path><path d="M612.402 477.399L515.73 554.533C503.766 564.079 502.596 581.844 513.204 592.877L611.652 695.266C631.938 716.365 635.326 748.536 619.881 773.398L592.565 817.368C573.076 848.737 531.156 857.149 501.075 835.726L267.943 669.694C243.655 652.397 230.512 623.401 233.513 593.735L237.116 558.112C239.546 534.086 252.319 512.31 272.103 498.464L505.21 335.321C534.485 314.832 574.688 320.923 596.58 349.165L623.567 383.979C646.013 412.934 641.039 454.549 612.402 477.399Z" stroke="#D2D2D2" stroke-width="0.6" stroke-linecap="round"></path><path d="M656.436 454.851L567.892 546.316C554.805 559.836 553.236 580.772 564.163 596.09L651.46 718.471C666.445 739.478 667.349 767.43 653.751 789.361L609.168 861.269C589.684 892.696 547.698 901.119 517.599 879.64L247.391 686.818C215.552 664.098 198.329 626.061 202.257 587.145L205.025 559.723C208.207 528.199 224.949 499.619 250.89 481.427L521.867 291.4C551.164 270.855 591.434 276.957 613.329 305.258L661.29 367.253C681.672 393.599 679.604 430.918 656.436 454.851Z" stroke="#D2D2D2" stroke-width="0.6" stroke-linecap="round"></path><path d="M704.102 436.116L627.381 534.527C612.049 554.195 609.992 581.134 622.161 602.901L705.659 752.26C718.178 774.653 716.115 802.357 700.418 822.649L640.523 900.078C610.72 938.605 556.054 947.226 515.84 919.741L194.76 700.288C161.813 677.77 143.807 639.047 147.818 599.342L153.504 543.063C156.691 511.526 173.447 482.938 199.407 464.75L532.59 231.313C571.494 204.057 624.946 212.156 654.029 249.714L704.3 314.636C732.006 350.415 731.924 400.427 704.102 436.116Z" stroke="#D2D2D2" stroke-width="0.6" stroke-linecap="round"></path></svg>