<svg xmlns="http://www.w3.org/2000/svg" width="24" height="17" viewBox="0 0 24 17" fill="none"><path d="M9.80034 2.59994C9.80034 2.59994 9.60834 2.91194 9.22434 3.53594C8.84034 4.11194 8.38434 4.85594 7.85634 5.76794C7.32834 6.63194 6.87234 7.49594 6.48834 8.35994C6.77634 8.35994 7.23234 8.62394 7.85634 9.15194C8.52834 9.67994 9.12834 10.2799 9.65634 10.9519C10.2323 11.5759 10.5203 12.1039 10.5203 12.5359C10.5203 13.8799 10.0643 14.9599 9.15234 15.7759C8.28834 16.5919 7.18434 16.9999 5.84034 16.9999C4.54434 16.9999 3.39234 16.5199 2.38434 15.5599C1.42434 14.5999 0.944336 13.4479 0.944336 12.1039C0.944336 10.7119 1.25634 9.34394 1.88034 7.99994C2.50434 6.60794 3.22434 5.33594 4.04034 4.18394C4.90434 3.03194 5.64834 2.11994 6.27234 1.44794C6.94434 0.775941 7.28034 0.439941 7.28034 0.439941L9.80034 2.59994ZM23.1203 2.59994C23.1203 2.59994 22.9283 2.91194 22.5443 3.53594C22.1603 4.11194 21.7043 4.85594 21.1763 5.76794C20.6483 6.63194 20.1923 7.49594 19.8083 8.35994C20.0963 8.35994 20.5523 8.62394 21.1763 9.15194C21.8483 9.67994 22.4483 10.2799 22.9763 10.9519C23.5523 11.5759 23.8403 12.1039 23.8403 12.5359C23.8403 13.8799 23.3843 14.9599 22.4723 15.7759C21.6083 16.5919 20.5043 16.9999 19.1603 16.9999C17.8643 16.9999 16.7123 16.5199 15.7043 15.5599C14.7443 14.5999 14.2643 13.4479 14.2643 12.1039C14.2643 10.7119 14.5763 9.34394 15.2003 7.99994C15.8243 6.60794 16.5443 5.33594 17.3603 4.18394C18.2243 3.03194 18.9683 2.11994 19.5923 1.44794C20.2643 0.775941 20.6003 0.439941 20.6003 0.439941L23.1203 2.59994Z" fill="white"></path></svg>