<svg xmlns="http://www.w3.org/2000/svg" width="82" height="82" viewBox="0 0 82 82" fill="none"><path opacity="0.3" fill-rule="evenodd" clip-rule="evenodd" d="M81.5303 78.2776C81.5303 80.0737 80.0742 81.5298 78.2781 81.5298C76.4819 81.5298 75.0259 80.0737 75.0259 78.2776C75.0259 76.4815 76.4819 75.0254 78.2781 75.0254C80.0742 75.0254 81.5303 76.4815 81.5303 78.2776ZM78.2781 66.5244C80.0742 66.5244 81.5303 65.0684 81.5303 63.2722C81.5303 61.4761 80.0742 60.02 78.2781 60.02C76.4819 60.02 75.0259 61.4761 75.0259 63.2722C75.0259 65.0684 76.4819 66.5244 78.2781 66.5244ZM81.5303 48.2676C81.5303 50.0637 80.0742 51.5198 78.2781 51.5198C76.4819 51.5198 75.0259 50.0637 75.0259 48.2676C75.0259 46.4714 76.4819 45.0154 78.2781 45.0154C80.0742 45.0154 81.5303 46.4714 81.5303 48.2676ZM78.2781 36.5149C80.0742 36.5149 81.5303 35.0588 81.5303 33.2627C81.5303 31.4666 80.0742 30.0105 78.2781 30.0105C76.4819 30.0105 75.0259 31.4666 75.0259 33.2627C75.0259 35.0588 76.4819 36.5149 78.2781 36.5149ZM81.5303 18.2581C81.5303 20.0542 80.0742 21.5103 78.2781 21.5103C76.4819 21.5103 75.0259 20.0542 75.0259 18.2581C75.0259 16.4619 76.4819 15.0059 78.2781 15.0059C80.0742 15.0059 81.5303 16.4619 81.5303 18.2581ZM81.5303 3.2522C81.5303 5.04834 80.0742 6.50441 78.2781 6.50441C76.4819 6.50441 75.0259 5.04834 75.0259 3.2522C75.0259 1.45606 76.4819 -2.76984e-06 78.2781 -2.76984e-06C80.0742 -2.76984e-06 81.5303 1.45606 81.5303 3.2522ZM63.2733 21.5095C65.0695 21.5095 66.5255 20.0535 66.5255 18.2573C66.5255 16.4612 65.0695 15.0051 63.2733 15.0051C61.4772 15.0051 60.0211 16.4612 60.0211 18.2573C60.0211 20.0535 61.4772 21.5095 63.2733 21.5095ZM66.5255 33.2627C66.5255 35.0588 65.0695 36.5149 63.2733 36.5149C61.4772 36.5149 60.0211 35.0588 60.0211 33.2627C60.0211 31.4666 61.4772 30.0105 63.2733 30.0105C65.0695 30.0105 66.5255 31.4666 66.5255 33.2627ZM63.2733 51.5198C65.0695 51.5198 66.5255 50.0637 66.5255 48.2676C66.5255 46.4714 65.0695 45.0154 63.2733 45.0154C61.4772 45.0154 60.0211 46.4714 60.0211 48.2676C60.0211 50.0637 61.4772 51.5198 63.2733 51.5198ZM66.5255 63.2722C66.5255 65.0684 65.0695 66.5244 63.2733 66.5244C61.4772 66.5244 60.0211 65.0684 60.0211 63.2722C60.0211 61.4761 61.4772 60.02 63.2733 60.02C65.0695 60.02 66.5255 61.4761 66.5255 63.2722ZM63.2733 81.5298C65.0695 81.5298 66.5255 80.0737 66.5255 78.2776C66.5255 76.4815 65.0695 75.0254 63.2733 75.0254C61.4772 75.0254 60.0211 76.4815 60.0211 78.2776C60.0211 80.0737 61.4772 81.5298 63.2733 81.5298ZM51.5203 33.2627C51.5203 35.0588 50.0642 36.5149 48.2681 36.5149C46.4719 36.5149 45.0159 35.0588 45.0159 33.2627C45.0159 31.4666 46.4719 30.0105 48.2681 30.0105C50.0642 30.0105 51.5203 31.4666 51.5203 33.2627ZM48.2681 51.5198C50.0642 51.5198 51.5203 50.0637 51.5203 48.2676C51.5203 46.4714 50.0642 45.0154 48.2681 45.0154C46.4719 45.0154 45.0159 46.4714 45.0159 48.2676C45.0159 50.0637 46.4719 51.5198 48.2681 51.5198ZM51.5209 63.2722C51.5209 65.0684 50.0648 66.5244 48.2687 66.5244C46.4725 66.5244 45.0165 65.0684 45.0165 63.2722C45.0165 61.4761 46.4725 60.02 48.2687 60.02C50.0648 60.02 51.5209 61.4761 51.5209 63.2722ZM48.2683 81.5298C50.0644 81.5298 51.5205 80.0737 51.5205 78.2776C51.5205 76.4815 50.0644 75.0254 48.2683 75.0254C46.4722 75.0254 45.0161 76.4815 45.0161 78.2776C45.0161 80.0737 46.4722 81.5298 48.2683 81.5298ZM36.5151 48.2676C36.5151 50.0637 35.0591 51.5198 33.2629 51.5198C31.4668 51.5198 30.0107 50.0637 30.0107 48.2676C30.0107 46.4714 31.4668 45.0154 33.2629 45.0154C35.0591 45.0154 36.5151 46.4714 36.5151 48.2676ZM33.2634 66.5244C35.0596 66.5244 36.5156 65.0684 36.5156 63.2722C36.5156 61.4761 35.0596 60.02 33.2634 60.02C31.4673 60.02 30.0112 61.4761 30.0112 63.2722C30.0112 65.0684 31.4673 66.5244 33.2634 66.5244ZM36.5154 78.2776C36.5154 80.0737 35.0593 81.5298 33.2632 81.5298C31.467 81.5298 30.011 80.0737 30.011 78.2776C30.011 76.4815 31.467 75.0254 33.2632 75.0254C35.0593 75.0254 36.5154 76.4815 36.5154 78.2776ZM18.2585 66.5244C20.0547 66.5244 21.5107 65.0684 21.5107 63.2722C21.5107 61.4761 20.0547 60.02 18.2585 60.02C16.4624 60.02 15.0063 61.4761 15.0063 63.2722C15.0063 65.0684 16.4624 66.5244 18.2585 66.5244ZM21.5111 78.2766C21.5111 80.0728 20.055 81.5288 18.2589 81.5288C16.4628 81.5288 15.0067 80.0728 15.0067 78.2766C15.0067 76.4805 16.4628 75.0244 18.2589 75.0244C20.055 75.0244 21.5111 76.4805 21.5111 78.2766ZM3.25231 81.5298C5.04845 81.5298 6.50451 80.0737 6.50451 78.2776C6.50451 76.4815 5.04845 75.0254 3.25231 75.0254C1.45617 75.0254 0.000104042 76.4815 0.000104042 78.2776C0.000104042 80.0737 1.45617 81.5298 3.25231 81.5298Z" fill="#5075F7"></path></svg>