<svg xmlns="http://www.w3.org/2000/svg" width="20" height="15" viewBox="0 0 20 15" fill="none"><path d="M19.2858 1.80804C19.2858 0.813616 18.4179 0 17.3572 0H1.92863C0.867915 0 5.82933e-05 0.813616 5.82933e-05 1.80804V12.8571C5.82933e-05 13.8516 0.867915 13.9286 1.92863 13.9286H17.3572C18.4179 13.9286 19.2858 13.8516 19.2858 12.8571V1.80804ZM18.2143 1.07143L9.64292 6.32813L1.07149 1.07143H18.2143ZM18.2143 12.8571H1.07149V2.14286L9.64292 7.5L18.2143 2.14286V12.8571Z" fill="#5075F7"></path><path fill-rule="evenodd" clip-rule="evenodd" d="M-0.121367 0.571429C0.315733 -0.0783712 1.08382 -0.5 1.92863 -0.5H17.3572C18.202 -0.5 18.9701 -0.0783713 19.4072 0.571429H19.986L19.559 0.833311C19.704 1.12753 19.7858 1.45712 19.7858 1.80804V12.8571C19.7858 13.179 19.7149 13.4732 19.5498 13.7212C19.3841 13.97 19.1528 14.1282 18.9092 14.2283C18.4537 14.4154 17.8713 14.4286 17.3572 14.4286H1.92863C1.41455 14.4286 0.832177 14.4154 0.37663 14.2283C0.133035 14.1282 -0.0982284 13.97 -0.263927 13.7212C-0.42908 13.4732 -0.499942 13.179 -0.499942 12.8571V1.80804C-0.499942 1.45712 -0.418202 1.12753 -0.273177 0.833311L-0.700195 0.571429H-0.121367ZM0.571487 1.40449C0.524991 1.5332 0.500058 1.66922 0.500058 1.80804V12.8571C0.500058 13.0325 0.537679 13.1208 0.568396 13.1669L0.571487 13.1715V1.40449ZM0.929828 13.3571C1.16896 13.4128 1.49758 13.4286 1.92863 13.4286H17.3572C17.7883 13.4286 18.1169 13.4128 18.356 13.3571H0.929828ZM18.7143 13.1715L18.7174 13.1669C18.7482 13.1208 18.7858 13.0325 18.7858 12.8571V1.80804C18.7858 1.66922 18.7608 1.5332 18.7143 1.40449V13.1715ZM17.8236 0.571429H1.46225C1.60718 0.525327 1.76377 0.5 1.92863 0.5H17.3572C17.5221 0.5 17.6787 0.525327 17.8236 0.571429ZM16.4427 1.57143H2.84317L9.64292 5.74159L16.4427 1.57143ZM1.57149 3.04498V12.3571H17.7143V3.04498L9.64292 8.08962L1.57149 3.04498Z" fill="#5075F7"></path></svg>