<svg xmlns="http://www.w3.org/2000/svg" width="21" height="23" viewBox="0 0 21 23" fill="none"><path fill-rule="evenodd" clip-rule="evenodd" d="M6.88846 5.75005C6.88846 3.55626 8.66688 1.77783 10.8607 1.77783C13.0545 1.77783 14.8329 3.55626 14.8329 5.75005C14.8329 7.94385 13.0545 9.72228 10.8607 9.72228C8.66688 9.72228 6.88846 7.94385 6.88846 5.75005ZM10.8607 0.777832C8.1146 0.777832 5.88846 3.00397 5.88846 5.75005C5.88846 8.49614 8.1146 10.7223 10.8607 10.7223C13.6068 10.7223 15.8329 8.49614 15.8329 5.75005C15.8329 3.00397 13.6068 0.777832 10.8607 0.777832ZM10.2218 12.2778C7.71697 12.2778 5.31474 13.2729 3.54356 15.044C1.77238 16.8152 0.777344 19.2175 0.777344 21.7223V22.2223H19.6662V21.7223C19.6662 19.2175 18.6712 16.8152 16.9 15.044C15.1288 13.2729 12.7266 12.2778 10.2218 12.2778ZM4.25067 15.7512C5.83431 14.1675 7.98218 13.2778 10.2218 13.2778C12.4614 13.2778 14.6093 14.1675 16.1929 15.7512C17.6583 17.2165 18.5295 19.165 18.6514 21.2223H1.79215C1.91409 19.165 2.78528 17.2165 4.25067 15.7512Z" fill="#5075F7"></path><path fill-rule="evenodd" clip-rule="evenodd" d="M0.277344 22.7223V21.7223C0.277344 19.0848 1.32506 16.5554 3.19001 14.6905C5.05495 12.8255 7.58436 11.7778 10.2218 11.7778C12.8592 11.7778 15.3886 12.8255 17.2536 14.6905C19.1185 16.5554 20.1662 19.0848 20.1662 21.7223V22.7223H0.277344ZM10.8607 2.27783C8.94302 2.27783 7.38846 3.8324 7.38846 5.75005C7.38846 7.66771 8.94302 9.22228 10.8607 9.22228C12.7783 9.22228 14.3329 7.66771 14.3329 5.75005C14.3329 3.8324 12.7783 2.27783 10.8607 2.27783ZM5.38846 5.75005C5.38846 2.72783 7.83845 0.277832 10.8607 0.277832C13.8829 0.277832 16.3329 2.72783 16.3329 5.75005C16.3329 8.77228 13.8829 11.2223 10.8607 11.2223C7.83845 11.2223 5.38846 8.77228 5.38846 5.75005ZM10.2218 13.7778C8.11479 13.7778 6.09409 14.6148 4.60422 16.1047C3.35203 17.3569 2.56101 18.9841 2.3405 20.7223H18.1031C17.8826 18.9841 17.0916 17.3569 15.8394 16.1047C14.3495 14.6148 12.3288 13.7778 10.2218 13.7778ZM18.6068 20.7223C18.6266 20.8881 18.6415 21.0548 18.6514 21.2223H1.79215C1.80207 21.0548 1.81696 20.8881 1.83673 20.7223C2.05985 18.851 2.90456 17.0973 4.25067 15.7512C5.83431 14.1675 7.98218 13.2778 10.2218 13.2778C12.4614 13.2778 14.6093 14.1675 16.1929 15.7512C17.539 17.0973 18.3837 18.851 18.6068 20.7223ZM10.8607 1.77783C8.66688 1.77783 6.88846 3.55626 6.88846 5.75005C6.88846 7.94385 8.66688 9.72228 10.8607 9.72228C13.0545 9.72228 14.8329 7.94385 14.8329 5.75005C14.8329 3.55626 13.0545 1.77783 10.8607 1.77783ZM5.88846 5.75005C5.88846 3.00397 8.1146 0.777832 10.8607 0.777832C13.6068 0.777832 15.8329 3.00397 15.8329 5.75005C15.8329 8.49614 13.6068 10.7223 10.8607 10.7223C8.1146 10.7223 5.88846 8.49614 5.88846 5.75005ZM3.54356 15.044C5.31474 13.2729 7.71697 12.2778 10.2218 12.2778C12.7266 12.2778 15.1288 13.2729 16.9 15.044C18.6712 16.8152 19.6662 19.2175 19.6662 21.7223V22.2223H0.777344V21.7223C0.777344 19.2175 1.77238 16.8152 3.54356 15.044Z" fill="#5075F7"></path></svg>