<svg xmlns="http://www.w3.org/2000/svg" width="23" height="22" viewBox="0 0 23 22" fill="none"><path d="M4.78174 2.44444C4.85508 3.53222 5.03841 4.59556 5.33174 5.61L3.86508 7.07667C3.36397 5.61 3.04619 4.05778 2.93619 2.44444H4.78174ZM16.8329 17.1356C17.8717 17.4289 18.9351 17.6122 20.0106 17.6856V19.5067C18.3973 19.3967 16.8451 19.0789 15.3662 18.59L16.8329 17.1356ZM5.95508 0H1.6773C1.00508 0 0.455078 0.55 0.455078 1.22222C0.455078 12.6989 9.75619 22 21.2329 22C21.9051 22 22.4551 21.45 22.4551 20.7778V16.5122C22.4551 15.84 21.9051 15.29 21.2329 15.29C19.7173 15.29 18.2384 15.0456 16.8695 14.5933C16.7473 14.5444 16.6129 14.5322 16.4906 14.5322C16.1729 14.5322 15.8673 14.6544 15.6229 14.8867L12.934 17.5756C9.47508 15.8033 6.63952 12.98 4.87952 9.52111L7.56841 6.83222C7.91063 6.49 8.00841 6.01333 7.87397 5.58556C7.42174 4.21667 7.1773 2.75 7.1773 1.22222C7.1773 0.55 6.6273 0 5.95508 0Z" fill="#5075F7"></path></svg>