<svg xmlns="http://www.w3.org/2000/svg" width="80" height="80" viewBox="0 0 80 80" fill="none"><g opacity="0.2"><path d="M4.32432 2.16216C4.32432 3.35629 3.35629 4.32432 2.16216 4.32432C0.968033 4.32432 0 3.35629 0 2.16216C0 0.968033 0.968033 0 2.16216 0C3.35629 0 4.32432 0.968033 4.32432 2.16216Z" fill="#424242"></path><path d="M15.1351 2.16216C15.1351 3.35629 14.1671 4.32432 12.973 4.32432C11.7788 4.32432 10.8108 3.35629 10.8108 2.16216C10.8108 0.968033 11.7788 0 12.973 0C14.1671 0 15.1351 0.968033 15.1351 2.16216Z" fill="#424242"></path><path d="M25.9459 2.16216C25.9459 3.35629 24.9779 4.32432 23.7838 4.32432C22.5897 4.32432 21.6216 3.35629 21.6216 2.16216C21.6216 0.968033 22.5897 0 23.7838 0C24.9779 0 25.9459 0.968033 25.9459 2.16216Z" fill="#424242"></path><path d="M36.7568 2.16216C36.7568 3.35629 35.7887 4.32432 34.5946 4.32432C33.4005 4.32432 32.4324 3.35629 32.4324 2.16216C32.4324 0.968033 33.4005 0 34.5946 0C35.7887 0 36.7568 0.968033 36.7568 2.16216Z" fill="#424242"></path><path d="M4.32432 12.973C4.32432 14.1671 3.35629 15.1351 2.16216 15.1351C0.968033 15.1351 0 14.1671 0 12.973C0 11.7788 0.968033 10.8108 2.16216 10.8108C3.35629 10.8108 4.32432 11.7788 4.32432 12.973Z" fill="#424242"></path><path d="M15.1351 12.973C15.1351 14.1671 14.1671 15.1351 12.973 15.1351C11.7788 15.1351 10.8108 14.1671 10.8108 12.973C10.8108 11.7788 11.7788 10.8108 12.973 10.8108C14.1671 10.8108 15.1351 11.7788 15.1351 12.973Z" fill="#424242"></path><path d="M25.9459 12.973C25.9459 14.1671 24.9779 15.1351 23.7838 15.1351C22.5897 15.1351 21.6216 14.1671 21.6216 12.973C21.6216 11.7788 22.5897 10.8108 23.7838 10.8108C24.9779 10.8108 25.9459 11.7788 25.9459 12.973Z" fill="#424242"></path><path d="M36.7568 12.973C36.7568 14.1671 35.7887 15.1351 34.5946 15.1351C33.4005 15.1351 32.4324 14.1671 32.4324 12.973C32.4324 11.7788 33.4005 10.8108 34.5946 10.8108C35.7887 10.8108 36.7568 11.7788 36.7568 12.973Z" fill="#424242"></path><path d="M4.32432 23.7838C4.32432 24.9779 3.35629 25.9459 2.16216 25.9459C0.968033 25.9459 0 24.9779 0 23.7838C0 22.5897 0.968033 21.6216 2.16216 21.6216C3.35629 21.6216 4.32432 22.5897 4.32432 23.7838Z" fill="#424242"></path><path d="M15.1351 23.7838C15.1351 24.9779 14.1671 25.9459 12.973 25.9459C11.7788 25.9459 10.8108 24.9779 10.8108 23.7838C10.8108 22.5897 11.7788 21.6216 12.973 21.6216C14.1671 21.6216 15.1351 22.5897 15.1351 23.7838Z" fill="#424242"></path><path d="M25.9459 23.7838C25.9459 24.9779 24.9779 25.9459 23.7838 25.9459C22.5897 25.9459 21.6216 24.9779 21.6216 23.7838C21.6216 22.5897 22.5897 21.6216 23.7838 21.6216C24.9779 21.6216 25.9459 22.5897 25.9459 23.7838Z" fill="#424242"></path><path d="M36.7568 23.7838C36.7568 24.9779 35.7887 25.9459 34.5946 25.9459C33.4005 25.9459 32.4324 24.9779 32.4324 23.7838C32.4324 22.5897 33.4005 21.6216 34.5946 21.6216C35.7887 21.6216 36.7568 22.5897 36.7568 23.7838Z" fill="#424242"></path><path d="M4.32432 34.5946C4.32432 35.7887 3.35629 36.7568 2.16216 36.7568C0.968033 36.7568 0 35.7887 0 34.5946C0 33.4005 0.968033 32.4324 2.16216 32.4324C3.35629 32.4324 4.32432 33.4005 4.32432 34.5946Z" fill="#424242"></path><path d="M15.1351 34.5946C15.1351 35.7887 14.1671 36.7568 12.973 36.7568C11.7788 36.7568 10.8108 35.7887 10.8108 34.5946C10.8108 33.4005 11.7788 32.4324 12.973 32.4324C14.1671 32.4324 15.1351 33.4005 15.1351 34.5946Z" fill="#424242"></path><path d="M25.9459 34.5946C25.9459 35.7887 24.9779 36.7568 23.7838 36.7568C22.5897 36.7568 21.6216 35.7887 21.6216 34.5946C21.6216 33.4005 22.5897 32.4324 23.7838 32.4324C24.9779 32.4324 25.9459 33.4005 25.9459 34.5946Z" fill="#424242"></path><path d="M36.7568 34.5946C36.7568 35.7887 35.7887 36.7568 34.5946 36.7568C33.4005 36.7568 32.4324 35.7887 32.4324 34.5946C32.4324 33.4005 33.4005 32.4324 34.5946 32.4324C35.7887 32.4324 36.7568 33.4005 36.7568 34.5946Z" fill="#424242"></path><path d="M47.5676 2.16216C47.5676 3.35629 46.5995 4.32432 45.4054 4.32432C44.2113 4.32432 43.2432 3.35629 43.2432 2.16216C43.2432 0.968033 44.2113 0 45.4054 0C46.5995 0 47.5676 0.968033 47.5676 2.16216Z" fill="#424242"></path><path d="M58.3784 2.16216C58.3784 3.35629 57.4103 4.32432 56.2162 4.32432C55.0221 4.32432 54.0541 3.35629 54.0541 2.16216C54.0541 0.968033 55.0221 0 56.2162 0C57.4103 0 58.3784 0.968033 58.3784 2.16216Z" fill="#424242"></path><path d="M69.1892 2.16216C69.1892 3.35629 68.2212 4.32432 67.027 4.32432C65.8329 4.32432 64.8649 3.35629 64.8649 2.16216C64.8649 0.968033 65.8329 0 67.027 0C68.2212 0 69.1892 0.968033 69.1892 2.16216Z" fill="#424242"></path><path d="M80 2.16216C80 3.35629 79.032 4.32432 77.8378 4.32432C76.6437 4.32432 75.6757 3.35629 75.6757 2.16216C75.6757 0.968033 76.6437 0 77.8378 0C79.032 0 80 0.968033 80 2.16216Z" fill="#424242"></path><path d="M47.5676 12.973C47.5676 14.1671 46.5995 15.1351 45.4054 15.1351C44.2113 15.1351 43.2432 14.1671 43.2432 12.973C43.2432 11.7788 44.2113 10.8108 45.4054 10.8108C46.5995 10.8108 47.5676 11.7788 47.5676 12.973Z" fill="#424242"></path><path d="M58.3784 12.973C58.3784 14.1671 57.4103 15.1351 56.2162 15.1351C55.0221 15.1351 54.0541 14.1671 54.0541 12.973C54.0541 11.7788 55.0221 10.8108 56.2162 10.8108C57.4103 10.8108 58.3784 11.7788 58.3784 12.973Z" fill="#424242"></path><path d="M69.1892 12.973C69.1892 14.1671 68.2212 15.1351 67.027 15.1351C65.8329 15.1351 64.8649 14.1671 64.8649 12.973C64.8649 11.7788 65.8329 10.8108 67.027 10.8108C68.2212 10.8108 69.1892 11.7788 69.1892 12.973Z" fill="#424242"></path><path d="M80 12.973C80 14.1671 79.032 15.1351 77.8378 15.1351C76.6437 15.1351 75.6757 14.1671 75.6757 12.973C75.6757 11.7788 76.6437 10.8108 77.8378 10.8108C79.032 10.8108 80 11.7788 80 12.973Z" fill="#424242"></path><path d="M47.5676 23.7838C47.5676 24.9779 46.5995 25.9459 45.4054 25.9459C44.2113 25.9459 43.2432 24.9779 43.2432 23.7838C43.2432 22.5897 44.2113 21.6216 45.4054 21.6216C46.5995 21.6216 47.5676 22.5897 47.5676 23.7838Z" fill="#424242"></path><path d="M58.3784 23.7838C58.3784 24.9779 57.4103 25.9459 56.2162 25.9459C55.0221 25.9459 54.0541 24.9779 54.0541 23.7838C54.0541 22.5897 55.0221 21.6216 56.2162 21.6216C57.4103 21.6216 58.3784 22.5897 58.3784 23.7838Z" fill="#424242"></path><path d="M69.1892 23.7838C69.1892 24.9779 68.2212 25.9459 67.027 25.9459C65.8329 25.9459 64.8649 24.9779 64.8649 23.7838C64.8649 22.5897 65.8329 21.6216 67.027 21.6216C68.2212 21.6216 69.1892 22.5897 69.1892 23.7838Z" fill="#424242"></path><path d="M80 23.7838C80 24.9779 79.032 25.9459 77.8378 25.9459C76.6437 25.9459 75.6757 24.9779 75.6757 23.7838C75.6757 22.5897 76.6437 21.6216 77.8378 21.6216C79.032 21.6216 80 22.5897 80 23.7838Z" fill="#424242"></path><path d="M47.5676 34.5946C47.5676 35.7887 46.5995 36.7568 45.4054 36.7568C44.2113 36.7568 43.2432 35.7887 43.2432 34.5946C43.2432 33.4005 44.2113 32.4324 45.4054 32.4324C46.5995 32.4324 47.5676 33.4005 47.5676 34.5946Z" fill="#424242"></path><path d="M58.3784 34.5946C58.3784 35.7887 57.4103 36.7568 56.2162 36.7568C55.0221 36.7568 54.0541 35.7887 54.0541 34.5946C54.0541 33.4005 55.0221 32.4324 56.2162 32.4324C57.4103 32.4324 58.3784 33.4005 58.3784 34.5946Z" fill="#424242"></path><path d="M69.1892 34.5946C69.1892 35.7887 68.2212 36.7568 67.027 36.7568C65.8329 36.7568 64.8649 35.7887 64.8649 34.5946C64.8649 33.4005 65.8329 32.4324 67.027 32.4324C68.2212 32.4324 69.1892 33.4005 69.1892 34.5946Z" fill="#424242"></path><path d="M80 34.5946C80 35.7887 79.032 36.7568 77.8378 36.7568C76.6437 36.7568 75.6757 35.7887 75.6757 34.5946C75.6757 33.4005 76.6437 32.4324 77.8378 32.4324C79.032 32.4324 80 33.4005 80 34.5946Z" fill="#424242"></path><path d="M4.32432 45.4054C4.32432 46.5995 3.35629 47.5676 2.16216 47.5676C0.968033 47.5676 0 46.5995 0 45.4054C0 44.2113 0.968033 43.2432 2.16216 43.2432C3.35629 43.2432 4.32432 44.2113 4.32432 45.4054Z" fill="#424242"></path><path d="M15.1351 45.4054C15.1351 46.5995 14.1671 47.5676 12.973 47.5676C11.7788 47.5676 10.8108 46.5995 10.8108 45.4054C10.8108 44.2113 11.7788 43.2432 12.973 43.2432C14.1671 43.2432 15.1351 44.2113 15.1351 45.4054Z" fill="#424242"></path><path d="M25.9459 45.4054C25.9459 46.5995 24.9779 47.5676 23.7838 47.5676C22.5897 47.5676 21.6216 46.5995 21.6216 45.4054C21.6216 44.2113 22.5897 43.2432 23.7838 43.2432C24.9779 43.2432 25.9459 44.2113 25.9459 45.4054Z" fill="#424242"></path><path d="M36.7568 45.4054C36.7568 46.5995 35.7887 47.5676 34.5946 47.5676C33.4005 47.5676 32.4324 46.5995 32.4324 45.4054C32.4324 44.2113 33.4005 43.2432 34.5946 43.2432C35.7887 43.2432 36.7568 44.2113 36.7568 45.4054Z" fill="#424242"></path><path d="M4.32432 56.2162C4.32432 57.4103 3.35629 58.3784 2.16216 58.3784C0.968033 58.3784 0 57.4103 0 56.2162C0 55.0221 0.968033 54.0541 2.16216 54.0541C3.35629 54.0541 4.32432 55.0221 4.32432 56.2162Z" fill="#424242"></path><path d="M15.1351 56.2162C15.1351 57.4103 14.1671 58.3784 12.973 58.3784C11.7788 58.3784 10.8108 57.4103 10.8108 56.2162C10.8108 55.0221 11.7788 54.0541 12.973 54.0541C14.1671 54.0541 15.1351 55.0221 15.1351 56.2162Z" fill="#424242"></path><path d="M25.9459 56.2162C25.9459 57.4103 24.9779 58.3784 23.7838 58.3784C22.5897 58.3784 21.6216 57.4103 21.6216 56.2162C21.6216 55.0221 22.5897 54.0541 23.7838 54.0541C24.9779 54.0541 25.9459 55.0221 25.9459 56.2162Z" fill="#424242"></path><path d="M36.7568 56.2162C36.7568 57.4103 35.7887 58.3784 34.5946 58.3784C33.4005 58.3784 32.4324 57.4103 32.4324 56.2162C32.4324 55.0221 33.4005 54.0541 34.5946 54.0541C35.7887 54.0541 36.7568 55.0221 36.7568 56.2162Z" fill="#424242"></path><path d="M4.32432 67.027C4.32432 68.2212 3.35629 69.1892 2.16216 69.1892C0.968033 69.1892 0 68.2212 0 67.027C0 65.8329 0.968033 64.8649 2.16216 64.8649C3.35629 64.8649 4.32432 65.8329 4.32432 67.027Z" fill="#424242"></path><path d="M15.1351 67.027C15.1351 68.2212 14.1671 69.1892 12.973 69.1892C11.7788 69.1892 10.8108 68.2212 10.8108 67.027C10.8108 65.8329 11.7788 64.8649 12.973 64.8649C14.1671 64.8649 15.1351 65.8329 15.1351 67.027Z" fill="#424242"></path><path d="M25.9459 67.027C25.9459 68.2212 24.9779 69.1892 23.7838 69.1892C22.5897 69.1892 21.6216 68.2212 21.6216 67.027C21.6216 65.8329 22.5897 64.8649 23.7838 64.8649C24.9779 64.8649 25.9459 65.8329 25.9459 67.027Z" fill="#424242"></path><path d="M36.7568 67.027C36.7568 68.2212 35.7887 69.1892 34.5946 69.1892C33.4005 69.1892 32.4324 68.2212 32.4324 67.027C32.4324 65.8329 33.4005 64.8649 34.5946 64.8649C35.7887 64.8649 36.7568 65.8329 36.7568 67.027Z" fill="#424242"></path><path d="M4.32432 77.8378C4.32432 79.032 3.35629 80 2.16216 80C0.968033 80 0 79.032 0 77.8378C0 76.6437 0.968033 75.6757 2.16216 75.6757C3.35629 75.6757 4.32432 76.6437 4.32432 77.8378Z" fill="#424242"></path><path d="M15.1351 77.8378C15.1351 79.032 14.1671 80 12.973 80C11.7788 80 10.8108 79.032 10.8108 77.8378C10.8108 76.6437 11.7788 75.6757 12.973 75.6757C14.1671 75.6757 15.1351 76.6437 15.1351 77.8378Z" fill="#424242"></path><path d="M25.9459 77.8378C25.9459 79.032 24.9779 80 23.7838 80C22.5897 80 21.6216 79.032 21.6216 77.8378C21.6216 76.6437 22.5897 75.6757 23.7838 75.6757C24.9779 75.6757 25.9459 76.6437 25.9459 77.8378Z" fill="#424242"></path><path d="M36.7568 77.8378C36.7568 79.032 35.7887 80 34.5946 80C33.4005 80 32.4324 79.032 32.4324 77.8378C32.4324 76.6437 33.4005 75.6757 34.5946 75.6757C35.7887 75.6757 36.7568 76.6437 36.7568 77.8378Z" fill="#424242"></path><path d="M47.5676 45.4054C47.5676 46.5995 46.5995 47.5676 45.4054 47.5676C44.2113 47.5676 43.2432 46.5995 43.2432 45.4054C43.2432 44.2113 44.2113 43.2432 45.4054 43.2432C46.5995 43.2432 47.5676 44.2113 47.5676 45.4054Z" fill="#424242"></path><path d="M58.3784 45.4054C58.3784 46.5995 57.4103 47.5676 56.2162 47.5676C55.0221 47.5676 54.0541 46.5995 54.0541 45.4054C54.0541 44.2113 55.0221 43.2432 56.2162 43.2432C57.4103 43.2432 58.3784 44.2113 58.3784 45.4054Z" fill="#424242"></path><path d="M69.1892 45.4054C69.1892 46.5995 68.2212 47.5676 67.027 47.5676C65.8329 47.5676 64.8649 46.5995 64.8649 45.4054C64.8649 44.2113 65.8329 43.2432 67.027 43.2432C68.2212 43.2432 69.1892 44.2113 69.1892 45.4054Z" fill="#424242"></path><path d="M80 45.4054C80 46.5995 79.032 47.5676 77.8378 47.5676C76.6437 47.5676 75.6757 46.5995 75.6757 45.4054C75.6757 44.2113 76.6437 43.2432 77.8378 43.2432C79.032 43.2432 80 44.2113 80 45.4054Z" fill="#424242"></path><path d="M47.5676 56.2162C47.5676 57.4103 46.5995 58.3784 45.4054 58.3784C44.2113 58.3784 43.2432 57.4103 43.2432 56.2162C43.2432 55.0221 44.2113 54.0541 45.4054 54.0541C46.5995 54.0541 47.5676 55.0221 47.5676 56.2162Z" fill="#424242"></path><path d="M58.3784 56.2162C58.3784 57.4103 57.4103 58.3784 56.2162 58.3784C55.0221 58.3784 54.0541 57.4103 54.0541 56.2162C54.0541 55.0221 55.0221 54.0541 56.2162 54.0541C57.4103 54.0541 58.3784 55.0221 58.3784 56.2162Z" fill="#424242"></path><path d="M69.1892 56.2162C69.1892 57.4103 68.2212 58.3784 67.027 58.3784C65.8329 58.3784 64.8649 57.4103 64.8649 56.2162C64.8649 55.0221 65.8329 54.0541 67.027 54.0541C68.2212 54.0541 69.1892 55.0221 69.1892 56.2162Z" fill="#424242"></path><path d="M80 56.2162C80 57.4103 79.032 58.3784 77.8378 58.3784C76.6437 58.3784 75.6757 57.4103 75.6757 56.2162C75.6757 55.0221 76.6437 54.0541 77.8378 54.0541C79.032 54.0541 80 55.0221 80 56.2162Z" fill="#424242"></path><path d="M47.5676 67.027C47.5676 68.2212 46.5995 69.1892 45.4054 69.1892C44.2113 69.1892 43.2432 68.2212 43.2432 67.027C43.2432 65.8329 44.2113 64.8649 45.4054 64.8649C46.5995 64.8649 47.5676 65.8329 47.5676 67.027Z" fill="#424242"></path><path d="M58.3784 67.027C58.3784 68.2212 57.4103 69.1892 56.2162 69.1892C55.0221 69.1892 54.0541 68.2212 54.0541 67.027C54.0541 65.8329 55.0221 64.8649 56.2162 64.8649C57.4103 64.8649 58.3784 65.8329 58.3784 67.027Z" fill="#424242"></path><path d="M69.1892 67.027C69.1892 68.2212 68.2212 69.1892 67.027 69.1892C65.8329 69.1892 64.8649 68.2212 64.8649 67.027C64.8649 65.8329 65.8329 64.8649 67.027 64.8649C68.2212 64.8649 69.1892 65.8329 69.1892 67.027Z" fill="#424242"></path><path d="M80 67.027C80 68.2212 79.032 69.1892 77.8378 69.1892C76.6437 69.1892 75.6757 68.2212 75.6757 67.027C75.6757 65.8329 76.6437 64.8649 77.8378 64.8649C79.032 64.8649 80 65.8329 80 67.027Z" fill="#424242"></path><path d="M47.5676 77.8378C47.5676 79.032 46.5995 80 45.4054 80C44.2113 80 43.2432 79.032 43.2432 77.8378C43.2432 76.6437 44.2113 75.6757 45.4054 75.6757C46.5995 75.6757 47.5676 76.6437 47.5676 77.8378Z" fill="#424242"></path><path d="M58.3784 77.8378C58.3784 79.032 57.4103 80 56.2162 80C55.0221 80 54.0541 79.032 54.0541 77.8378C54.0541 76.6437 55.0221 75.6757 56.2162 75.6757C57.4103 75.6757 58.3784 76.6437 58.3784 77.8378Z" fill="#424242"></path><path d="M69.1892 77.8378C69.1892 79.032 68.2212 80 67.027 80C65.8329 80 64.8649 79.032 64.8649 77.8378C64.8649 76.6437 65.8329 75.6757 67.027 75.6757C68.2212 75.6757 69.1892 76.6437 69.1892 77.8378Z" fill="#424242"></path><path d="M80 77.8378C80 79.032 79.032 80 77.8378 80C76.6437 80 75.6757 79.032 75.6757 77.8378C75.6757 76.6437 76.6437 75.6757 77.8378 75.6757C79.032 75.6757 80 76.6437 80 77.8378Z" fill="#424242"></path></g></svg>