<svg xmlns="http://www.w3.org/2000/svg" width="1800" height="349" viewBox="0 0 1800 349" fill="none"><path fill-rule="evenodd" clip-rule="evenodd" d="M1468.45 146.145C1337.68 79.0368 1180.59 89.2651 1059.63 172.766L985.698 223.796C872.635 301.839 727.49 316.57 601.053 262.834L321.739 144.126C221.031 101.325 107.165 101.763 6.78955 145.337L-351.602 300.917L-352.398 299.083L5.99316 143.502C106.872 99.7097 221.309 99.2697 322.521 142.285L601.835 260.993C727.642 314.461 872.063 299.803 984.561 222.15L1058.49 171.12C1180.06 87.2006 1337.93 76.921 1469.36 144.366L1864.46 347.11L1863.54 348.89L1468.45 146.145Z" fill="#DBE8F4"></path><path fill-rule="evenodd" clip-rule="evenodd" d="M1468.45 126.145C1337.68 59.0368 1180.59 69.2651 1059.63 152.766L985.698 203.796C872.635 281.839 727.49 296.57 601.053 242.834L321.739 124.126C221.031 81.3249 107.165 81.7627 6.78955 125.337L-351.602 280.917L-352.398 279.083L5.99316 123.502C106.872 79.7097 221.309 79.2697 322.521 122.285L601.835 240.993C727.642 294.461 872.063 279.803 984.561 202.15L1058.49 151.12C1180.06 67.2006 1337.93 56.921 1469.36 124.366L1864.46 327.11L1863.54 328.89L1468.45 126.145Z" fill="#DBE8F4"></path><path fill-rule="evenodd" clip-rule="evenodd" d="M1468.45 106.145C1337.68 39.0368 1180.59 49.2651 1059.63 132.766L985.698 183.796C872.635 261.839 727.49 276.57 601.053 222.834L321.739 104.126C221.031 61.3249 107.165 61.7627 6.78955 105.337L-351.602 260.917L-352.398 259.083L5.99316 103.502C106.872 59.7097 221.309 59.2697 322.521 102.285L601.835 220.993C727.642 274.461 872.063 259.803 984.561 182.15L1058.49 131.12C1180.06 47.2006 1337.93 36.921 1469.36 104.366L1864.46 307.11L1863.54 308.89L1468.45 106.145Z" fill="#DBE8F4"></path><path fill-rule="evenodd" clip-rule="evenodd" d="M1468.45 86.1454C1337.68 19.0368 1180.59 29.2651 1059.63 112.766L985.698 163.796C872.635 241.839 727.49 256.57 601.053 202.834L321.739 84.1256C221.031 41.3249 107.165 41.7627 6.78955 85.3366L-351.602 240.917L-352.398 239.083L5.99316 83.502C106.872 39.7097 221.309 39.2697 322.521 82.285L601.835 200.993C727.642 254.461 872.063 239.803 984.561 162.15L1058.49 111.12C1180.06 27.2006 1337.93 16.921 1469.36 84.366L1864.46 287.11L1863.54 288.89L1468.45 86.1454Z" fill="#DBE8F4"></path><path fill-rule="evenodd" clip-rule="evenodd" d="M1468.45 66.1454C1337.68 -0.963196 1180.59 9.26508 1059.63 92.7658L985.698 143.796C872.635 221.839 727.49 236.57 601.053 182.834L321.739 64.1256C221.031 21.3249 107.165 21.7627 6.78955 65.3366L-351.602 220.917L-352.398 219.083L5.99316 63.502C106.872 19.7097 221.309 19.2697 322.521 62.285L601.835 180.993C727.642 234.461 872.063 219.803 984.561 142.15L1058.49 91.1198C1180.06 7.20058 1337.93 -3.07897 1469.36 64.366L1864.46 267.11L1863.54 268.89L1468.45 66.1454Z" fill="#DBE8F4"></path><path fill-rule="evenodd" clip-rule="evenodd" d="M1468.45 46.1454C1337.68 -20.9632 1180.59 -10.7349 1059.63 72.7658L985.698 123.796C872.635 201.839 727.49 216.57 601.053 162.834L321.739 44.1256C221.031 1.32491 107.165 1.76272 6.78955 45.3366L-351.602 200.917L-352.398 199.083L5.99316 43.502C106.872 -0.290287 221.309 -0.730289 322.521 42.285L601.835 160.993C727.642 214.461 872.063 199.803 984.561 122.15L1058.49 71.1198C1180.06 -12.7994 1337.93 -23.079 1469.36 44.366L1864.46 247.11L1863.54 248.89L1468.45 46.1454Z" fill="#DBE8F4"></path></svg>