<?xml version="1.0" encoding="UTF-8"?>
<svg id="Layer_2" xmlns="http://www.w3.org/2000/svg" viewBox="0 0 480.8 131.57">
  <defs>
    <style>
      .cls-1 {
        fill: #fff;
      }
    </style>
  </defs>
  <g id="Layer_2-2" data-name="Layer_2">
    <g id="Layer_1-2">
      <g>
        <g>
          <path class="cls-1" d="M144.19,23.14c6.11,0,11.4,1.06,15.84,3.2,4.44,2.13,7.87,5.33,10.28,9.59,2.4,4.26,3.61,9.6,3.61,16.01v9.67h-38.85c.18,3.3,1.41,6.01,3.7,8.11,2.28,2.12,5.65,3.17,10.09,3.17,3.92,0,7.53-.39,10.81-1.17,3.27-.78,6.65-1.98,10.14-3.61v15.62c-3.04,1.59-6.36,2.76-9.95,3.5-3.59.74-8.13,1.12-13.62,1.12-6.34,0-12-1.13-17.01-3.39-5-2.25-8.94-5.76-11.81-10.5s-4.31-10.83-4.31-18.29,1.3-13.78,3.89-18.65c2.59-4.87,6.22-8.48,10.9-10.83,4.67-2.35,10.1-3.53,16.29-3.53h-.01ZM144.96,37.93c-2.55,0-4.7.81-6.42,2.41-1.72,1.62-2.73,4.14-3.03,7.59h18.67c-.04-1.85-.4-3.54-1.12-5.06-.7-1.52-1.73-2.72-3.08-3.61-1.35-.89-3.03-1.33-5.03-1.33h.01Z"/>
          <path class="cls-1" d="M224.21,23.14c1.19,0,2.42.09,3.72.26s2.26.31,2.89.41l-1.95,20.51c-.7-.18-1.62-.34-2.72-.47-1.12-.13-2.67-.19-4.67-.19-1.37,0-2.84.13-4.39.39-1.55.26-3.03.81-4.42,1.64-1.39.83-2.53,2.09-3.42,3.77-.89,1.69-1.33,3.95-1.33,6.8v30.96h-21.73V24.26h16.17l3.39,10.06h1.05c1.15-2.07,2.62-3.95,4.42-5.65,1.8-1.68,3.82-3.03,6.06-4.03,2.24-1,4.55-1.5,6.92-1.5Z"/>
          <path class="cls-1" d="M270.45,71.16c1.97,0,3.76-.2,5.39-.62,1.63-.4,3.34-.92,5.11-1.55v15.84c-2.37,1.04-4.88,1.88-7.53,2.53-2.65.65-6.03.98-10.14.98s-7.66-.64-10.78-1.91c-3.11-1.28-5.53-3.5-7.25-6.67-1.72-3.17-2.58-7.59-2.58-13.26v-25.95h-7.61v-8.83l9.67-6.84,5.61-13.22h14.22v12.62h15.45v16.29h-15.45v24.5c0,2.04.52,3.56,1.55,4.58,1.04,1.02,2.48,1.53,4.34,1.53v-.02Z"/>
          <path class="cls-1" d="M320.3,23.14c6.11,0,11.4,1.06,15.84,3.2,4.44,2.13,7.88,5.33,10.28,9.59,2.41,4.26,3.61,9.6,3.61,16.01v9.67h-38.85c.18,3.3,1.41,6.01,3.7,8.11,2.28,2.12,5.65,3.17,10.09,3.17,3.92,0,7.53-.39,10.81-1.17,3.27-.78,6.65-1.98,10.14-3.61v15.62c-3.04,1.59-6.36,2.76-9.95,3.5-3.59.74-8.13,1.12-13.62,1.12-6.34,0-12-1.13-17.01-3.39-5.01-2.25-8.94-5.76-11.81-10.5-2.87-4.74-4.31-10.83-4.31-18.29s1.3-13.78,3.89-18.65c2.59-4.87,6.22-8.48,10.9-10.83,4.67-2.35,10.1-3.53,16.29-3.53h-.01ZM321.07,37.93c-2.55,0-4.7.81-6.42,2.41-1.72,1.62-2.73,4.14-3.03,7.59h18.67c-.04-1.85-.4-3.54-1.12-5.06-.7-1.52-1.73-2.72-3.08-3.61s-3.03-1.33-5.03-1.33h.01Z"/>
          <path class="cls-1" d="M375.64,55.1l-19.23-30.84h24.67l9.56,17.67,9.78-17.67h24.73l-19.73,30.84,20.51,32.12h-24.67l-10.61-19.11-10.56,19.11h-24.73s20.28-32.12,20.28-32.12Z"/>
          <path class="cls-1" d="M480.79,67.88c0,4-.89,7.54-2.67,10.61s-4.62,5.49-8.53,7.23c-3.91,1.74-9.05,2.62-15.43,2.62-4.49,0-8.49-.24-12.03-.72-3.54-.48-7.12-1.4-10.76-2.77v-17.39c3.97,1.82,8.01,3.13,12.12,3.92s7.36,1.19,9.73,1.19,4.23-.27,5.36-.81c1.13-.53,1.69-1.34,1.69-2.41,0-.92-.38-1.71-1.14-2.36-.75-.65-2.12-1.39-4.06-2.25-1.95-.85-4.68-2-8.2-3.44-3.49-1.45-6.38-3.02-8.7-4.72s-4.05-3.74-5.2-6.11c-1.15-2.37-1.72-5.28-1.72-8.73,0-6.14,2.37-10.78,7.11-13.89s11.02-4.67,18.84-4.67c4.15,0,8.06.46,11.73,1.36s7.46,2.23,11.4,3.98l-5.94,14c-3.11-1.4-6.26-2.54-9.45-3.39s-5.72-1.28-7.61-1.28c-1.7,0-3.02.22-3.94.67-.92.45-1.39,1.09-1.39,1.95,0,.78.32,1.47.98,2.05.65.6,1.88,1.28,3.7,2.05,1.82.78,4.46,1.87,7.95,3.27,3.67,1.48,6.7,3.06,9.09,4.75s4.17,3.73,5.34,6.14c1.17,2.41,1.75,5.46,1.75,9.16h-.01Z"/>
        </g>
        <g>
          <path class="cls-1" d="M180.42,131.3v-19.53h3.19v19.53h-3.19Z"/>
          <path class="cls-1" d="M205.04,131.3h-3.91l-9.6-15.56h-.11l.06.87c.13,1.66.19,3.17.19,4.54v10.15h-2.9v-19.53h3.87l9.58,15.48h.09c-.02-.2-.05-.95-.11-2.23s-.09-2.3-.09-3.01v-10.23h2.92v19.53h0Z"/>
          <path class="cls-1" d="M213.36,131.3h-3.17v-19.53h11.02v2.7h-7.86v6.1h7.36v2.71h-7.36v8.02Z"/>
          <path class="cls-1" d="M242.09,121.51c0,3.18-.8,5.66-2.38,7.41s-3.84,2.65-6.75,2.65-5.21-.87-6.79-2.63-2.37-4.23-2.37-7.46.8-5.7,2.38-7.43,3.86-2.59,6.8-2.59,5.15.88,6.73,2.64,2.38,4.22,2.38,7.41h0ZM227.18,121.51c0,2.4.49,4.23,1.46,5.47.97,1.24,2.41,1.86,4.32,1.86s3.33-.62,4.29-1.84c.97-1.23,1.45-3.06,1.45-5.49s-.48-4.21-1.44-5.45-2.38-1.86-4.28-1.86-3.36.62-4.34,1.86c-.98,1.23-1.47,3.05-1.47,5.45h.01Z"/>
          <path class="cls-1" d="M252.22,131.3h-3.19v-16.79h-5.74v-2.74h14.68v2.74h-5.74v16.79h-.01Z"/>
          <path class="cls-1" d="M272,131.3h-11.05v-19.53h11.05v2.7h-7.86v5.32h7.36v2.67h-7.36v6.13h7.86v2.71Z"/>
          <path class="cls-1" d="M284.53,114.23c-1.84,0-3.27.65-4.33,1.95s-1.57,3.09-1.57,5.38.51,4.21,1.52,5.43c1.01,1.23,2.48,1.84,4.39,1.84.83,0,1.63-.09,2.4-.24.78-.17,1.58-.37,2.41-.64v2.74c-1.53.57-3.26.87-5.21.87-2.86,0-5.05-.86-6.58-2.59-1.53-1.73-2.3-4.21-2.3-7.43,0-2.03.37-3.81,1.12-5.33.74-1.52,1.82-2.69,3.22-3.5s3.06-1.21,4.95-1.21c2,0,3.84.41,5.53,1.25l-1.15,2.66c-.66-.31-1.36-.58-2.09-.82-.73-.23-1.51-.35-2.32-.35h0Z"/>
          <path class="cls-1" d="M308.96,131.3h-3.21v-8.8h-9v8.8h-3.19v-19.53h3.19v7.98h9v-7.98h3.21v19.53Z"/>
        </g>
        <polygon class="cls-1" points="72.69 62.53 54.18 95.02 35.66 62.54 35.66 62.53 54.18 30.05 72.69 62.53"/>
        <polygon class="cls-1" points="108.34 0 72.69 62.53 54.18 30.05 71.3 0 108.34 0"/>
        <polygon class="cls-1" points="54.18 30.05 35.66 62.53 0 0 37.04 0 54.18 30.05"/>
        <rect class="cls-1" x="11.93" y="120.2" width="161.69" height="2.13"/>
        <rect class="cls-1" x="315.29" y="120.2" width="161.69" height="2.13"/>
      </g>
    </g>
  </g>
</svg>