<?xml version="1.0" encoding="UTF-8"?>
<svg version="1.1" xmlns="http://www.w3.org/2000/svg" width="2558" height="700">
<path d="M0 0 C25.64262101 -0.39737325 51.28477982 -0.69702177 76.92986107 -0.88080692 C88.83791481 -0.96841676 100.74405417 -1.0878177 112.65087891 -1.2824707 C123.0307956 -1.45208068 133.40932603 -1.56162571 143.79058993 -1.59950441 C149.28677498 -1.62164489 154.77899499 -1.67353451 160.27390671 -1.79741096 C165.45121937 -1.91317741 170.62295336 -1.94833657 175.80143738 -1.92283058 C177.69713869 -1.92749252 179.593034 -1.96112463 181.48761368 -2.02649307 C193.15260342 -2.40908913 193.15260342 -2.40908913 198 0 C202.30893292 4.12792161 204.72240659 9.47061937 207.05218625 14.88023007 C208.46487274 18.03968027 210.20972487 20.93631547 211.984375 23.90625 C213.2409562 26.10338207 214.49614579 28.30131056 215.75 30.5 C216.08594177 31.08817505 216.42188354 31.6763501 216.76800537 32.28234863 C222.18724718 41.77117015 227.530264 51.30103956 232.85058594 60.84570312 C237.38222867 68.95170801 242.04866898 76.97326996 246.75048828 84.98144531 C250.92289396 92.10586003 254.98507677 99.28580745 259 106.5 C264.81539678 116.94793172 270.79652569 127.2903296 276.84375 137.60546875 C280.6157328 144.04022718 284.32157937 150.5113574 288 157 C292.26509253 150.84520351 295.98948827 144.5470504 299.5 137.9375 C303.80927449 129.92883099 308.26314597 122.0257195 312.875 114.1875 C317.68349246 106.01186997 322.38913613 97.78872257 327 89.5 C331.55258683 81.31803384 336.19248216 73.19686181 340.9375 65.125 C346.56917614 55.5410489 351.99440606 45.85489366 357.36352539 36.12182617 C363.34469513 25.30931974 369.55896903 14.64295414 375.83935547 4.00170898 C376.59974887 2.69029429 377.32206097 1.35587805 378 0 C443.67 0 509.34 0 577 0 C573.05010045 7.8997991 569.06290115 15.50307041 564.5625 23.0625 C559.40798817 31.80419886 554.3994619 40.61294531 549.5 49.5 C544.19831296 59.10836617 538.76038458 68.62180083 533.19921875 78.08203125 C529.04099803 85.17161027 524.99629033 92.31803493 521 99.5 C516.44730708 107.68190842 511.80751931 115.8031357 507.0625 123.875 C502.08266605 132.34965015 497.24910897 140.89400177 492.5 149.5 C487.19914549 159.10583235 481.76220901 168.61674763 476.20361328 178.07543945 C471.39401195 186.27753954 466.7349018 194.55813538 462.10473633 202.86254883 C457.01353572 211.99167186 451.83948492 221.07110668 446.63964844 230.13867188 C443.84425074 235.01688227 441.05629125 239.89934254 438.26751709 244.78134155 C436.558845 247.77236328 434.84971026 250.76312061 433.140625 253.75390625 C432.44856552 254.96500526 431.75650823 256.17610552 431.06445312 257.38720703 C429.70377604 259.76839193 428.34309896 262.14957682 426.98242188 264.53076172 C426.65225067 265.10856384 426.32207947 265.68636597 425.98190308 266.28167725 C425.3169745 267.44529716 424.65203717 268.60891207 423.98709106 269.77252197 C422.32631175 272.67879676 420.66568547 275.58515879 419.00537109 278.49169922 C415.98910479 283.7716172 412.97170277 289.05087016 409.94869995 294.32693481 C408.2567216 297.28003016 406.56562536 300.23362989 404.875 303.1875 C404.54244202 303.76850464 404.20988403 304.34950928 403.86724854 304.94812012 C399.15330102 313.18785151 394.49632005 321.45796842 389.875 329.75 C384.77785402 338.89445571 379.55001254 347.95359092 374.24951172 356.98144531 C369.46994408 365.14259374 364.84633398 373.38476861 360.24780273 381.64892578 C356.27184365 388.77628267 352.19836002 395.83939092 348.0625 402.875 C343.08266605 411.34965015 338.24910897 419.89400177 333.5 428.5 C328.2015314 438.10150877 322.76908326 447.60941298 317.21020508 457.06225586 C312.93876939 464.34285122 308.79243832 471.68691535 304.6875 479.0625 C300.76444356 486.09531617 296.84106035 493.12563245 292.75 500.0625 C292.39123779 500.6819751 292.03247559 501.3014502 291.6628418 501.93969727 C290.83246226 503.32898218 289.92453875 504.67151558 289 506 C288.34 506 287.68 506 287 506 C286.6189209 505.30777344 286.2378418 504.61554688 285.84521484 503.90234375 C279.02315021 491.52601376 272.16727553 479.18086816 265 467 C260.03914571 458.56781002 255.22635524 450.06579551 250.5 441.5 C245.19793158 431.89183937 239.76039043 422.37820912 234.19921875 412.91796875 C230.04099732 405.82838852 225.9963387 398.68193905 222 391.5 C217.42433358 383.27796975 212.76412135 375.1142887 208 367 C202.68160725 357.93815741 197.50128891 348.80807301 192.38623047 339.63012695 C188.012484 331.78903143 183.58512833 323.97969078 179.125 316.1875 C178.79163635 315.60504517 178.45827271 315.02259033 178.11480713 314.42248535 C176.42126286 311.46406468 174.72692174 308.50610134 173.03222656 305.54833984 C169.34974768 299.1202305 165.67703605 292.68653312 162.00256348 286.25384521 C161.00437463 284.5064346 160.00611986 282.75906166 159.0078125 281.01171875 C158.67821533 280.434823 158.34861816 279.85792725 158.0090332 279.2635498 C155.99103485 275.73217583 153.97073256 272.20213063 151.94869995 268.67306519 C150.2567216 265.71996984 148.56562536 262.76637011 146.875 259.8125 C146.54244202 259.23149536 146.20988403 258.65049072 145.86724854 258.05187988 C141.15330102 249.81214849 136.49632005 241.54203158 131.875 233.25 C126.77785402 224.10554429 121.55001254 215.04640908 116.24951172 206.01855469 C111.47076913 197.85881504 106.84823314 189.61791893 102.25 181.35546875 C98.25035548 174.18646305 94.15651956 167.07907237 90 160 C84.62720551 150.84945939 79.4072756 141.62331625 74.24780273 132.35107422 C70.27184365 125.22371733 66.19836002 118.16060908 62.0625 111.125 C56.42100837 101.52434496 50.98787386 91.82047748 45.60791016 82.07128906 C40.92883638 73.61478121 36.10010297 65.25659066 31.20361328 56.92456055 C26.40534385 48.74178541 21.75247527 40.4832101 17.13989258 32.19458008 C14.27681893 27.05309057 11.39351022 21.92587572 8.453125 16.828125 C7.89254395 15.85576904 7.33196289 14.88341309 6.75439453 13.8815918 C5.69135442 12.0423763 4.62478293 10.20519605 3.55419922 8.37036133 C3.0851416 7.55849365 2.61608398 6.74662598 2.1328125 5.91015625 C1.71918457 5.19996338 1.30555664 4.48977051 0.87939453 3.75805664 C0 2 0 2 0 0 Z " fill="#333332" transform="translate(0,0)"/>
<path d="M0 0 C0.94159973 0.00054382 1.88319946 0.00108765 2.85333252 0.00164795 C48.51358832 0.12246017 90.52729718 11.86990782 123.50390625 44.6796875 C164.16488719 87.81568467 159.1875 150.58644535 159.1875 205.375 C90.8775 205.375 22.5675 205.375 -47.8125 205.375 C-43.02339016 225.72871682 -37.67871617 242.41906439 -19.4375 254 C13.37849319 272.37364562 60.94506149 263.99814143 95.1875 254.375 C106.8757426 250.95493522 118.17322959 246.75005093 129.32568359 241.86376953 C135.00777764 239.375 135.00777764 239.375 137.1875 239.375 C137.1875 267.095 137.1875 294.815 137.1875 323.375 C118.41895992 332.75927004 118.41895992 332.75927004 109.6875 335.5625 C108.67324951 335.89145264 107.65899902 336.22040527 106.61401367 336.55932617 C95.62185445 340.01647599 84.55603367 342.52476711 73.1875 344.375 C72.20571777 344.53871094 71.22393555 344.70242188 70.21240234 344.87109375 C52.17590931 347.70034756 34.02588614 347.68600912 15.8125 347.75 C14.62052002 347.75794586 13.42854004 347.76589172 12.20043945 347.77407837 C-7.7600217 347.87617309 -27.55125814 346.81899389 -46.9375 341.6875 C-47.91920166 341.43331299 -48.90090332 341.17912598 -49.91235352 340.91723633 C-89.84098403 330.1927766 -123.8076205 307.48849692 -144.8125 271.375 C-171.93459798 221.89887124 -171.74546096 156.11147147 -156.29907227 103 C-145.29977042 67.22947341 -121.65487737 37.01751627 -88.6875 19.1875 C-61.1358152 4.86803816 -30.75530523 -0.06708179 0 0 Z M-32.8125 95.375 C-40.97904124 106.48804388 -44.8125 118.71955279 -44.8125 132.375 C-12.4725 132.375 19.8675 132.375 53.1875 132.375 C51.76656575 115.32378899 47.99485182 101.26434234 35.1875 89.375 C14.56414638 74.10706562 -15.33270703 76.21768371 -32.8125 95.375 Z " fill="#333333" transform="translate(766.8125,122.625)"/>
<path d="M0 0 C0.94159973 0.00054382 1.88319946 0.00108765 2.85333252 0.00164795 C48.51358832 0.12246017 90.52729718 11.86990782 123.50390625 44.6796875 C164.13696754 87.78606557 159.1875 150.62823422 159.1875 205.375 C90.8775 205.375 22.5675 205.375 -47.8125 205.375 C-43.02339016 225.72871682 -37.67871617 242.41906439 -19.4375 254 C13.38762798 272.37876018 60.93517567 263.98673607 95.1875 254.375 C106.68978667 251.02837855 117.75214281 246.9670891 128.59350586 241.86376953 C133.90481396 239.375 133.90481396 239.375 137.1875 239.375 C137.1875 267.095 137.1875 294.815 137.1875 323.375 C118.41895992 332.75927004 118.41895992 332.75927004 109.6875 335.5625 C108.67324951 335.89145264 107.65899902 336.22040527 106.61401367 336.55932617 C95.62185445 340.01647599 84.55603367 342.52476711 73.1875 344.375 C72.20571777 344.53871094 71.22393555 344.70242188 70.21240234 344.87109375 C52.17590931 347.70034756 34.02588614 347.68600912 15.8125 347.75 C14.62052002 347.75794586 13.42854004 347.76589172 12.20043945 347.77407837 C-7.7600217 347.87617309 -27.55125814 346.81899389 -46.9375 341.6875 C-47.91920166 341.43331299 -48.90090332 341.17912598 -49.91235352 340.91723633 C-89.84098403 330.1927766 -123.8076205 307.48849692 -144.8125 271.375 C-171.96153861 221.84972615 -171.76078538 156.15946311 -156.29907227 103.00024414 C-145.30078516 67.22964073 -121.65442565 37.01727196 -88.6875 19.1875 C-61.1358152 4.86803816 -30.75530523 -0.06708179 0 0 Z M-32.8125 95.375 C-40.97904124 106.48804388 -44.8125 118.71955279 -44.8125 132.375 C-12.4725 132.375 19.8675 132.375 53.1875 132.375 C51.76656575 115.32378899 47.99485182 101.26434234 35.1875 89.375 C14.56414638 74.10706562 -15.33270703 76.21768371 -32.8125 95.375 Z " fill="#333333" transform="translate(1703.8125,122.625)"/>
<path d="M0 0 C43.89 0 87.78 0 133 0 C136.96 7.59 140.92 15.18 145 23 C149.41882782 31.13807766 149.41882782 31.13807766 153.86328125 39.26171875 C157.29823602 45.53059301 160.68047769 51.8274571 164.0625 58.125 C169.97174012 69.12229851 175.95802826 80.07512864 182 91 C184.45192627 87.89998545 186.36990763 84.68040085 188.265625 81.21484375 C188.90048828 80.05855469 189.53535156 78.90226562 190.18945312 77.7109375 C190.52468994 77.09702148 190.85992676 76.48310547 191.20532227 75.85058594 C192.633326 73.23552699 194.06798134 70.62413722 195.50219727 68.01248169 C196.24391955 66.66165985 196.98528992 65.31064473 197.72631836 63.95944214 C201.29229635 57.45885537 204.89341744 50.9781515 208.5 44.5 C213.97561866 34.65533369 219.43207526 24.800271 224.875 14.9375 C225.22828369 14.2976416 225.58156738 13.6577832 225.94555664 12.99853516 C226.94072351 11.19588946 227.93531617 9.39292837 228.9296875 7.58984375 C229.49929199 6.55722412 230.06889648 5.52460449 230.65576172 4.46069336 C231.46104346 2.98658609 232.24880483 1.50239034 233 0 C277.22 0 321.44 0 367 0 C359.20438684 13.36390828 359.20438684 13.36390828 355.3125 19.0625 C351.56569254 24.60558375 347.93409852 30.20962996 344.375 35.875 C339.70034683 43.31350476 334.98937239 50.72754263 330.25 58.125 C329.23752197 59.70547119 329.23752197 59.70547119 328.20458984 61.31787109 C326.82469339 63.47144972 325.44464697 65.62493227 324.06445312 67.77832031 C320.70727078 73.01736694 317.35378842 78.25878038 314 83.5 C312.66668515 85.58334516 311.3333518 87.66667848 310 89.75 C309.34 90.78125 308.68 91.8125 308 92.875 C306 96 304 99.125 302 102.25 C301.00939575 103.7978418 301.00939575 103.7978418 299.9987793 105.37695312 C298.66957043 107.45381154 297.34030638 109.53063463 296.01098633 111.60742188 C292.61408814 116.91452872 289.21824233 122.22230424 285.82421875 127.53125 C285.1369873 128.60536133 284.44975586 129.67947266 283.74169922 130.78613281 C282.38815501 132.9038005 281.03686145 135.02290867 279.68798828 137.14355469 C276.67981582 141.86411784 273.64524011 146.5545248 270.48046875 151.171875 C269.68733276 152.34363281 269.68733276 152.34363281 268.87817383 153.5390625 C267.90778408 154.96635657 266.92285807 156.3839247 265.9206543 157.7890625 C264.46997175 159.84539008 264.46997175 159.84539008 263 163 C264.10137423 166.73466335 266.0261059 169.8597643 268.08984375 173.140625 C268.70351807 174.1198291 269.31719238 175.0990332 269.94946289 176.10791016 C270.93354126 177.66324463 270.93354126 177.66324463 271.9375 179.25 C272.61482178 180.32685059 273.29214355 181.40370117 273.98999023 182.51318359 C278.23845838 189.25386535 282.53033889 195.9651658 286.87597656 202.64355469 C290.51669681 208.23913131 294.10796418 213.86511136 297.6875 219.5 C302.77633499 227.50987822 307.88127256 235.50919015 313 243.5 C318.58565688 252.22077159 324.15504065 260.9516507 329.7109375 269.69140625 C334.79637475 277.68773858 339.90502369 285.66910985 345.01708984 293.6484375 C348.3243171 298.81250907 351.62594364 303.97998639 354.9140625 309.15625 C355.53925781 310.14044922 356.16445312 311.12464844 356.80859375 312.13867188 C357.97617914 313.97793273 359.14291699 315.81773204 360.30859375 317.65820312 C363.42305742 322.56480952 366.60518314 327.40762196 369.91162109 332.1875 C371 334 371 334 371 336 C327.11 336 283.22 336 238 336 C233.71 328.08 229.42 320.16 225 312 C220.23400661 303.55116666 220.23400661 303.55116666 215.44921875 295.11328125 C211.57568977 288.27360729 207.78771308 281.38737727 204 274.5 C198.89709501 265.22549244 193.76477149 255.96928921 188.5625 246.75 C188.01271484 245.77353516 187.46292969 244.79707031 186.89648438 243.79101562 C186.39568359 242.90607422 185.89488281 242.02113281 185.37890625 241.109375 C184.9413501 240.33561523 184.50379395 239.56185547 184.05297852 238.76464844 C183.12139872 237.03976967 183.12139872 237.03976967 182 236 C181.61368408 236.72775635 181.22736816 237.4555127 180.8293457 238.20532227 C173.63467316 251.74167428 166.37634833 265.22370866 158.78320312 278.54199219 C154.30474962 286.41362979 149.98056778 294.36300036 145.68334961 302.3347168 C142.30546509 308.59849074 138.8968101 314.84330316 135.4375 321.0625 C134.84739136 322.12368042 134.84739136 322.12368042 134.24536133 323.20629883 C131.85812793 327.48776694 129.43246348 331.74318891 127 336 C83.11 336 39.22 336 -6 336 C-4.49683932 332.24209831 -3.13116061 329.39248935 -1.015625 326.03515625 C-0.4175 325.08189453 0.180625 324.12863281 0.796875 323.14648438 C1.44140625 322.12876953 2.0859375 321.11105469 2.75 320.0625 C3.4203125 318.99708984 4.090625 317.93167969 4.78125 316.83398438 C9.7355786 308.96945336 14.72693784 301.1283833 19.72753906 293.29321289 C24.02503445 286.55352053 28.27139988 279.78309543 32.5 273 C38.49866746 263.37870523 44.56358115 253.80166562 50.66015625 244.2421875 C55.30851522 236.95238011 59.92000322 229.63936029 64.53222656 222.32666016 C67.51870759 217.5926009 70.50848118 212.86061956 73.49829102 208.12866211 C76.01344245 204.14746642 78.52643265 200.16493727 81.03515625 196.1796875 C87.61338225 185.73596053 94.27006141 175.34661819 101 165 C96.97111443 157.41074674 92.65543539 150.07245838 88.0625 142.8125 C86.73038318 140.69406422 85.39835441 138.57557307 84.06640625 136.45703125 C83.39109863 135.38533691 82.71579102 134.31364258 82.02001953 133.20947266 C78.83406562 128.14752557 75.66753989 123.07348198 72.5 118 C68.76491457 112.02143162 65.02823683 106.04387915 61.28515625 100.0703125 C54.75014935 89.63608768 48.25404372 79.17972182 41.8125 68.6875 C36.76687275 60.47009414 31.68349394 52.28006269 26.51806641 44.13745117 C21.75378235 36.62590872 17.04339302 29.08103785 12.33764648 21.53271484 C11.74540283 20.58348145 11.15315918 19.63424805 10.54296875 18.65625 C9.96466309 17.728125 9.38635742 16.8 8.79052734 15.84375 C7.53890789 13.85590388 6.27234505 11.87742349 4.99462891 9.90625 C4.35315918 8.91625 3.71168945 7.92625 3.05078125 6.90625 C2.46594971 6.01228516 1.88111816 5.11832031 1.27856445 4.19726562 C0 2 0 2 0 0 Z " fill="#333333" transform="translate(1896,129)"/>
<path d="M0 0 C0.92184082 0.16628906 1.84368164 0.33257812 2.79345703 0.50390625 C28.0696905 5.15359662 54.12487844 13.15629445 77 25 C74.8398877 33.15848866 71.66418503 40.73638118 68.25 48.4375 C67.09005036 51.07447047 65.93375379 53.71303824 64.77734375 56.3515625 C64.4755571 57.03859756 64.17377045 57.72563263 63.86283875 58.43348694 C61.49232401 63.84153967 59.17768469 69.27205563 56.87890625 74.7109375 C56.19439383 76.32627779 55.509824 77.94159375 54.82519531 79.55688477 C53.81998676 81.9291151 52.81685657 84.3021149 51.82019043 86.677948 C50.89253002 88.88810506 49.9568702 91.09471524 49.01953125 93.30078125 C48.7429921 93.966008 48.46645294 94.63123474 48.18153381 95.31661987 C46.22750796 99.88624602 46.22750796 99.88624602 44 101 C41.30709435 99.94262488 38.69653601 98.81519205 36.0625 97.625 C10.60173973 86.57352728 -17.82406797 76.90262949 -45.8125 76.75 C-46.74642578 76.729375 -47.68035156 76.70875 -48.64257812 76.6875 C-56.41665737 76.64434064 -63.72986333 77.53071313 -70.0625 82.3125 C-72.36143266 85.50134208 -73.07728711 87.05835729 -73 91 C-71.70893589 96.11302373 -69.25048892 99.21300354 -64.8125 102 C-51.33081056 109.12040397 -37.36430405 115.00056041 -23.22579956 120.66717529 C56.27727584 152.60798159 56.27727584 152.60798159 73 191 C78.09097241 205.08301539 79.41429191 219.21333284 79.375 234.0625 C79.37418427 235.22211243 79.37418427 235.22211243 79.37335205 236.40515137 C79.33488241 248.30242636 78.75615358 259.61229629 75 271 C74.78037598 271.66821777 74.56075195 272.33643555 74.33447266 273.02490234 C65.48862171 298.89885986 48.04518661 316.94838421 24.02197266 329.1730957 C7.95526587 336.99192525 -9.34683245 340.85044233 -27 343 C-27.71253937 343.08732895 -28.42507874 343.1746579 -29.15921021 343.26463318 C-36.11607157 344.04005132 -43.01608268 344.17667126 -50.01171875 344.203125 C-51.24611191 344.21013931 -52.48050507 344.21715363 -53.75230408 344.22438049 C-57.73071939 344.24184851 -61.70905449 344.24881558 -65.6875 344.25 C-66.7015453 344.25066278 -66.7015453 344.25066278 -67.73607635 344.25133896 C-87.95616253 344.25828161 -107.97105257 344.11200651 -128 341 C-129.10134277 340.83371094 -130.20268555 340.66742188 -131.33740234 340.49609375 C-148.92759858 337.73684728 -167.98034433 334.00982784 -184 326 C-184 294.98 -184 263.96 -184 232 C-175.42 235.3 -166.84 238.6 -158 242 C-140.84609055 247.68637882 -123.75627107 251.74964731 -106 255 C-104.55657227 255.27118652 -104.55657227 255.27118652 -103.08398438 255.54785156 C-91.2114002 257.71315607 -79.41905649 258.29515907 -67.375 258.375 C-66.69722504 258.3830365 -66.01945007 258.391073 -65.32113647 258.39935303 C-54.61494825 258.49600894 -42.4943335 258.37665804 -34 251 C-31.43036428 246.76188552 -31.35811021 242.83106529 -32 238 C-39.1457446 221.75967136 -67.74469412 215.08371798 -82.97680664 208.83959961 C-161.86089973 176.49215455 -161.86089973 176.49215455 -178.30859375 138.421875 C-188.60014381 112.79266899 -188.1821342 81.05500507 -177.65234375 55.6484375 C-167.46259346 32.4828178 -146.07721043 17.85770482 -123.3215332 8.56665039 C-113.17025081 4.63371281 -102.65947115 2.12069203 -92 0 C-91.18934082 -0.16661133 -90.37868164 -0.33322266 -89.54345703 -0.50488281 C-61.25514215 -6.03097223 -28.28674508 -5.37686305 0 0 Z " fill="#333333" transform="translate(2479,126)"/>
<path d="M0 0 C25.41 0 50.82 0 77 0 C77 22.44 77 44.88 77 68 C104.06 68 131.12 68 159 68 C159 96.71 159 125.42 159 155 C131.94 155 104.88 155 77 155 C77.09063754 179.10555589 77.09063754 179.10555589 77.20898438 203.2109375 C77.26341603 213.04490459 77.31483138 222.87882013 77.34643555 232.71289062 C77.36946958 239.87587509 77.40292758 247.03872364 77.44870156 254.20160019 C77.47256122 257.99137303 77.49133736 261.78101187 77.49761391 265.570858 C77.50369786 269.14470375 77.52381557 272.71820695 77.55427551 276.29192543 C77.5671357 278.21510954 77.56549489 280.1383739 77.5632782 282.06159973 C77.67976976 292.89938542 79.27267418 302.09911885 87.0625 310.125 C100.57610677 318.75070645 117.16182645 317.26415983 132.30078125 314.1328125 C139.30726402 312.52841605 146.1954666 310.43619995 153.06713867 308.33764648 C154.05302979 308.03673096 155.0389209 307.73581543 156.0546875 307.42578125 C157.37702393 307.01453003 157.37702393 307.01453003 158.72607422 306.5949707 C161 306 161 306 164 306 C164 334.05 164 362.1 164 391 C156.76368663 394.28923335 149.95606959 397.22246386 142.4375 399.5625 C141.48786377 399.85987061 140.53822754 400.15724121 139.55981445 400.46362305 C118.52280206 406.91882071 98.00038353 409.3642181 76.05297852 409.31567383 C73.06945403 409.31250738 70.08691909 409.33610109 67.10351562 409.36132812 C51.52346214 409.41363584 36.63323478 407.90312891 21.6875 403.25 C20.85557129 402.99395996 20.02364258 402.73791992 19.16650391 402.47412109 C7.66314208 398.77923682 -1.93997633 393.01401739 -11 385 C-11.91845703 384.22269531 -11.91845703 384.22269531 -12.85546875 383.4296875 C-30.95252181 366.94770325 -38.25011336 339.48625103 -40 316 C-40.14047489 310.7328182 -40.12670414 305.46746117 -40.11352539 300.19897461 C-40.11324292 298.61146039 -40.11340242 297.02394603 -40.1139679 295.43643188 C-40.11425353 291.14989988 -40.10839461 286.86339614 -40.10139394 282.57687068 C-40.09512147 278.08856651 -40.09455353 273.60026161 -40.09336853 269.11195374 C-40.09026667 260.62303988 -40.08206876 252.13413899 -40.07201904 243.64523083 C-40.06082229 233.97652587 -40.05533849 224.30782028 -40.05032361 214.63911045 C-40.03988515 194.75939814 -40.02155395 174.87970358 -40 155 C-53.53 155 -67.06 155 -81 155 C-81.34646587 148.35555458 -81.64385093 141.74275909 -81.82397461 135.09643555 C-81.8990384 132.84242315 -82.00113984 130.58913238 -82.1315918 128.33764648 C-83.15438601 110.22015061 -83.15438601 110.22015061 -79.63943481 104.96636963 C-76.20821447 101.49062968 -72.21427037 99.1781165 -67.8835144 96.98257446 C-65.31361386 95.64193239 -63.04567737 93.97689514 -60.72265625 92.25 C-59.17050381 91.16490085 -57.61716038 90.08150287 -56.0625 89 C-55.31033203 88.4740625 -54.55816406 87.948125 -53.78320312 87.40625 C-53.00009766 86.8596875 -52.21699219 86.313125 -51.41015625 85.75 C-50.58684814 85.15888428 -49.76354004 84.56776855 -48.9152832 83.95874023 C-46.68125374 82.45772538 -44.50490282 81.15866674 -42.15307617 79.87133789 C-29.26967199 72.48078934 -25.23424674 63.00042031 -20.1875 49.4375 C-19.44282592 47.53787429 -18.69348818 45.64007006 -17.93945312 43.74414062 C-15.60535974 37.83766011 -13.30308533 31.91864021 -11 26 C-7.37 17.42 -3.74 8.84 0 0 Z " fill="#333333" transform="translate(1331,61)"/>
<path d="M0 0 C1.14903809 -0.01039307 2.29807617 -0.02078613 3.48193359 -0.03149414 C10.84856818 0.04288004 17.89955387 0.82483225 25.16870117 1.96459961 C26.08787071 2.10572929 27.00704025 2.24685898 27.95406342 2.39226532 C30.19906403 2.73743605 32.44349707 3.0859118 34.6875 3.4375 C33.40527084 17.33715873 32.11891895 31.23643059 30.82779789 45.1352663 C30.22844075 51.58862086 29.6304153 58.04209312 29.03540039 64.49584961 C28.46144507 70.72065581 27.88403466 76.94513259 27.30419731 83.16939354 C27.08326819 85.54759436 26.86359767 87.92591244 26.64518929 90.30434608 C26.33975949 93.62809996 26.0299122 96.95141388 25.71899414 100.2746582 C25.62908203 101.2644014 25.53916992 102.25414459 25.4465332 103.27388 C25.361017 104.17831848 25.27550079 105.08275696 25.18739319 106.01460266 C25.11457154 106.80089208 25.0417499 107.58718149 24.96672153 108.39729786 C24.6875 110.4375 24.6875 110.4375 23.6875 113.4375 C22.79417969 113.293125 21.90085937 113.14875 20.98046875 113 C10.81464788 111.54144261 0.67405746 111.19311537 -9.58041382 111.13793945 C-11.08535515 111.1294529 -12.59027836 111.11595443 -14.09512329 111.09692383 C-33.89427763 110.87372583 -53.3030266 113.77770103 -69.3125 126.4375 C-81.19163818 138.47881071 -86.38877366 154.26124745 -86.47071838 170.95455933 C-86.47565636 171.69064175 -86.48059434 172.42672417 -86.48568195 173.18511212 C-86.50098339 175.64017024 -86.50939752 178.09520236 -86.51782227 180.55029297 C-86.52740658 182.31470466 -86.53741698 184.07911407 -86.54782104 185.84352112 C-86.57481622 190.62605659 -86.59585491 195.40860188 -86.61582303 200.19117117 C-86.63771586 205.19201024 -86.6650884 210.19281924 -86.69187927 215.19363403 C-86.7417616 224.66010581 -86.78671696 234.12659432 -86.82990164 243.59309876 C-86.88855251 256.38751246 -86.9548154 269.18188659 -87.02065182 281.97626495 C-87.12415673 302.12998329 -87.21749228 322.28373566 -87.3125 342.4375 C-125.9225 342.4375 -164.5325 342.4375 -204.3125 342.4375 C-204.3125 231.5575 -204.3125 120.6775 -204.3125 6.4375 C-175.6025 6.4375 -146.8925 6.4375 -117.3125 6.4375 C-112.81174678 16.56419475 -112.81174678 16.56419475 -111.57324219 20.28295898 C-111.29325378 21.1166954 -111.01326538 21.95043182 -110.72479248 22.80943298 C-110.43920471 23.67540604 -110.15361694 24.54137909 -109.859375 25.43359375 C-109.55429016 26.34834976 -109.24920532 27.26310577 -108.93487549 28.20558167 C-108.29751771 30.11997762 -107.66234897 32.03510367 -107.02929688 33.95092773 C-106.0565298 36.89305684 -105.07564807 39.83239158 -104.09375 42.77148438 C-103.4734807 44.63786217 -102.85367221 46.50439318 -102.234375 48.37109375 C-101.94069031 49.25123642 -101.64700562 50.13137909 -101.34442139 51.03819275 C-101.07704163 51.84986404 -100.80966187 52.66153534 -100.53417969 53.49780273 C-100.29753601 54.21234116 -100.06089233 54.92687958 -99.81707764 55.66307068 C-99.3125 57.4375 -99.3125 57.4375 -99.3125 59.4375 C-96.91548062 59.31197621 -96.91548062 59.31197621 -94.3125 58.4375 C-92.50059524 56.30465548 -92.50059524 56.30465548 -91.0625 53.5625 C-76.26024117 28.89206861 -51.42911371 9.29496611 -23.4375 1.875 C-15.72526718 0.11754573 -7.87794795 0.06184194 0 0 Z " fill="#333333" transform="translate(1194.3125,122.5625)"/>
<path d="M0 0 C65.67 0 131.34 0 199 0 C195.05010045 7.8997991 191.06290115 15.50307041 186.5625 23.0625 C181.40798817 31.80419886 176.3994619 40.61294531 171.5 49.5 C166.19831296 59.10836617 160.76038458 68.62180083 155.19921875 78.08203125 C151.04099803 85.17161027 146.99629033 92.31803493 143 99.5 C138.44730708 107.68190842 133.80751931 115.8031357 129.0625 123.875 C124.08266605 132.34965015 119.24910897 140.89400177 114.5 149.5 C109.19914549 159.10583235 103.76220901 168.61674763 98.20361328 178.07543945 C93.39401195 186.27753954 88.7349018 194.55813538 84.10473633 202.86254883 C79.01353572 211.99167186 73.83948492 221.07110668 68.63964844 230.13867188 C65.84425074 235.01688227 63.05629125 239.89934254 60.26751709 244.78134155 C58.558845 247.77236328 56.84971026 250.76312061 55.140625 253.75390625 C54.44856552 254.96500526 53.75650823 256.17610552 53.06445312 257.38720703 C51.70377604 259.76839193 50.34309896 262.14957682 48.98242188 264.53076172 C48.65227585 265.10851852 48.32212982 265.68627533 47.98197937 266.28153992 C47.3167921 267.44561509 46.65160045 268.60968777 45.98640442 269.77375793 C44.32961915 272.67308778 42.67292596 275.57247014 41.01635742 278.47192383 C37.95241936 283.83455644 34.88780214 289.19679696 31.82058716 294.55755615 C24.50302514 307.34701238 17.18986073 320.13813803 10 333 C6.84878975 330.09092634 4.77004482 327.20075071 2.671875 323.46875 C2.04514893 322.36233154 1.41842285 321.25591309 0.77270508 320.1159668 C0.09840213 318.91068253 -0.575831 317.7053592 -1.25 316.5 C-1.95805471 315.24546246 -2.66680723 313.99131852 -3.3762207 312.73754883 C-4.8512964 310.12942151 -6.32334654 307.51962035 -7.79345703 304.90869141 C-10.89660091 299.40382838 -14.04131283 293.92283473 -17.18347168 288.44018555 C-22.84894785 278.55022726 -28.47340306 268.63743355 -34.07373047 258.71044922 C-40.3226897 247.64223139 -46.63923646 236.61265373 -52.95166016 225.58056641 C-55.97220798 220.30120535 -58.98928363 215.01986049 -62.0065918 209.73864746 C-62.99450665 208.00961438 -63.98260438 206.2806858 -64.97070312 204.55175781 C-68.09289144 199.0886988 -71.21431789 193.62520909 -74.33328247 188.16030884 C-75.80500228 185.58173168 -77.27711956 183.00338154 -78.74926758 180.42504883 C-79.45031276 179.1969722 -80.15116359 177.96878461 -80.85180664 176.74047852 C-81.8238877 175.03633932 -82.79669496 173.33261443 -83.76953125 171.62890625 C-84.32229736 170.66025635 -84.87506348 169.69160645 -85.44458008 168.69360352 C-86.96190015 165.97943543 -86.96190015 165.97943543 -88.7644043 163.46069336 C-90 161 -90 161 -89.82250977 158.44360352 C-89.01998927 156.05938634 -88.10999829 154.07047763 -86.83984375 151.90234375 C-86.38448242 151.11593506 -85.92912109 150.32952637 -85.45996094 149.51928711 C-84.95754883 148.66729736 -84.45513672 147.81530762 -83.9375 146.9375 C-82.8368716 145.04188027 -81.73663129 143.14603518 -80.63671875 141.25 C-80.04681152 140.23808594 -79.4569043 139.22617188 -78.84912109 138.18359375 C-75.95692305 133.20415588 -73.10661349 128.20094727 -70.25442505 123.19851685 C-68.55174516 120.2132787 -66.84601211 117.22978588 -65.140625 114.24609375 C-64.44855347 113.03500163 -63.75649617 111.82390137 -63.06445312 110.61279297 C-61.70377604 108.23160807 -60.34309896 105.85042318 -58.98242188 103.46923828 C-58.65225067 102.89143616 -58.32207947 102.31363403 -57.98190308 101.71832275 C-57.3169745 100.55470284 -56.65203717 99.39108793 -55.98709106 98.22747803 C-54.32631175 95.32120324 -52.66568547 92.41484121 -51.00537109 89.50830078 C-47.98910479 84.2283828 -44.97170277 78.94912984 -41.94869995 73.67306519 C-40.2567216 70.71996984 -38.56562536 67.76637011 -36.875 64.8125 C-36.54244202 64.23149536 -36.20988403 63.65049072 -35.86724854 63.05187988 C-30.57569389 53.80252172 -25.36372808 44.5103538 -20.17651367 35.20214844 C-14.32163106 24.72791768 -8.26482175 14.37330589 -2.17651367 4.03344727 C-1.41142348 2.71109072 -0.68322615 1.3664523 0 0 Z " fill="#1484C8" transform="translate(378,0)"/>
<path d="M0 0 C0.66 0 1.32 0 2 0 C20.0703125 31.62304687 20.0703125 31.62304687 21.07247925 33.37684631 C22.06018566 35.10532493 23.04791507 36.83379041 24.03564453 38.56225586 C25.35446948 40.87028148 26.67317764 43.17837337 27.99169922 45.48657227 C31.00894269 50.76819889 34.02731869 56.0491623 37.05130005 61.32693481 C38.7432784 64.28003016 40.43437464 67.23362989 42.125 70.1875 C42.62383698 71.05900696 42.62383698 71.05900696 43.13275146 71.94812012 C47.84669898 80.18785151 52.50367995 88.45796842 57.125 96.75 C62.21766722 105.88642066 67.43916458 114.9386735 72.73730469 123.95727539 C77.66111147 132.36106071 82.4194167 140.85190511 87.13891602 149.37182617 C90.80612756 155.9645956 94.63336013 162.38231231 98.83984375 168.64453125 C100 171 100 171 99.75292969 172.80639648 C98.81225526 175.54698005 97.52544289 177.92150199 96.11328125 180.453125 C95.51185303 181.53480957 94.9104248 182.61649414 94.29077148 183.73095703 C93.63159664 184.90411129 92.97216613 186.07712192 92.3125 187.25 C91.63145072 188.4685084 90.95054448 189.68709676 90.26977539 190.90576172 C85.35183613 199.68796618 80.30586103 208.39227665 75.20678711 217.07055664 C70.39556168 225.27395679 65.73584512 233.55644349 61.10473633 241.86254883 C56.01353572 250.99167186 50.83948492 260.07110668 45.63964844 269.13867188 C42.84368042 274.01787753 40.05519423 278.90135748 37.26586914 283.78436279 C36.24975709 285.56292518 35.23332917 287.34130667 34.21679688 289.11962891 C30.73222573 295.21581082 27.25040853 301.31354231 23.7734375 307.4140625 C20.4490307 313.2464086 17.11665251 319.07411837 13.77734375 324.89794922 C12.63717005 326.8879282 11.49897194 328.87904117 10.36328125 330.87158203 C8.95775999 333.33530905 7.5431606 335.79353378 6.125 338.25 C5.52679443 339.30513794 5.52679443 339.30513794 4.91650391 340.3815918 C4.00085126 341.95533155 3.00896264 343.48439089 2 345 C1.34 345 0.68 345 0 345 C-0.3810791 344.30777344 -0.7621582 343.61554688 -1.15478516 342.90234375 C-7.97684979 330.52601376 -14.83272447 318.18086816 -22 306 C-26.96085429 297.56781002 -31.77364476 289.06579551 -36.5 280.5 C-41.80206842 270.89183937 -47.23960957 261.37820912 -52.80078125 251.91796875 C-56.9590041 244.8283861 -61.00356452 237.68188697 -65 230.5 C-69.05318268 223.21889461 -73.14792042 215.96750911 -77.35693359 208.77514648 C-78.52652192 206.77399087 -79.6884464 204.76833442 -80.84228516 202.75805664 C-83.681713 197.83196247 -86.61076535 193.04486045 -89.828125 188.35546875 C-98.37162149 175.58011494 -98.37162149 175.58011494 -97.453125 169.203125 C-95.72571236 165.88117762 -93.85996625 163.10859635 -91.58007812 160.16064453 C-88.45995048 155.89409174 -85.98943006 151.21144264 -83.375 146.625 C-82.15558578 144.54313333 -80.93419869 142.4624211 -79.7109375 140.3828125 C-76.05913569 134.13323864 -72.51831171 127.82544374 -69 121.5 C-64.42449131 113.27788372 -59.76411924 105.1142851 -55 97 C-49.68160725 87.93815741 -44.50128891 78.80807301 -39.38623047 69.63012695 C-35.01248226 61.78902831 -30.58488771 53.97983055 -26.125 46.1875 C-25.79628906 45.61302124 -25.46757812 45.03854248 -25.12890625 44.44665527 C-23.10696106 40.91345473 -21.0835437 37.38109907 -19.05957031 33.84906006 C-16.10283416 28.6892489 -13.14716356 23.52883068 -10.19378662 18.36709595 C-9.14717223 16.53873334 -8.09925574 14.71112147 -7.05126953 12.88354492 C-6.1016333 11.22415894 -6.1016333 11.22415894 -5.1328125 9.53125 C-4.57480957 8.55736328 -4.01680664 7.58347656 -3.44189453 6.58007812 C-2.23003565 4.41161815 -1.08578297 2.23353533 0 0 Z " fill="#ED5B25" transform="translate(287,161)"/>
<path d="M0 0 C284.13 0 568.26 0 861 0 C861 3.96 861 7.92 861 12 C576.87 12 292.74 12 0 12 C0 8.04 0 4.08 0 0 Z " fill="#EE5B25" transform="translate(1677,639)"/>
<path d="M0 0 C284.13 0 568.26 0 861 0 C861 3.96 861 7.92 861 12 C576.87 12 292.74 12 0 12 C0 8.04 0 4.08 0 0 Z " fill="#EE5B25" transform="translate(63,639)"/>
<path d="M0 0 C22 0 22 0 26.3515625 3.70703125 C27.58886719 6.14306641 27.58886719 6.14306641 28.625 8.8125 C29.53533913 10.67239997 30.44949609 12.53043545 31.3671875 14.38671875 C32.0163916 15.80476807 32.0163916 15.80476807 32.67871094 17.25146484 C34.69205243 21.43960204 37.20079621 25.24821782 39.75 29.125 C40.74418535 30.68149088 41.73495898 32.24016519 42.72265625 33.80078125 C43.50213623 35.03175537 43.50213623 35.03175537 44.29736328 36.28759766 C48.29463064 42.65548414 52.20918717 49.07548688 56.12988281 55.49072266 C60.9788726 63.40529379 65.97721842 71.18678421 71 79 C71 52.93 71 26.86 71 0 C76.28 0 81.56 0 87 0 C87 34.65 87 69.3 87 105 C65 105 65 105 59.9140625 100.2265625 C58.19067383 97.0769043 58.19067383 97.0769043 56.625 93.625 C56.00733386 92.43901273 55.3803942 91.25781493 54.74487305 90.08129883 C53.43232064 87.63469224 52.1617463 85.17241162 50.91650391 82.69091797 C47.91773025 76.80457912 44.33102122 71.27228099 40.8125 65.6875 C39.48848732 63.54184252 38.16684064 61.39472311 36.84765625 59.24609375 C33.15179173 53.24532153 29.45424329 47.24560432 25.75 41.25 C25.22510986 40.39881592 24.70021973 39.54763184 24.15942383 38.6706543 C23.66853271 37.87699463 23.1776416 37.08333496 22.671875 36.265625 C22.2500293 35.58274414 21.82818359 34.89986328 21.39355469 34.19628906 C19.6413228 31.43471267 17.81418519 28.72127779 16 26 C16 52.07 16 78.14 16 105 C10.72 105 5.44 105 0 105 C0 70.35 0 35.7 0 0 Z " fill="#EE5B25" transform="translate(1004,594)"/>
<path d="M0 0 C11.13835125 7.28339905 17.47422864 17.37959369 20.6484375 30.2578125 C23.85786589 48.18634351 23.06401006 68.816907 12.52734375 84.234375 C5.3866782 93.3944894 -3.3913671 99.00497237 -14.78515625 101.421875 C-18.82343695 101.67307813 -22.86485419 101.65314675 -26.91015625 101.671875 C-28.00070312 101.6925 -29.09125 101.713125 -30.21484375 101.734375 C-43.13072848 101.79617349 -53.72048071 98.0421016 -63.47265625 89.421875 C-74.96864216 77.02903912 -77.49069193 59.67810515 -77.0078125 43.43359375 C-76.27200148 27.79668513 -71.96886674 15.19543978 -60.66015625 4.234375 C-45.1706802 -9.12496937 -17.39757039 -9.85780987 0 0 Z M-48.4453125 16.6953125 C-56.99087867 27.7073832 -58.76482252 40.89315029 -57.78515625 54.421875 C-56.45517 64.68176896 -53.71473718 74.09042123 -45.97265625 81.359375 C-37.73725825 86.68816194 -28.92592487 87.76918983 -19.30078125 85.953125 C-12.79855142 84.0697205 -6.99021855 80.81341752 -3.24609375 75.0546875 C3.90845925 61.28949488 4.80130311 43.83746025 0.58984375 28.921875 C-2.78046972 20.12161206 -6.81941484 15.28308016 -15.41796875 11.33203125 C-26.0349005 7.24994363 -39.89344771 8.61441997 -48.4453125 16.6953125 Z " fill="#EE5B25" transform="translate(1266.78515625,598.578125)"/>
<path d="M0 0 C5.94 0 11.88 0 18 0 C18 14.19 18 28.38 18 43 C33.51 43 49.02 43 65 43 C65 28.81 65 14.62 65 0 C70.94 0 76.88 0 83 0 C83 34.65 83 69.3 83 105 C77.06 105 71.12 105 65 105 C65 89.49 65 73.98 65 58 C49.49 58 33.98 58 18 58 C18 73.51 18 89.02 18 105 C12.06 105 6.12 105 0 105 C0 70.35 0 35.7 0 0 Z " fill="#EE5B25" transform="translate(1561,594)"/>
<path d="M0 0 C19.8 0 39.6 0 60 0 C60 5.28 60 10.56 60 16 C46.14 16 32.28 16 18 16 C18 24.91 18 33.82 18 43 C30.87 43 43.74 43 57 43 C57 47.95 57 52.9 57 58 C44.13 58 31.26 58 18 58 C18 68.56 18 79.12 18 90 C31.86 90 45.72 90 60 90 C60 94.95 60 99.9 60 105 C40.2 105 20.4 105 0 105 C0 70.35 0 35.7 0 0 Z " fill="#EE5B25" transform="translate(1388,594)"/>
<path d="M0 0 C1.44221924 0.0002417 1.44221924 0.0002417 2.91357422 0.00048828 C12.5525779 0.1532841 21.85683809 1.7288855 30.4375 6.375 C30.00411254 7.73048844 29.56552005 9.08431276 29.125 10.4375 C28.88136719 11.19160156 28.63773438 11.94570313 28.38671875 12.72265625 C27.2103638 16.00967276 25.83538158 19.17592647 24.4375 22.375 C23.41269531 22.02566406 22.38789062 21.67632813 21.33203125 21.31640625 C19.97140863 20.85660964 18.61072849 20.3969832 17.25 19.9375 C16.57646484 19.70740234 15.90292969 19.47730469 15.20898438 19.24023438 C5.04072933 15.81774853 -3.54796316 15.19696074 -13.5625 19.375 C-21.5354543 23.53111448 -25.18289651 30.28870647 -28.375 38.453125 C-31.80382455 50.54925604 -30.80470937 66.731994 -25.30859375 77.9296875 C-21.31227714 84.57206661 -16.42371675 87.78508722 -9.375 90.6875 C3.00223548 92.9194605 14.41805464 90.21803671 26.4375 87.375 C26.4375 92.655 26.4375 97.935 26.4375 103.375 C17.20603988 106.5440087 9.52216067 107.58130113 -0.25 107.625 C-1.38373047 107.645625 -2.51746094 107.66625 -3.68554688 107.6875 C-16.03444988 107.74444019 -26.46460529 104.75191766 -35.79296875 96.37109375 C-47.39364846 84.20452723 -50.0840172 68.15731944 -49.98413086 51.92041016 C-49.56124957 37.25773422 -45.53121075 23.55059019 -35.4375 12.5625 C-25.43533819 3.15068501 -13.36886103 -0.02100921 0 0 Z " fill="#EE5B25" transform="translate(1513.5625,592.625)"/>
<path d="M0 0 C19.47 0 38.94 0 59 0 C59 5.28 59 10.56 59 16 C45.47 16 31.94 16 18 16 C18 26.23 18 36.46 18 47 C30.87 47 43.74 47 57 47 C57 51.95 57 56.9 57 62 C44.13 62 31.26 62 18 62 C18 76.19 18 90.38 18 105 C12.06 105 6.12 105 0 105 C0 70.35 0 35.7 0 0 Z " fill="#EE5B25" transform="translate(1118,594)"/>
<path d="M0 0 C26.07 0 52.14 0 79 0 C79 5.28 79 10.56 79 16 C68.77 16 58.54 16 48 16 C48 45.37 48 74.74 48 105 C42.06 105 36.12 105 30 105 C30 75.63 30 46.26 30 16 C20.1 16 10.2 16 0 16 C0 10.72 0 5.44 0 0 Z " fill="#EE5B25" transform="translate(1294,594)"/>
<path d="M0 0 C5.94 0 11.88 0 18 0 C18 34.65 18 69.3 18 105 C12.06 105 6.12 105 0 105 C0 70.35 0 35.7 0 0 Z " fill="#EE5B25" transform="translate(959,594)"/>
</svg>
