<svg xmlns="http://www.w3.org/2000/svg" width="1484" height="591" viewBox="0 0 1484 591" fill="none"><g opacity="0.55"><g opacity="0.2"><path d="M742 261.158C706.812 296.346 609.177 426.835 517.677 426.835C426.176 426.835 352 352.659 352 261.158C352 169.657 426.176 95.4814 517.677 95.4814C609.177 95.4814 710.477 229.636 742 261.158Z" stroke="black" stroke-width="16"></path><path d="M742 261.158C777.188 296.346 874.823 426.835 966.323 426.835C1057.82 426.835 1132 352.659 1132 261.158C1132 169.657 1057.82 95.4814 966.323 95.4814C874.823 95.4814 773.523 229.636 742 261.158Z" stroke="black" stroke-width="16"></path></g><g opacity="0.2"><path d="M742 271.159C714.03 299.128 636.423 402.85 563.692 402.85C490.96 402.85 432 343.89 432 271.159C432 198.427 490.96 139.467 563.692 139.467C636.423 139.467 716.944 246.102 742 271.159Z" stroke="black" stroke-width="16"></path><path d="M742 271.159C769.97 299.128 847.577 402.85 920.308 402.85C993.04 402.85 1052 343.89 1052 271.159C1052 198.427 993.04 139.467 920.308 139.467C847.577 139.467 767.056 246.102 742 271.159Z" stroke="black" stroke-width="16"></path></g><g opacity="0.2"><path d="M742 271.158C699.684 313.474 582.272 470.395 472.237 470.395C362.201 470.395 273 381.193 273 271.158C273 161.122 362.201 71.9209 472.237 71.9209C582.272 71.9209 704.092 233.25 742 271.158Z" stroke="black" stroke-width="16"></path><path d="M742 271.158C784.316 313.474 901.728 470.395 1011.76 470.395C1121.8 470.395 1211 381.193 1211 271.158C1211 161.122 1121.8 71.9209 1011.76 71.9209C901.728 71.9209 779.908 233.25 742 271.158Z" stroke="black" stroke-width="16"></path></g><g opacity="0.2"><path d="M742 271.157C693.368 319.789 558.432 500.131 431.974 500.131C305.515 500.131 203 397.616 203 271.157C203 144.699 305.515 42.1836 431.974 42.1836C558.432 42.1836 698.434 227.592 742 271.157Z" stroke="black" stroke-width="16"></path><path d="M742 271.157C790.632 319.789 925.568 500.131 1052.03 500.131C1178.48 500.131 1281 397.616 1281 271.157C1281 144.699 1178.48 42.1836 1052.03 42.1836C925.568 42.1836 785.566 227.592 742 271.157Z" stroke="black" stroke-width="16"></path></g><g opacity="0.2"><path d="M742 271.157C685.97 327.187 530.506 534.965 384.808 534.965C239.111 534.965 121 416.854 121 271.157C121 125.46 239.111 7.34863 384.808 7.34863C530.506 7.34863 691.806 220.963 742 271.157Z" stroke="black" stroke-width="16"></path><path d="M742 271.157C798.03 327.187 953.494 534.965 1099.19 534.965C1244.89 534.965 1363 416.854 1363 271.157C1363 125.46 1244.89 7.34863 1099.19 7.34863C953.494 7.34863 792.194 220.963 742 271.157Z" stroke="black" stroke-width="16"></path></g><g opacity="0.2"><path d="M742 271.157C675.774 337.382 492.021 582.969 319.812 582.969C147.603 582.969 8 443.366 8 271.157C8 98.9477 147.603 -40.6553 319.812 -40.6553C492.021 -40.6553 682.673 211.83 742 271.157Z" stroke="black" stroke-width="16"></path><path d="M742 271.157C808.226 337.382 991.979 582.969 1164.19 582.969C1336.4 582.969 1476 443.366 1476 271.157C1476 98.9477 1336.4 -40.6553 1164.19 -40.6553C991.979 -40.6553 801.327 211.83 742 271.157Z" stroke="black" stroke-width="16"></path></g></g></svg>