<svg xmlns="http://www.w3.org/2000/svg" width="177" height="208" viewBox="0 0 177 208" fill="none"><path d="M82.5011 8.60769C86.214 6.4641 90.7883 6.4641 94.5011 8.6077L171.002 52.7756C174.715 54.9192 177.002 58.8808 177.002 63.168V151.504C177.002 155.791 174.715 159.753 171.002 161.896L94.5011 206.064C90.7883 208.208 86.2139 208.208 82.5011 206.064L5.99999 161.896C2.28718 159.753 0 155.791 0 151.504V63.1679C0 58.8808 2.28719 54.9192 6 52.7757L82.5011 8.60769Z" fill="#67F6FF"></path><path d="M82.5011 1.60769C86.214 -0.535901 90.7883 -0.535896 94.5011 1.6077L171.002 45.7756C174.715 47.9192 177.002 51.8808 177.002 56.168V144.504C177.002 148.791 174.715 152.753 171.002 154.896L94.5011 199.064C90.7883 201.208 86.2139 201.208 82.5011 199.064L5.99999 154.896C2.28718 152.753 0 148.791 0 144.504V56.1679C0 51.8808 2.28719 47.9192 6 45.7757L82.5011 1.60769Z" fill="#2E5CFF"></path></svg>