<svg xmlns="http://www.w3.org/2000/svg" width="557" height="162" viewBox="0 0 557 162" fill="none"><path d="M0.5 20C0.5 9.23044 9.23045 0.5 20 0.5H537C547.77 0.5 556.5 9.23045 556.5 20V161.5H0.5V20Z" fill="#202F3B" stroke="#3A5175"></path><path d="M29.404 81.164H31.006L35.524 85.34L31.006 89.516H29.404L33.94 85.34L29.404 81.164ZM47.8468 81.992C49.0228 81.992 49.9828 82.358 50.7268 83.09C51.4708 83.81 51.8428 84.86 51.8428 86.24V92H50.6008V86.384C50.6008 85.316 50.3308 84.5 49.7908 83.936C49.2628 83.372 48.5368 83.09 47.6128 83.09C46.6648 83.09 45.9088 83.39 45.3448 83.99C44.7808 84.59 44.4988 85.472 44.4988 86.636V92H43.2388V82.172H44.4988V83.846C44.8108 83.246 45.2608 82.79 45.8488 82.478C46.4368 82.154 47.1028 81.992 47.8468 81.992ZM55.8715 84.332C56.1835 83.672 56.6755 83.126 57.3475 82.694C58.0315 82.25 58.8415 82.028 59.7775 82.028C60.6655 82.028 61.4635 82.238 62.1715 82.658C62.8915 83.066 63.4495 83.654 63.8455 84.422C64.2535 85.178 64.4575 86.06 64.4575 87.068C64.4575 88.076 64.2535 88.964 63.8455 89.732C63.4495 90.5 62.8915 91.094 62.1715 91.514C61.4635 91.934 60.6655 92.144 59.7775 92.144C58.8535 92.144 58.0495 91.928 57.3655 91.496C56.6815 91.052 56.1835 90.5 55.8715 89.84V96.644H54.6295V82.172H55.8715V84.332ZM63.1795 87.068C63.1795 86.252 63.0175 85.55 62.6935 84.962C62.3815 84.362 61.9495 83.906 61.3975 83.594C60.8455 83.282 60.2215 83.126 59.5255 83.126C58.8535 83.126 58.2355 83.288 57.6715 83.612C57.1195 83.936 56.6815 84.398 56.3575 84.998C56.0335 85.598 55.8715 86.294 55.8715 87.086C55.8715 87.878 56.0335 88.574 56.3575 89.174C56.6815 89.774 57.1195 90.236 57.6715 90.56C58.2355 90.884 58.8535 91.046 59.5255 91.046C60.2215 91.046 60.8455 90.89 61.3975 90.578C61.9495 90.254 62.3815 89.792 62.6935 89.192C63.0175 88.58 63.1795 87.872 63.1795 87.068ZM71.9239 92L69.3859 88.04L66.9379 92H65.6059L68.7739 87.086L65.6419 82.172H67.0639L69.5659 86.078L71.9959 82.172H73.3099L70.1779 87.032L73.3459 92H71.9239ZM81.2547 83.918C81.5307 83.306 81.9507 82.832 82.5147 82.496C83.0907 82.16 83.7927 81.992 84.6207 81.992V83.306H84.2787C83.3667 83.306 82.6347 83.552 82.0827 84.044C81.5307 84.536 81.2547 85.358 81.2547 86.51V92H79.9947V82.172H81.2547V83.918ZM95.4082 86.582C95.4082 87.014 95.3962 87.344 95.3722 87.572H87.2182C87.2542 88.316 87.4342 88.952 87.7582 89.48C88.0822 90.008 88.5082 90.41 89.0362 90.686C89.5642 90.95 90.1402 91.082 90.7642 91.082C91.5802 91.082 92.2642 90.884 92.8162 90.488C93.3802 90.092 93.7522 89.558 93.9322 88.886H95.2642C95.0242 89.846 94.5082 90.632 93.7162 91.244C92.9362 91.844 91.9522 92.144 90.7642 92.144C89.8402 92.144 89.0122 91.94 88.2802 91.532C87.5482 91.112 86.9722 90.524 86.5522 89.768C86.1442 89 85.9402 88.106 85.9402 87.086C85.9402 86.066 86.1442 85.172 86.5522 84.404C86.9602 83.636 87.5302 83.048 88.2622 82.64C88.9942 82.232 89.8282 82.028 90.7642 82.028C91.7002 82.028 92.5162 82.232 93.2122 82.64C93.9202 83.048 94.4602 83.6 94.8322 84.296C95.2162 84.98 95.4082 85.742 95.4082 86.582ZM94.1302 86.546C94.1422 85.814 93.9922 85.19 93.6802 84.674C93.3802 84.158 92.9662 83.768 92.4382 83.504C91.9102 83.24 91.3342 83.108 90.7102 83.108C89.7742 83.108 88.9762 83.408 88.3162 84.008C87.6562 84.608 87.2902 85.454 87.2182 86.546H94.1302ZM97.1374 87.068C97.1374 86.06 97.3354 85.178 97.7314 84.422C98.1394 83.654 98.6974 83.066 99.4054 82.658C100.125 82.238 100.935 82.028 101.835 82.028C102.771 82.028 103.575 82.244 104.247 82.676C104.931 83.108 105.423 83.66 105.723 84.332V82.172H106.983V92H105.723V89.822C105.411 90.494 104.913 91.052 104.229 91.496C103.557 91.928 102.753 92.144 101.817 92.144C100.929 92.144 100.125 91.934 99.4054 91.514C98.6974 91.094 98.1394 90.5 97.7314 89.732C97.3354 88.964 97.1374 88.076 97.1374 87.068ZM105.723 87.086C105.723 86.294 105.561 85.598 105.237 84.998C104.913 84.398 104.469 83.936 103.905 83.612C103.353 83.288 102.741 83.126 102.069 83.126C101.373 83.126 100.749 83.282 100.197 83.594C99.6454 83.906 99.2074 84.362 98.8834 84.962C98.5714 85.55 98.4154 86.252 98.4154 87.068C98.4154 87.872 98.5714 88.58 98.8834 89.192C99.2074 89.792 99.6454 90.254 100.197 90.578C100.749 90.89 101.373 91.046 102.069 91.046C102.741 91.046 103.353 90.884 103.905 90.56C104.469 90.236 104.913 89.774 105.237 89.174C105.561 88.574 105.723 87.878 105.723 87.086ZM109.284 87.086C109.284 86.066 109.488 85.178 109.896 84.422C110.304 83.654 110.868 83.066 111.588 82.658C112.308 82.238 113.13 82.028 114.054 82.028C115.266 82.028 116.262 82.328 117.042 82.928C117.834 83.528 118.344 84.344 118.572 85.376H117.222C117.054 84.668 116.688 84.116 116.124 83.72C115.572 83.312 114.882 83.108 114.054 83.108C113.394 83.108 112.8 83.258 112.272 83.558C111.744 83.858 111.324 84.308 111.012 84.908C110.712 85.496 110.562 86.222 110.562 87.086C110.562 87.95 110.712 88.682 111.012 89.282C111.324 89.882 111.744 90.332 112.272 90.632C112.8 90.932 113.394 91.082 114.054 91.082C114.882 91.082 115.572 90.884 116.124 90.488C116.688 90.08 117.054 89.516 117.222 88.796H118.572C118.344 89.804 117.834 90.614 117.042 91.226C116.25 91.838 115.254 92.144 114.054 92.144C113.13 92.144 112.308 91.94 111.588 91.532C110.868 91.112 110.304 90.524 109.896 89.768C109.488 89 109.284 88.106 109.284 87.086ZM122.537 83.234V89.336C122.537 89.936 122.651 90.35 122.879 90.578C123.107 90.806 123.509 90.92 124.085 90.92H125.237V92H123.887C122.999 92 122.339 91.796 121.907 91.388C121.475 90.968 121.259 90.284 121.259 89.336V83.234H119.891V82.172H121.259V79.706H122.537V82.172H125.237V83.234H122.537ZM133.417 84.8V85.862H126.415V84.8H133.417ZM141.257 81.992C142.433 81.992 143.393 82.358 144.137 83.09C144.881 83.81 145.253 84.86 145.253 86.24V92H144.011V86.384C144.011 85.316 143.741 84.5 143.201 83.936C142.673 83.372 141.947 83.09 141.023 83.09C140.075 83.09 139.319 83.39 138.755 83.99C138.191 84.59 137.909 85.472 137.909 86.636V92H136.649V82.172H137.909V83.846C138.221 83.246 138.671 82.79 139.259 82.478C139.847 82.154 140.513 81.992 141.257 81.992ZM147.464 87.068C147.464 86.06 147.662 85.178 148.058 84.422C148.466 83.654 149.024 83.066 149.732 82.658C150.452 82.238 151.262 82.028 152.162 82.028C153.098 82.028 153.902 82.244 154.574 82.676C155.258 83.108 155.75 83.66 156.05 84.332V82.172H157.31V92H156.05V89.822C155.738 90.494 155.24 91.052 154.556 91.496C153.884 91.928 153.08 92.144 152.144 92.144C151.256 92.144 150.452 91.934 149.732 91.514C149.024 91.094 148.466 90.5 148.058 89.732C147.662 88.964 147.464 88.076 147.464 87.068ZM156.05 87.086C156.05 86.294 155.888 85.598 155.564 84.998C155.24 84.398 154.796 83.936 154.232 83.612C153.68 83.288 153.068 83.126 152.396 83.126C151.7 83.126 151.076 83.282 150.524 83.594C149.972 83.906 149.534 84.362 149.21 84.962C148.898 85.55 148.742 86.252 148.742 87.068C148.742 87.872 148.898 88.58 149.21 89.192C149.534 89.792 149.972 90.254 150.524 90.578C151.076 90.89 151.7 91.046 152.396 91.046C153.068 91.046 153.68 90.884 154.232 90.56C154.796 90.236 155.24 89.774 155.564 89.174C155.888 88.574 156.05 87.878 156.05 87.086ZM161.824 83.234V89.336C161.824 89.936 161.938 90.35 162.166 90.578C162.394 90.806 162.796 90.92 163.372 90.92H164.524V92H163.174C162.286 92 161.626 91.796 161.194 91.388C160.762 90.968 160.546 90.284 160.546 89.336V83.234H159.178V82.172H160.546V79.706H161.824V82.172H164.524V83.234H161.824ZM167.232 80.318C166.98 80.318 166.764 80.228 166.584 80.048C166.404 79.868 166.314 79.646 166.314 79.382C166.314 79.118 166.404 78.902 166.584 78.734C166.764 78.554 166.98 78.464 167.232 78.464C167.484 78.464 167.7 78.554 167.88 78.734C168.06 78.902 168.15 79.118 168.15 79.382C168.15 79.646 168.06 79.868 167.88 80.048C167.7 80.228 167.484 80.318 167.232 80.318ZM167.862 82.172V92H166.602V82.172H167.862ZM174.207 90.776L177.519 82.172H178.851L174.909 92H173.487L169.545 82.172H170.895L174.207 90.776ZM189.451 86.582C189.451 87.014 189.439 87.344 189.415 87.572H181.261C181.297 88.316 181.477 88.952 181.801 89.48C182.125 90.008 182.551 90.41 183.079 90.686C183.607 90.95 184.183 91.082 184.807 91.082C185.623 91.082 186.307 90.884 186.859 90.488C187.423 90.092 187.795 89.558 187.975 88.886H189.307C189.067 89.846 188.551 90.632 187.759 91.244C186.979 91.844 185.995 92.144 184.807 92.144C183.883 92.144 183.055 91.94 182.323 91.532C181.591 91.112 181.015 90.524 180.595 89.768C180.187 89 179.983 88.106 179.983 87.086C179.983 86.066 180.187 85.172 180.595 84.404C181.003 83.636 181.573 83.048 182.305 82.64C183.037 82.232 183.871 82.028 184.807 82.028C185.743 82.028 186.559 82.232 187.255 82.64C187.963 83.048 188.503 83.6 188.875 84.296C189.259 84.98 189.451 85.742 189.451 86.582ZM188.173 86.546C188.185 85.814 188.035 85.19 187.723 84.674C187.423 84.158 187.009 83.768 186.481 83.504C185.953 83.24 185.377 83.108 184.753 83.108C183.817 83.108 183.019 83.408 182.359 84.008C181.699 84.608 181.333 85.454 181.261 86.546H188.173ZM197.326 80.318C197.074 80.318 196.858 80.228 196.678 80.048C196.498 79.868 196.408 79.646 196.408 79.382C196.408 79.118 196.498 78.902 196.678 78.734C196.858 78.554 197.074 78.464 197.326 78.464C197.578 78.464 197.794 78.554 197.974 78.734C198.154 78.902 198.244 79.118 198.244 79.382C198.244 79.646 198.154 79.868 197.974 80.048C197.794 80.228 197.578 80.318 197.326 80.318ZM197.956 82.172V92H196.696V82.172H197.956ZM205.417 81.992C206.593 81.992 207.553 82.358 208.297 83.09C209.041 83.81 209.413 84.86 209.413 86.24V92H208.171V86.384C208.171 85.316 207.901 84.5 207.361 83.936C206.833 83.372 206.107 83.09 205.183 83.09C204.235 83.09 203.479 83.39 202.915 83.99C202.351 84.59 202.069 85.472 202.069 86.636V92H200.809V82.172H202.069V83.846C202.381 83.246 202.831 82.79 203.419 82.478C204.007 82.154 204.673 81.992 205.417 81.992ZM212.83 80.318C212.578 80.318 212.362 80.228 212.182 80.048C212.002 79.868 211.912 79.646 211.912 79.382C211.912 79.118 212.002 78.902 212.182 78.734C212.362 78.554 212.578 78.464 212.83 78.464C213.082 78.464 213.298 78.554 213.478 78.734C213.658 78.902 213.748 79.118 213.748 79.382C213.748 79.646 213.658 79.868 213.478 80.048C213.298 80.228 213.082 80.318 212.83 80.318ZM213.46 82.172V92H212.2V82.172H213.46ZM217.951 83.234V89.336C217.951 89.936 218.065 90.35 218.293 90.578C218.521 90.806 218.923 90.92 219.499 90.92H220.651V92H219.301C218.413 92 217.753 91.796 217.321 91.388C216.889 90.968 216.673 90.284 216.673 89.336V83.234H215.305V82.172H216.673V79.706H217.951V82.172H220.651V83.234H217.951ZM235.985 79.418L231.953 87.104V92H230.693V87.104L226.625 79.418H228.047L231.323 85.952L234.581 79.418H235.985ZM242.131 92.144C241.207 92.144 240.373 91.94 239.629 91.532C238.897 91.112 238.315 90.524 237.883 89.768C237.463 89 237.253 88.106 237.253 87.086C237.253 86.066 237.469 85.178 237.901 84.422C238.333 83.654 238.921 83.066 239.665 82.658C240.409 82.238 241.243 82.028 242.167 82.028C243.091 82.028 243.925 82.238 244.669 82.658C245.425 83.066 246.013 83.654 246.433 84.422C246.865 85.178 247.081 86.066 247.081 87.086C247.081 88.094 246.865 88.982 246.433 89.75C246.001 90.518 245.407 91.112 244.651 91.532C243.895 91.94 243.055 92.144 242.131 92.144ZM242.131 91.046C242.779 91.046 243.379 90.902 243.931 90.614C244.483 90.314 244.927 89.87 245.263 89.282C245.611 88.682 245.785 87.95 245.785 87.086C245.785 86.222 245.617 85.496 245.281 84.908C244.945 84.308 244.501 83.864 243.949 83.576C243.397 83.276 242.797 83.126 242.149 83.126C241.501 83.126 240.901 83.276 240.349 83.576C239.797 83.864 239.353 84.308 239.017 84.908C238.693 85.496 238.531 86.222 238.531 87.086C238.531 87.95 238.693 88.682 239.017 89.282C239.353 89.87 239.791 90.314 240.331 90.614C240.883 90.902 241.483 91.046 242.131 91.046ZM257.892 82.172V92H256.632V90.272C256.344 90.884 255.9 91.352 255.3 91.676C254.7 92 254.028 92.162 253.284 92.162C252.108 92.162 251.148 91.802 250.404 91.082C249.66 90.35 249.288 89.294 249.288 87.914V82.172H250.53V87.77C250.53 88.838 250.794 89.654 251.322 90.218C251.862 90.782 252.594 91.064 253.518 91.064C254.466 91.064 255.222 90.764 255.786 90.164C256.35 89.564 256.632 88.682 256.632 87.518V82.172H257.892ZM262.028 83.918C262.304 83.306 262.724 82.832 263.288 82.496C263.864 82.16 264.566 81.992 265.394 81.992V83.306H265.052C264.14 83.306 263.408 83.552 262.856 84.044C262.304 84.536 262.028 85.358 262.028 86.51V92H260.768V82.172H262.028V83.918ZM279.584 79.58V92H278.324V82.082L273.896 92H272.978L268.55 82.118V92H267.29V79.58H268.622L273.428 90.344L278.234 79.58H279.584ZM286.744 92.144C285.82 92.144 284.986 91.94 284.242 91.532C283.51 91.112 282.928 90.524 282.496 89.768C282.076 89 281.866 88.106 281.866 87.086C281.866 86.066 282.082 85.178 282.514 84.422C282.946 83.654 283.534 83.066 284.278 82.658C285.022 82.238 285.856 82.028 286.78 82.028C287.704 82.028 288.538 82.238 289.282 82.658C290.038 83.066 290.626 83.654 291.046 84.422C291.478 85.178 291.694 86.066 291.694 87.086C291.694 88.094 291.478 88.982 291.046 89.75C290.614 90.518 290.02 91.112 289.264 91.532C288.508 91.94 287.668 92.144 286.744 92.144ZM286.744 91.046C287.392 91.046 287.992 90.902 288.544 90.614C289.096 90.314 289.54 89.87 289.876 89.282C290.224 88.682 290.398 87.95 290.398 87.086C290.398 86.222 290.23 85.496 289.894 84.908C289.558 84.308 289.114 83.864 288.562 83.576C288.01 83.276 287.41 83.126 286.762 83.126C286.114 83.126 285.514 83.276 284.962 83.576C284.41 83.864 283.966 84.308 283.63 84.908C283.306 85.496 283.144 86.222 283.144 87.086C283.144 87.95 283.306 88.682 283.63 89.282C283.966 89.87 284.404 90.314 284.944 90.614C285.496 90.902 286.096 91.046 286.744 91.046ZM295.233 84.35C295.557 83.666 296.055 83.108 296.727 82.676C297.411 82.244 298.215 82.028 299.139 82.028C300.039 82.028 300.843 82.238 301.551 82.658C302.259 83.066 302.811 83.654 303.207 84.422C303.615 85.178 303.819 86.06 303.819 87.068C303.819 88.076 303.615 88.964 303.207 89.732C302.811 90.5 302.253 91.094 301.533 91.514C300.825 91.934 300.027 92.144 299.139 92.144C298.203 92.144 297.393 91.934 296.709 91.514C296.037 91.082 295.545 90.524 295.233 89.84V92H293.991V78.68H295.233V84.35ZM302.541 87.068C302.541 86.252 302.379 85.55 302.055 84.962C301.743 84.362 301.311 83.906 300.759 83.594C300.207 83.282 299.583 83.126 298.887 83.126C298.215 83.126 297.597 83.288 297.033 83.612C296.481 83.936 296.043 84.398 295.719 84.998C295.395 85.598 295.233 86.294 295.233 87.086C295.233 87.878 295.395 88.574 295.719 89.174C296.043 89.774 296.481 90.236 297.033 90.56C297.597 90.884 298.215 91.046 298.887 91.046C299.583 91.046 300.207 90.89 300.759 90.578C301.311 90.254 301.743 89.792 302.055 89.192C302.379 88.58 302.541 87.872 302.541 87.068ZM306.767 80.318C306.515 80.318 306.299 80.228 306.119 80.048C305.939 79.868 305.849 79.646 305.849 79.382C305.849 79.118 305.939 78.902 306.119 78.734C306.299 78.554 306.515 78.464 306.767 78.464C307.019 78.464 307.235 78.554 307.415 78.734C307.595 78.902 307.685 79.118 307.685 79.382C307.685 79.646 307.595 79.868 307.415 80.048C307.235 80.228 307.019 80.318 306.767 80.318ZM307.397 82.172V92H306.137V82.172H307.397ZM311.511 78.68V92H310.251V78.68H311.511ZM323.256 86.582C323.256 87.014 323.244 87.344 323.22 87.572H315.066C315.102 88.316 315.282 88.952 315.606 89.48C315.93 90.008 316.356 90.41 316.884 90.686C317.412 90.95 317.988 91.082 318.612 91.082C319.428 91.082 320.112 90.884 320.664 90.488C321.228 90.092 321.6 89.558 321.78 88.886H323.112C322.872 89.846 322.356 90.632 321.564 91.244C320.784 91.844 319.8 92.144 318.612 92.144C317.688 92.144 316.86 91.94 316.128 91.532C315.396 91.112 314.82 90.524 314.4 89.768C313.992 89 313.788 88.106 313.788 87.086C313.788 86.066 313.992 85.172 314.4 84.404C314.808 83.636 315.378 83.048 316.11 82.64C316.842 82.232 317.676 82.028 318.612 82.028C319.548 82.028 320.364 82.232 321.06 82.64C321.768 83.048 322.308 83.6 322.68 84.296C323.064 84.98 323.256 85.742 323.256 86.582ZM321.978 86.546C321.99 85.814 321.84 85.19 321.528 84.674C321.228 84.158 320.814 83.768 320.286 83.504C319.758 83.24 319.182 83.108 318.558 83.108C317.622 83.108 316.824 83.408 316.164 84.008C315.504 84.608 315.138 85.454 315.066 86.546H321.978ZM332.851 89.012H327.127L326.029 92H324.697L329.287 79.58H330.709L335.281 92H333.949L332.851 89.012ZM332.473 87.968L329.989 81.164L327.505 87.968H332.473ZM338.545 84.332C338.857 83.672 339.349 83.126 340.021 82.694C340.705 82.25 341.515 82.028 342.451 82.028C343.339 82.028 344.137 82.238 344.845 82.658C345.565 83.066 346.123 83.654 346.519 84.422C346.927 85.178 347.131 86.06 347.131 87.068C347.131 88.076 346.927 88.964 346.519 89.732C346.123 90.5 345.565 91.094 344.845 91.514C344.137 91.934 343.339 92.144 342.451 92.144C341.527 92.144 340.723 91.928 340.039 91.496C339.355 91.052 338.857 90.5 338.545 89.84V96.644H337.303V82.172H338.545V84.332ZM345.853 87.068C345.853 86.252 345.691 85.55 345.367 84.962C345.055 84.362 344.623 83.906 344.071 83.594C343.519 83.282 342.895 83.126 342.199 83.126C341.527 83.126 340.909 83.288 340.345 83.612C339.793 83.936 339.355 84.398 339.031 84.998C338.707 85.598 338.545 86.294 338.545 87.086C338.545 87.878 338.707 88.574 339.031 89.174C339.355 89.774 339.793 90.236 340.345 90.56C340.909 90.884 341.527 91.046 342.199 91.046C342.895 91.046 343.519 90.89 344.071 90.578C344.623 90.254 345.055 89.792 345.367 89.192C345.691 88.58 345.853 87.872 345.853 87.068ZM350.692 84.332C351.004 83.672 351.496 83.126 352.168 82.694C352.852 82.25 353.662 82.028 354.598 82.028C355.486 82.028 356.284 82.238 356.992 82.658C357.712 83.066 358.27 83.654 358.666 84.422C359.074 85.178 359.278 86.06 359.278 87.068C359.278 88.076 359.074 88.964 358.666 89.732C358.27 90.5 357.712 91.094 356.992 91.514C356.284 91.934 355.486 92.144 354.598 92.144C353.674 92.144 352.87 91.928 352.186 91.496C351.502 91.052 351.004 90.5 350.692 89.84V96.644H349.45V82.172H350.692V84.332ZM358 87.068C358 86.252 357.838 85.55 357.514 84.962C357.202 84.362 356.77 83.906 356.218 83.594C355.666 83.282 355.042 83.126 354.346 83.126C353.674 83.126 353.056 83.288 352.492 83.612C351.94 83.936 351.502 84.398 351.178 84.998C350.854 85.598 350.692 86.294 350.692 87.086C350.692 87.878 350.854 88.574 351.178 89.174C351.502 89.774 351.94 90.236 352.492 90.56C353.056 90.884 353.674 91.046 354.346 91.046C355.042 91.046 355.666 90.89 356.218 90.578C356.77 90.254 357.202 89.792 357.514 89.192C357.838 88.58 358 87.872 358 87.068Z" fill="white"></path><circle cx="31" cy="32" r="8" fill="#FF4545"></circle><circle cx="57" cy="32" r="8" fill="#40CA0F"></circle><circle cx="83" cy="32" r="8" fill="#FFD057"></circle></svg>