<svg xmlns="http://www.w3.org/2000/svg" width="1000" height="362" viewBox="0 0 1000 362" fill="none"><mask id="mask0_708_1338" style="mask-type:alpha" maskUnits="userSpaceOnUse" x="0" y="0" width="1022" height="362"><rect width="1022" height="362" fill="#D9D9D9"></rect></mask><g mask="url(#mask0_708_1338)"><path d="M-320 325L38.3914 169.419C139.018 125.736 253.17 125.297 354.13 168.205L633.444 286.914C759.566 340.516 904.349 325.821 1017.13 247.973L1091.06 196.943C1212.33 113.233 1369.8 102.979 1500.91 170.256L1896 373M-320 305L38.3914 149.419C139.018 105.736 253.17 105.297 354.13 148.205L633.444 266.914C759.566 320.516 904.349 305.821 1017.13 227.973L1091.06 176.943C1212.33 93.2328 1369.8 82.9789 1500.91 150.256L1896 353M-320 285L38.3914 129.419C139.018 85.7362 253.17 85.2973 354.13 128.205L633.444 246.914C759.566 300.516 904.349 285.821 1017.13 207.973L1091.06 156.943C1212.33 73.2328 1369.8 62.9789 1500.91 130.256L1896 333M-320 265L38.3914 109.419C139.018 65.7362 253.17 65.2973 354.13 108.205L633.444 226.914C759.566 280.516 904.349 265.821 1017.13 187.973L1091.06 136.943C1212.33 53.2328 1369.8 42.9789 1500.91 110.256L1896 313M-320 245L38.3914 89.4193C139.018 45.7362 253.17 45.2973 354.13 88.2053L633.444 206.914C759.566 260.516 904.349 245.821 1017.13 167.973L1091.06 116.943C1212.33 33.2328 1369.8 22.9789 1500.91 90.2557L1896 293M-320 225L38.3914 69.4193C139.018 25.7362 253.17 25.2973 354.13 68.2053L633.444 186.914C759.566 240.516 904.349 225.821 1017.13 147.973L1091.06 96.9428C1212.33 13.2328 1369.8 2.97891 1500.91 70.2557L1896 273" stroke="#DBE8F4" stroke-width="2"></path></g></svg>