<?xml version="1.0" encoding="UTF-8"?>
<svg id="Layer_2" xmlns="http://www.w3.org/2000/svg" viewBox="0 0 452.26 123.76">
  <defs>
    <style>
      .cls-1 {
        fill: #1485c9;
      }

      .cls-2 {
        fill: #ee5b25;
      }

      .cls-3 {
        fill: #333;
      }
    </style>
  </defs>
  <g id="Layer_1-2" data-name="Layer_1">
    <g>
      <g>
        <path class="cls-3" d="M135.63,21.77c5.75,0,10.72,1,14.9,3.01,4.18,2,7.4,5.01,9.67,9.02,2.26,4.01,3.4,9.03,3.4,15.06v9.1h-36.54c.17,3.1,1.33,5.65,3.48,7.63,2.14,1.99,5.31,2.98,9.49,2.98,3.69,0,7.08-.37,10.17-1.1,3.08-.73,6.26-1.86,9.54-3.4v14.69c-2.86,1.5-5.98,2.6-9.36,3.29-3.38.7-7.65,1.05-12.81,1.05-5.96,0-11.29-1.06-16-3.19-4.7-2.12-8.41-5.42-11.11-9.88-2.7-4.46-4.05-10.19-4.05-17.2s1.22-12.96,3.66-17.54c2.44-4.58,5.85-7.98,10.25-10.19,4.39-2.21,9.5-3.32,15.32-3.32ZM136.36,35.68c-2.4,0-4.42.76-6.04,2.27-1.62,1.52-2.57,3.89-2.85,7.14h17.56c-.04-1.74-.38-3.33-1.05-4.76-.66-1.43-1.63-2.56-2.9-3.4-1.27-.84-2.85-1.25-4.73-1.25Z"/>
        <path class="cls-3" d="M210.9,21.77c1.12,0,2.28.08,3.5.24,1.22.16,2.13.29,2.72.39l-1.83,19.29c-.66-.17-1.52-.32-2.56-.44-1.05-.12-2.51-.18-4.39-.18-1.29,0-2.67.12-4.13.37-1.46.24-2.85.76-4.16,1.54-1.31.78-2.38,1.97-3.22,3.55-.84,1.59-1.25,3.72-1.25,6.4v29.12h-20.44V22.82h15.21l3.19,9.46h.99c1.08-1.95,2.46-3.72,4.16-5.31,1.69-1.58,3.59-2.85,5.7-3.79,2.11-.94,4.28-1.41,6.51-1.41Z"/>
        <path class="cls-3" d="M254.4,66.94c1.85,0,3.54-.19,5.07-.58,1.53-.38,3.14-.87,4.81-1.46v14.9c-2.23.98-4.59,1.77-7.08,2.38-2.49.61-5.67.92-9.54.92s-7.21-.6-10.14-1.8c-2.93-1.2-5.2-3.29-6.82-6.27-1.62-2.98-2.43-7.14-2.43-12.47v-24.41h-7.16v-8.31l9.1-6.43,5.28-12.44h13.38v11.87h14.53v15.32h-14.53v23.05c0,1.92.49,3.35,1.46,4.31.98.96,2.33,1.44,4.08,1.44Z"/>
        <path class="cls-3" d="M301.29,21.77c5.75,0,10.72,1,14.9,3.01,4.18,2,7.41,5.01,9.67,9.02,2.27,4.01,3.4,9.03,3.4,15.06v9.1h-36.54c.17,3.1,1.33,5.65,3.48,7.63,2.14,1.99,5.31,2.98,9.49,2.98,3.69,0,7.08-.37,10.17-1.1,3.08-.73,6.26-1.86,9.54-3.4v14.69c-2.86,1.5-5.98,2.6-9.36,3.29-3.38.7-7.65,1.05-12.81,1.05-5.96,0-11.29-1.06-16-3.19-4.71-2.12-8.41-5.42-11.11-9.88-2.7-4.46-4.05-10.19-4.05-17.2s1.22-12.96,3.66-17.54c2.44-4.58,5.85-7.98,10.25-10.19,4.39-2.21,9.5-3.32,15.32-3.32ZM302.02,35.68c-2.4,0-4.42.76-6.04,2.27-1.62,1.52-2.57,3.89-2.85,7.14h17.56c-.04-1.74-.38-3.33-1.05-4.76-.66-1.43-1.63-2.56-2.9-3.4s-2.85-1.25-4.73-1.25Z"/>
        <path class="cls-3" d="M353.35,51.83l-18.09-29.01h23.21l8.99,16.62,9.2-16.62h23.26l-18.56,29.01,19.29,30.21h-23.21l-9.98-17.98-9.93,17.98h-23.26l19.08-30.21Z"/>
        <path class="cls-3" d="M452.26,63.85c0,3.76-.84,7.09-2.51,9.98-1.67,2.89-4.35,5.16-8.02,6.8-3.68,1.64-8.51,2.46-14.51,2.46-4.22,0-7.99-.23-11.32-.68-3.33-.45-6.7-1.32-10.12-2.61v-16.36c3.73,1.71,7.53,2.94,11.4,3.69,3.87.75,6.92,1.12,9.15,1.12s3.98-.25,5.04-.76c1.06-.5,1.59-1.26,1.59-2.27,0-.87-.36-1.61-1.07-2.22-.71-.61-1.99-1.31-3.82-2.12-1.83-.8-4.4-1.88-7.71-3.24-3.28-1.36-6-2.84-8.18-4.44-2.18-1.6-3.81-3.52-4.89-5.75-1.08-2.23-1.62-4.97-1.62-8.21,0-5.78,2.23-10.14,6.69-13.07s10.37-4.39,17.72-4.39c3.9,0,7.58.43,11.03,1.28,3.45.85,7.02,2.1,10.72,3.74l-5.59,13.17c-2.93-1.32-5.89-2.39-8.89-3.19-3-.8-5.38-1.2-7.16-1.2-1.6,0-2.84.21-3.71.63-.87.42-1.31,1.03-1.31,1.83,0,.73.3,1.38.92,1.93.61.56,1.77,1.2,3.48,1.93,1.71.73,4.2,1.76,7.48,3.08,3.45,1.39,6.3,2.88,8.55,4.47,2.25,1.59,3.92,3.51,5.02,5.78,1.1,2.27,1.65,5.14,1.65,8.62Z"/>
      </g>
      <g>
        <path class="cls-2" d="M169.71,123.51v-18.37h3v18.37h-3Z"/>
        <path class="cls-2" d="M192.87,123.51h-3.68l-9.03-14.64h-.1l.06.82c.12,1.56.18,2.98.18,4.27v9.55h-2.73v-18.37h3.64l9.01,14.56h.08c-.02-.19-.05-.89-.1-2.1-.05-1.21-.08-2.16-.08-2.83v-9.62h2.75v18.37Z"/>
        <path class="cls-2" d="M200.7,123.51h-2.98v-18.37h10.37v2.54h-7.39v5.74h6.92v2.55h-6.92v7.54Z"/>
        <path class="cls-2" d="M227.72,114.3c0,2.99-.75,5.32-2.24,6.97s-3.61,2.49-6.35,2.49-4.9-.82-6.39-2.47c-1.49-1.65-2.23-3.98-2.23-7.02s.75-5.36,2.24-6.99,3.63-2.44,6.4-2.44,4.84.83,6.33,2.48c1.49,1.65,2.24,3.97,2.24,6.97ZM213.7,114.3c0,2.26.46,3.98,1.37,5.15.91,1.17,2.27,1.75,4.06,1.75s3.13-.58,4.04-1.73c.91-1.16,1.36-2.88,1.36-5.16s-.45-3.96-1.35-5.13-2.24-1.75-4.03-1.75-3.16.58-4.08,1.75c-.92,1.16-1.38,2.87-1.38,5.13Z"/>
        <path class="cls-2" d="M237.25,123.51h-3v-15.79h-5.4v-2.58h13.81v2.58h-5.4v15.79Z"/>
        <path class="cls-2" d="M255.86,123.51h-10.39v-18.37h10.39v2.54h-7.39v5h6.92v2.51h-6.92v5.77h7.39v2.55Z"/>
        <path class="cls-2" d="M267.64,107.45c-1.73,0-3.08.61-4.07,1.83s-1.48,2.91-1.48,5.06.48,3.96,1.43,5.11c.95,1.16,2.33,1.73,4.13,1.73.78,0,1.53-.08,2.26-.23.73-.16,1.49-.35,2.27-.6v2.58c-1.44.54-3.07.82-4.9.82-2.69,0-4.75-.81-6.19-2.44-1.44-1.63-2.16-3.96-2.16-6.99,0-1.91.35-3.58,1.05-5.01.7-1.43,1.71-2.53,3.03-3.29,1.32-.76,2.88-1.14,4.66-1.14,1.88,0,3.61.39,5.2,1.18l-1.08,2.5c-.62-.29-1.28-.55-1.97-.77-.69-.22-1.42-.33-2.18-.33Z"/>
        <path class="cls-2" d="M290.62,123.51h-3.02v-8.28h-8.47v8.28h-3v-18.37h3v7.51h8.47v-7.51h3.02v18.37Z"/>
      </g>
      <polygon class="cls-2" points="68.38 58.82 50.96 89.38 33.54 58.83 33.54 58.82 50.96 28.27 68.38 58.82"/>
      <polygon class="cls-1" points="101.91 0 68.38 58.82 50.96 28.27 67.07 0 101.91 0"/>
      <polygon class="cls-3" points="50.96 28.27 33.54 58.82 0 0 34.84 0 50.96 28.27"/>
      <rect class="cls-2" x="11.22" y="113.07" width="152.09" height="2"/>
      <rect class="cls-2" x="296.58" y="113.07" width="152.09" height="2"/>
    </g>
  </g>
</svg>