<svg xmlns="http://www.w3.org/2000/svg" width="188" height="69" viewBox="0 0 188 69" fill="none"><path d="M2.68019 43.7323C-1.99891 15.5606 62.9323 10.9722 96.9457 12.2027C52.013 10.5788 5.78832 21.3108 5.36953 41.4966C4.63768 76.7712 181.297 68.9586 182.94 40.5127C184.138 19.7784 114.742 6.14739 69.8248 1.60384C109.634 5.33798 188.06 13.8487 185.751 41.4604C183.348 70.2042 8.58674 79.2943 2.68019 43.7323Z" fill=""></path><path fill-rule="evenodd" clip-rule="evenodd" d="M69.6739 3.09621L69.9649 0.110382C89.862 1.97676 119.526 5.04567 143.944 11.1224C156.14 14.1573 167.151 17.9714 175 22.8341C182.818 27.6774 187.894 33.8306 187.246 41.5854C186.881 45.9518 183.304 49.5817 178.193 52.5647C173.002 55.5947 165.804 58.2104 157.338 60.395C140.385 64.7693 118.014 67.4978 95.577 68.2103C73.1434 68.9226 50.5376 67.6229 33.1244 63.8888C24.4257 62.0234 16.9334 59.5322 11.3918 56.3217C5.87063 53.123 2.04495 49.0624 1.20049 43.9781C-0.0882154 36.2191 3.49339 30.1388 9.76485 25.5383C15.9726 20.9846 24.9507 17.7523 34.9714 15.4788C55.0418 10.9253 79.9123 10.0866 96.9834 10.7031C96.9889 10.7033 96.9944 10.7035 97 10.7037C97.3374 10.7159 97.6719 10.7287 98.0032 10.742L97.8826 13.7396C97.5553 13.7264 97.2249 13.7138 96.8915 13.7017C74.5394 12.8939 51.9167 15.1639 34.8833 20.1115C26.3588 22.5875 19.3286 25.7074 14.4361 29.3754C9.54545 33.0419 6.96077 37.1156 6.86923 41.5277C6.79295 45.2044 8.99447 48.527 13.5414 51.4923C18.0904 54.459 24.7404 56.8873 32.9107 58.7626C49.2263 62.5074 71.1537 63.9484 93.227 63.4003C115.294 62.8523 137.392 60.3192 154.036 56.1721C162.369 54.0958 169.248 51.6356 174.061 48.8685C178.96 46.0517 181.284 43.1745 181.443 40.4262C181.689 36.1596 178.298 31.8411 171.311 27.6078C164.44 23.445 154.622 19.6988 143.261 16.4282C120.563 9.89422 92.0811 5.36278 69.6739 3.09621ZM3.96674 40.0561C4.22206 35.8188 6.38416 32.2094 10.0903 29.0937C6.66923 32.2729 4.4511 35.93 3.96674 40.0561ZM174.07 25.7945C174.47 26.0517 174.859 26.3109 175.237 26.572C174.857 26.3098 174.467 26.0507 174.07 25.7945Z" fill=""></path></svg>