<svg xmlns="http://www.w3.org/2000/svg" width="293" height="293" viewBox="0 0 293 293" fill="none"><path fill-rule="evenodd" clip-rule="evenodd" d="M204.206 14.3274C137.242 -14.8847 60.3692 10.0811 22.9278 69.9738L21.9103 69.3378C59.6644 8.94487 137.173 -16.2244 204.686 13.2275C272.199 42.6793 306.475 116.613 287.891 185.368L286.732 185.055C305.163 116.869 271.17 43.5395 204.206 14.3274Z" fill="#58CDFF" fill-opacity="0.95"></path><path fill-rule="evenodd" clip-rule="evenodd" d="M88.7306 279.036C155.695 308.248 232.568 283.283 270.009 223.39L271.026 224.026C233.272 284.419 155.764 309.588 88.2508 280.136C20.7373 250.684 -13.5387 176.751 5.04628 107.996L6.20471 108.309C-12.2264 176.495 21.7666 249.824 88.7306 279.036Z" fill="#58CDFF" fill-opacity="0.95"></path><path d="M138.83 172.397C141.168 172.503 143.556 172.579 145.974 172.579C148.418 172.579 150.832 172.528 153.2 172.397C150.832 175.457 148.495 178.164 146.021 180.744L146.055 180.71C143.594 178.16 141.231 175.448 139.004 172.626L138.83 172.397ZM114.614 168.997C119.216 170.165 124.831 171.16 130.56 171.772L131.116 171.819C134.623 176.634 138.167 180.871 141.971 184.858L141.924 184.807C136.352 191.024 128.834 195.393 120.33 196.962L120.096 196.996C120.079 196.996 120.062 196.996 120.045 196.996C118.991 196.996 117.997 196.736 117.125 196.277L117.159 196.294C113.623 194.276 112.089 186.553 113.283 176.63C113.568 174.186 114.036 171.615 114.609 168.992L114.614 168.997ZM177.442 168.941C177.943 170.956 178.415 173.523 178.75 176.132L178.789 176.498C180.009 186.417 178.504 194.131 174.998 196.192C174.216 196.626 173.281 196.881 172.286 196.881C172.189 196.881 172.091 196.877 171.993 196.872H172.006C163.281 195.279 155.766 190.939 150.207 184.798L150.178 184.764C153.914 180.841 157.433 176.613 160.658 172.163L160.905 171.806C167.178 171.151 172.801 170.14 178.279 168.759L177.442 168.937V168.941ZM119.582 153.08C120.644 155.163 121.758 157.237 122.982 159.319C124.203 161.39 125.451 163.413 126.726 165.388C123.037 164.849 119.476 164.169 116.071 163.34C117.028 159.995 118.226 156.531 119.578 153.072L119.582 153.08ZM172.401 152.974C173.808 156.463 175.002 159.944 175.992 163.319C172.592 164.152 169.001 164.857 165.287 165.388C166.562 163.395 167.837 161.342 169.031 159.239C170.225 157.169 171.343 155.052 172.41 152.97L172.401 152.974ZM110.381 130.241C112.234 136.522 114.223 141.775 116.539 146.841L116.22 146.068C114.24 150.339 112.28 155.562 110.674 160.939L110.453 161.81C107.452 160.888 105.038 159.982 102.688 158.967L103.177 159.154C93.98 155.239 88.03 150.093 88.03 146.013C88.03 141.933 93.98 136.76 103.177 132.863C105.408 131.907 107.856 131.044 110.381 130.241ZM181.522 130.22C184.093 131.014 186.537 131.903 188.823 132.863C198.02 136.794 203.97 141.933 203.97 146.013C203.945 150.093 197.995 155.252 188.798 159.158C186.566 160.114 184.123 160.973 181.602 161.776C179.732 155.473 177.743 150.224 175.436 145.15L175.759 145.949C177.731 141.682 179.694 136.459 181.296 131.082L181.522 130.207V130.22ZM165.253 126.637C168.946 127.185 172.503 127.857 175.907 128.694C174.951 132.051 173.757 135.502 172.401 138.962C171.339 136.892 170.225 134.805 169.001 132.727C167.807 130.645 166.532 128.617 165.257 126.641L165.253 126.637ZM126.696 126.637C125.421 128.639 124.146 130.687 122.956 132.799C121.762 134.869 120.644 136.952 119.582 139.034C118.175 135.549 116.981 132.077 115.991 128.694C119.391 127.899 122.973 127.189 126.692 126.645L126.696 126.637ZM146 125.285C149.931 125.285 153.846 125.464 157.696 125.778C159.852 128.869 161.946 132.162 163.978 135.655C165.952 139.055 167.754 142.501 169.384 145.991C167.747 149.472 165.954 152.949 164.003 156.349C161.984 159.855 159.898 163.191 157.734 166.281C153.867 166.617 149.948 166.799 145.996 166.799C142.064 166.799 138.15 166.612 134.3 166.306C132.145 163.217 130.041 159.91 128.018 156.429C126.043 153.029 124.241 149.584 122.612 146.093C124.223 142.604 126.042 139.119 127.993 135.715C130.011 132.209 132.098 128.885 134.261 125.795C138.129 125.455 142.047 125.277 146 125.277V125.285ZM145.919 111.341C148.384 113.891 150.747 116.598 152.97 119.42L153.14 119.646C150.802 119.539 148.414 119.467 145.996 119.467C143.552 119.467 141.138 119.518 138.771 119.646C141.134 116.586 143.471 113.878 145.949 111.299L145.915 111.333L145.919 111.341ZM119.99 95.1401C128.715 96.7381 136.225 101.077 141.788 107.214L141.818 107.248C138.082 111.175 134.563 115.404 131.337 119.862L131.091 120.219C124.822 120.87 119.199 121.873 113.725 123.254L114.558 123.075C113.963 120.474 113.521 117.954 113.211 115.536C111.991 105.616 113.496 97.9026 117.002 95.8498C117.878 95.4376 118.902 95.1826 119.981 95.1486H119.994L119.99 95.1401ZM171.883 95.0338V95.0678C171.938 95.0678 172.002 95.0636 172.07 95.0636C173.085 95.0636 174.042 95.3143 174.883 95.7563L174.849 95.7393C178.385 97.7666 179.919 105.485 178.725 115.413C178.44 117.856 177.973 120.432 177.399 123.058C172.788 121.877 167.174 120.878 161.445 120.27L160.901 120.224C157.39 115.404 153.845 111.167 150.042 107.176L150.093 107.227C155.664 101.022 163.17 96.6531 171.657 95.0763L171.895 95.0381L171.883 95.0338ZM171.908 89.2453C161.53 90.8221 152.545 95.8626 145.983 103.134L145.949 103.173C139.34 95.9051 130.356 90.8986 120.232 89.3813L119.994 89.3516C119.939 89.3516 119.871 89.3516 119.803 89.3516C117.716 89.3516 115.757 89.8998 114.061 90.8603L114.121 90.8306C106.819 95.0423 105.183 108.166 108.953 124.635C92.7857 129.629 82.2712 137.61 82.2712 146.021C82.2712 154.466 92.841 162.469 109.055 167.424C105.315 183.957 106.985 197.102 114.303 201.309C115.91 202.232 117.839 202.771 119.892 202.771C119.986 202.771 120.079 202.771 120.168 202.767H120.156C130.534 201.19 139.519 196.146 146.081 188.87L146.115 188.831C152.724 196.103 161.708 201.11 171.832 202.627L172.07 202.657C172.133 202.657 172.214 202.657 172.291 202.657C174.365 202.657 176.315 202.113 178.003 201.165L177.943 201.195C185.24 196.987 186.881 183.863 183.111 167.39C199.219 162.439 209.733 154.44 209.733 146.017C209.733 137.572 199.163 129.569 182.95 124.601C186.69 108.086 185.019 94.9276 177.701 90.7158C176.077 89.7851 174.131 89.2368 172.057 89.2368C172.002 89.2368 171.946 89.2368 171.891 89.2368H171.9L171.908 89.2453ZM157.845 146.021C157.845 152.579 152.528 157.896 145.97 157.896C139.412 157.896 134.096 152.579 134.096 146.021C134.096 139.463 139.412 134.147 145.97 134.147C149.251 134.147 152.218 135.477 154.368 137.623C156.519 139.774 157.845 142.74 157.845 146.021Z" fill="#52D6FF"></path><circle cx="12.4259" cy="86.9214" r="7.5" fill="#FF4545"></circle><circle cx="282.5" cy="204.921" r="7.5" fill="#40CA0F"></circle></svg>