<svg xmlns="http://www.w3.org/2000/svg" width="488" height="475" viewBox="0 0 488 475" fill="none"><path fill-rule="evenodd" clip-rule="evenodd" d="M164.321 18.3344C53.8031 61.7699 -5.68671 179.151 20.3247 291.418L19.1556 291.689C-6.98816 178.85 52.8027 60.8737 163.882 17.2175C274.961 -26.4386 399.078 19.2585 456.759 119.702L455.718 120.3C398.33 20.3648 274.838 -25.1012 164.321 18.3344Z" fill="#58CDFF"></path><path fill-rule="evenodd" clip-rule="evenodd" d="M336.531 456.508C447.049 413.073 506.539 295.691 480.527 183.424L481.696 183.154C507.84 295.992 448.049 413.969 336.97 457.625C225.891 501.281 101.773 455.584 44.0931 355.14L45.1337 354.542C102.522 454.478 226.014 499.944 336.531 456.508Z" fill="#58CDFF"></path><path fill-rule="evenodd" clip-rule="evenodd" d="M37.9056 300.259C40.0199 297.809 41.4451 294.396 41.055 291C38.0082 291.116 34.3221 292.946 32.1374 295.394C30.1756 297.566 28.463 301.037 28.9234 304.366C32.3222 304.618 35.7913 302.713 37.9056 300.259ZM45.5271 321.812C45.6121 330.591 53.562 333.511 53.65 333.548C53.5855 333.754 52.3802 337.709 49.4624 341.798C46.9376 345.33 44.3189 348.848 40.1929 348.924C36.1402 348.996 34.8353 346.621 30.199 346.621C25.5657 346.621 24.1171 348.848 20.2814 348.996C16.2991 349.138 13.264 345.174 10.7216 341.654C5.51938 334.453 1.54589 321.305 6.88298 312.431C9.53393 308.026 14.2699 305.233 19.4134 305.163C23.3224 305.09 27.0144 307.683 29.4043 307.683C31.7943 307.683 36.281 304.566 40.9964 305.024C42.9699 305.103 48.5123 305.787 52.0694 310.777C51.782 310.949 45.4567 314.476 45.5271 321.812Z" fill="white"></path><path d="M476.926 147.921C476.926 152.064 473.568 155.421 469.426 155.421C465.284 155.421 461.926 152.064 461.926 147.921C461.926 143.779 465.284 140.421 469.426 140.421C473.568 140.421 476.926 143.779 476.926 147.921Z" fill="#FFD057"></path></svg>