<svg xmlns="http://www.w3.org/2000/svg" width="404" height="375" viewBox="0 0 404 375" fill="none"><path fill-rule="evenodd" clip-rule="evenodd" d="M174.766 2.9624C81.8838 12.3583 11.9177 88.6028 7.75782 179.154L6.55908 179.098C10.7459 87.9622 81.1624 11.2252 174.645 1.7685C268.128 -7.6882 352.486 53.3918 374.84 141.843L373.677 142.137C351.466 54.2542 267.648 -6.43353 174.766 2.9624Z" fill="#58CDFF"></path><path fill-rule="evenodd" clip-rule="evenodd" d="M212.086 371.88C299.708 363.016 366.937 294.659 377.762 210.923L378.952 211.076C368.058 295.354 300.396 364.152 212.206 373.073C118.724 382.53 34.3655 321.45 12.0116 232.999L13.1751 232.705C35.3853 320.588 119.203 381.276 212.086 371.88Z" fill="#58CDFF"></path><path d="M15 206.5C15 210.642 11.6421 214 7.5 214C3.35786 214 4.05562e-08 210.642 2.61268e-08 206.5C1.16974e-08 202.358 3.35786 199 7.5 199C11.6421 199 15 202.358 15 206.5Z" fill="#00A3FF"></path><g clip-path="url(#clip0_410_57)"><path d="M400.643 166.485C399.752 166.485 398.899 166.842 398.269 167.478C397.639 168.114 397.286 168.976 397.286 169.875V185.238C397.286 186.137 397.639 186.999 398.269 187.635C398.899 188.271 399.752 188.628 400.643 188.628C401.533 188.628 402.387 188.271 403.017 187.635C403.646 186.999 404 186.137 404 185.238V169.875C404 168.976 403.646 168.114 403.017 167.478C402.387 166.842 401.533 166.485 400.643 166.485Z" fill="white"></path><path d="M357.357 166.485C356.467 166.485 355.613 166.842 354.983 167.478C354.354 168.114 354 168.976 354 169.875V185.238C354 186.137 354.354 186.999 354.983 187.635C355.613 188.271 356.467 188.628 357.357 188.628C358.248 188.628 359.101 188.271 359.731 187.635C360.361 186.999 360.714 186.137 360.714 185.238V169.875C360.714 168.976 360.361 168.114 359.731 167.478C359.101 166.842 358.248 166.485 357.357 166.485Z" fill="white"></path><path d="M363.143 166.485V189.565C363.143 190.072 363.242 190.574 363.434 191.042C363.626 191.51 363.907 191.936 364.262 192.294C364.617 192.652 365.038 192.936 365.502 193.13C365.965 193.324 366.462 193.424 366.964 193.424H369.393V201.61C369.393 202.509 369.747 203.371 370.376 204.007C371.006 204.643 371.86 205 372.75 205C373.64 205 374.494 204.643 375.124 204.007C375.754 203.371 376.107 202.509 376.107 201.61V193.424H381.893V201.61C381.893 202.509 382.246 203.371 382.876 204.007C383.506 204.643 384.36 205 385.25 205C386.14 205 386.994 204.643 387.624 204.007C388.254 203.371 388.607 202.509 388.607 201.61V193.424H391.036C392.049 193.424 393.021 193.018 393.738 192.294C394.455 191.57 394.857 190.589 394.857 189.565V166.485H363.143Z" fill="white"></path><path d="M394.429 161.689C393.378 158.128 391.046 155.093 387.893 153.178L387.357 152.854L386.786 152.565L387.429 151.447L389.321 147.841C389.357 147.738 389.359 147.627 389.327 147.523C389.295 147.419 389.23 147.328 389.143 147.264H388.893C388.802 147.268 388.713 147.293 388.632 147.337C388.552 147.381 388.482 147.442 388.429 147.517L386.5 150.87L385.893 151.988L385.321 151.736L384.714 151.52C381.013 150.223 376.987 150.223 373.286 151.52L372.714 151.736L372.107 151.988L371.5 150.87L369.571 147.264C369.539 147.205 369.495 147.153 369.442 147.111C369.389 147.069 369.329 147.038 369.264 147.019C369.199 147.001 369.132 146.996 369.065 147.004C368.998 147.012 368.934 147.033 368.875 147.066C368.816 147.099 368.765 147.143 368.723 147.197C368.682 147.25 368.651 147.311 368.633 147.376C368.614 147.442 368.609 147.51 368.617 147.577C368.625 147.645 368.646 147.71 368.679 147.769L370.571 151.375L371.214 152.493L370.643 152.782L370.107 153.106C366.938 155.029 364.614 158.098 363.607 161.689C363.328 162.626 363.172 163.596 363.143 164.574H394.857C394.822 163.599 394.678 162.632 394.429 161.689ZM371.857 159.778C371.575 159.778 371.298 159.693 371.063 159.535C370.829 159.376 370.645 159.151 370.537 158.887C370.429 158.624 370.401 158.334 370.456 158.054C370.511 157.774 370.647 157.517 370.847 157.315C371.047 157.114 371.301 156.976 371.578 156.921C371.856 156.865 372.143 156.894 372.404 157.003C372.665 157.112 372.888 157.297 373.045 157.534C373.202 157.771 373.286 158.05 373.286 158.335C373.286 158.718 373.135 159.085 372.867 159.355C372.599 159.626 372.236 159.778 371.857 159.778ZM386.143 159.778C385.86 159.778 385.584 159.693 385.349 159.535C385.114 159.376 384.931 159.151 384.823 158.887C384.715 158.624 384.686 158.334 384.742 158.054C384.797 157.774 384.933 157.517 385.133 157.315C385.333 157.114 385.587 156.976 385.864 156.921C386.141 156.865 386.429 156.894 386.69 157.003C386.951 157.112 387.174 157.297 387.331 157.534C387.488 157.771 387.571 158.05 387.571 158.335C387.571 158.718 387.421 159.085 387.153 159.355C386.885 159.626 386.522 159.778 386.143 159.778Z" fill="white"></path></g><defs><clipPath id="clip0_410_57"><rect width="50" height="58" fill="white" transform="translate(354 147)"></rect></clipPath></defs></svg>