<svg xmlns="http://www.w3.org/2000/svg" width="91" height="51" viewBox="0 0 91 51" fill="none"><g clip-path="url(#clip0_302_42)"><path d="M20 0H24V22H20V0Z" fill="white"></path><path d="M35.5233 14.9687C35.5233 18.4062 32.8023 18.7188 31.8953 18.7188C29.7791 18.7188 29.4767 16.6875 29.4767 15.5938V7H26V15.4375C26 17.4688 26.6047 19.3438 27.814 20.4375C28.8721 21.5312 30.2326 22 31.8953 22C33.1046 22 34.6163 21.6875 35.5233 20.75V22H39V7H35.5233V14.9687Z" fill="white"></path><path d="M46.3158 2H42.6842V7.34351H40V10.7023H42.6842V22H46.3158V10.7023H49V7.34351H46.3158V2Z" fill="white"></path><path d="M60.1609 17.5612C59.4138 18.1735 58.3678 18.6327 57.3218 18.6327C54.931 18.6327 53.2874 16.7959 53.2874 14.3469C53.2874 11.898 54.931 10.2143 57.3218 10.2143C58.3678 10.2143 59.4138 10.5204 60.1609 11.2857L60.6092 11.7449L63 9.44898L62.4023 8.98979C61.0575 7.7653 59.2644 7 57.3218 7C53.1379 7 50 10.2143 50 14.5C50 18.7857 53.1379 22 57.3218 22C59.2644 22 61.0575 21.2347 62.4023 20.0102L63 19.551L60.6092 17.102L60.1609 17.5612Z" fill="white"></path><path d="M75.5 8.3662C74.45 7.28169 73.4 6.8169 71.75 6.8169C70.55 6.8169 69.35 7.12676 68.45 8.05634V0H65V22H68.45V13.7887C68.45 10.3803 70.7 10.0704 71.6 10.0704C73.7 10.0704 73.55 12.0845 73.55 13.169V21.8451H77V13.3239C77 11.3099 76.55 9.45071 75.5 8.3662Z" fill="white"></path><path d="M57 17C58.1046 17 59 15.8807 59 14.5C59 13.1193 58.1046 12 57 12C55.8954 12 55 13.1193 55 14.5C55 15.8807 55.8954 17 57 17Z" fill="#EF4335"></path><path d="M15.0769 16.636C13.8462 17.862 12 18.6283 10 18.6283C6.15385 18.6283 3.38462 15.5632 3.38462 11.4252C3.38462 7.28728 6.15385 4.22213 10.1538 4.22213C12 4.22213 13.8462 4.98842 15.2308 6.36773L15.6923 6.82751L18 4.52865L17.5385 4.06887C15.5385 2.07652 12.9231 1.00372 10.1538 1.00372C4.30769 0.850465 0 5.44819 0 11.4252C0 17.4023 4.30769 22 10 22C12.7692 22 15.5385 20.9272 17.3846 18.9348L17.8462 18.4751L15.5385 16.1762L15.0769 16.636Z" fill="white"></path></g><path d="M7.52447 36.4635C7.67415 36.0029 8.32585 36.0029 8.47553 36.4635L9.68386 40.1824C9.75079 40.3884 9.94277 40.5279 10.1594 40.5279H14.0696C14.554 40.5279 14.7554 41.1477 14.3635 41.4324L11.2001 43.7307C11.0248 43.8581 10.9515 44.0838 11.0184 44.2898L12.2268 48.0086C12.3764 48.4693 11.8492 48.8523 11.4573 48.5676L8.29389 46.2693C8.11865 46.1419 7.88135 46.1419 7.70611 46.2693L4.54267 48.5676C4.15081 48.8523 3.62357 48.4693 3.77325 48.0086L4.98157 44.2898C5.04851 44.0838 4.97518 43.8581 4.79994 43.7307L1.6365 41.4324C1.24464 41.1477 1.44603 40.5279 1.93039 40.5279H5.84062C6.05723 40.5279 6.24921 40.3884 6.31614 40.1824L7.52447 36.4635Z" fill="#FFC66F"></path><path d="M25.5245 36.4635C25.6741 36.0029 26.3259 36.0029 26.4755 36.4635L27.6839 40.1824C27.7508 40.3884 27.9428 40.5279 28.1594 40.5279H32.0696C32.554 40.5279 32.7554 41.1477 32.3635 41.4324L29.2001 43.7307C29.0248 43.8581 28.9515 44.0838 29.0184 44.2898L30.2268 48.0086C30.3764 48.4693 29.8492 48.8523 29.4573 48.5676L26.2939 46.2693C26.1186 46.1419 25.8814 46.1419 25.7061 46.2693L22.5427 48.5676C22.1508 48.8523 21.6236 48.4693 21.7732 48.0086L22.9816 44.2898C23.0485 44.0838 22.9752 43.8581 22.7999 43.7307L19.6365 41.4324C19.2446 41.1477 19.446 40.5279 19.9304 40.5279H23.8406C24.0572 40.5279 24.2492 40.3884 24.3161 40.1824L25.5245 36.4635Z" fill="#FFC66F"></path><path d="M43.5245 36.4635C43.6741 36.0029 44.3259 36.0029 44.4755 36.4635L45.6839 40.1824C45.7508 40.3884 45.9428 40.5279 46.1594 40.5279H50.0696C50.554 40.5279 50.7554 41.1477 50.3635 41.4324L47.2001 43.7307C47.0248 43.8581 46.9515 44.0838 47.0184 44.2898L48.2268 48.0086C48.3764 48.4693 47.8492 48.8523 47.4573 48.5676L44.2939 46.2693C44.1186 46.1419 43.8814 46.1419 43.7061 46.2693L40.5427 48.5676C40.1508 48.8523 39.6236 48.4693 39.7732 48.0086L40.9816 44.2898C41.0485 44.0838 40.9752 43.8581 40.7999 43.7307L37.6365 41.4324C37.2446 41.1477 37.446 40.5279 37.9304 40.5279H41.8406C42.0572 40.5279 42.2492 40.3884 42.3161 40.1824L43.5245 36.4635Z" fill="#FFC66F"></path><path d="M61.5245 36.4635C61.6741 36.0029 62.3259 36.0029 62.4755 36.4635L63.6839 40.1824C63.7508 40.3884 63.9428 40.5279 64.1594 40.5279H68.0696C68.554 40.5279 68.7554 41.1477 68.3635 41.4324L65.2001 43.7307C65.0248 43.8581 64.9515 44.0838 65.0184 44.2898L66.2268 48.0086C66.3764 48.4693 65.8492 48.8523 65.4573 48.5676L62.2939 46.2693C62.1186 46.1419 61.8814 46.1419 61.7061 46.2693L58.5427 48.5676C58.1508 48.8523 57.6236 48.4693 57.7732 48.0086L58.9816 44.2898C59.0485 44.0838 58.9752 43.8581 58.7999 43.7307L55.6365 41.4324C55.2446 41.1477 55.446 40.5279 55.9304 40.5279H59.8406C60.0572 40.5279 60.2492 40.3884 60.3161 40.1824L61.5245 36.4635Z" fill="#FFC66F"></path><path d="M79.5245 36.4635C79.6741 36.0029 80.3259 36.0029 80.4755 36.4635L81.6839 40.1824C81.7508 40.3884 81.9428 40.5279 82.1594 40.5279H86.0696C86.554 40.5279 86.7554 41.1477 86.3635 41.4324L83.2001 43.7307C83.0248 43.8581 82.9515 44.0838 83.0184 44.2898L84.2268 48.0086C84.3764 48.4693 83.8492 48.8523 83.4573 48.5676L80.2939 46.2693C80.1186 46.1419 79.8814 46.1419 79.7061 46.2693L76.5427 48.5676C76.1508 48.8523 75.6236 48.4693 75.7732 48.0086L76.9816 44.2898C77.0485 44.0838 76.9752 43.8581 76.7999 43.7307L73.6365 41.4324C73.2446 41.1477 73.446 40.5279 73.9304 40.5279H77.8406C78.0572 40.5279 78.2492 40.3884 78.3161 40.1824L79.5245 36.4635Z" fill="#FFC66F"></path><path fill-rule="evenodd" clip-rule="evenodd" d="M80.2002 46.2157C80.2327 46.2299 80.2641 46.2478 80.2937 46.2693L83.4571 48.5676C83.849 48.8523 84.3762 48.4693 84.2265 48.0086L83.0182 44.2898C82.9513 44.0838 83.0246 43.8581 83.1998 43.7308L86.3633 41.4324C86.7551 41.1477 86.5537 40.5279 86.0694 40.5279H82.1592C81.9425 40.5279 81.7506 40.3884 81.6836 40.1824L80.4753 36.4635C80.426 36.3119 80.3224 36.2102 80.2002 36.1584V46.2157Z" fill="#565656"></path><defs><clipPath id="clip0_302_42"><rect width="91" height="26" fill="white"></rect></clipPath></defs></svg>