<svg xmlns="http://www.w3.org/2000/svg" width="162" height="50" viewBox="0 0 162 50" fill="none"><path d="M10.0565 8.94C10.0565 8.94 8.7168 8.80743 8.7168 9.99486V15.2691H17.5636V16.852C17.5636 16.852 17.59 17.6429 16.7594 17.6429H8.7168V24.5H18.3679C18.3679 24.5 24.2114 23.6029 24.2654 17.6429V8.94H10.0565ZM23.9965 0.5H6.57174C0.270972 1.97657 0.137695 7.11943 0.137695 7.11943V24.5H6.84059V8.676C6.84059 7.33086 8.18025 7.09429 8.18025 7.09429H23.9977L23.9965 0.5ZM47.0005 19.5263C46.5409 19.8314 46.2008 20.0554 45.9607 20.1983C45.1013 20.7274 44.2821 21.1354 43.5227 21.4611C42.4231 21.9091 41.4431 22.1331 40.5642 22.1331C37.5459 22.1331 35.047 21.2166 33.0271 19.3629C31.0073 17.5091 30.01 15.188 30.01 12.3777C30.01 9.66914 30.9097 7.32629 32.7284 5.32971C34.5472 3.33429 36.7462 2.356 39.3451 2.356C40.4251 2.356 41.5833 2.53886 42.7828 2.92743C44.3419 3.41543 45.6011 4.14914 46.6007 5.10571L44.8612 7.02C44.1224 6.308 43.1631 5.77771 42.0428 5.452C41.2041 5.20743 40.285 5.08629 39.2647 5.08629C37.4459 5.08629 35.9064 5.81771 34.6874 7.26457C33.4683 8.73086 32.8491 10.4623 32.8491 12.4989C32.8491 14.516 33.5476 16.1651 34.947 17.4897C36.3464 18.8131 38.125 19.4851 40.2838 19.4851C41.1834 19.4851 42.1037 19.1994 43.0424 18.6509C43.8225 18.06 44.2224 17.7743 44.2419 17.7537V13.5789H38.4053L39.244 10.972H47.0005V19.5263ZM64.6309 14.4337C64.6309 16.4497 63.9117 18.2017 62.4721 19.668C61.0325 21.1343 59.2539 21.8886 57.1353 21.8886C55.1763 21.8886 53.4575 21.1549 51.9777 19.7091C50.4979 18.2634 49.7786 16.5114 49.7786 14.4543C49.7786 12.4177 50.4795 10.6657 51.8777 9.15829C53.276 7.65086 54.996 6.91829 57.0146 6.91829C59.2539 6.91829 61.0727 7.63143 62.4916 9.07714C63.9117 10.4829 64.6309 12.2749 64.6309 14.4337ZM61.8919 14.4749C61.8919 13.1103 61.4323 11.9491 60.5131 11.012C59.594 10.0543 58.4543 9.58571 57.0951 9.58571C55.8163 9.58571 54.7363 10.0749 53.8367 11.0531C52.9371 12.0303 52.497 13.1503 52.497 14.4131C52.497 15.7377 52.9566 16.8577 53.8562 17.7949C54.7558 18.732 55.876 19.22 57.2341 19.22C58.4945 19.22 59.5733 18.7514 60.4936 17.8143C61.4323 16.8771 61.8919 15.7571 61.8919 14.4749ZM82.0212 14.4337C82.0212 16.4497 81.302 18.2017 79.8624 19.668C78.4228 21.1343 76.6442 21.8886 74.5256 21.8886C72.5666 21.8886 70.8478 21.1549 69.368 19.7091C67.8893 18.2634 67.1689 16.5114 67.1689 14.4543C67.1689 12.4177 67.8698 10.6657 69.268 9.15829C70.6674 7.65086 72.3862 6.91829 74.4049 6.91829C76.6442 6.91829 78.463 7.63143 79.8819 9.07714C81.302 10.4829 82.0212 12.2749 82.0212 14.4337ZM79.2822 14.4749C79.2822 13.1103 78.8226 11.9491 77.9034 11.012C76.9843 10.0543 75.8445 9.58571 74.4854 9.58571C73.2066 9.58571 72.1266 10.0749 71.227 11.0531C70.3274 12.0303 69.8873 13.1503 69.8873 14.4131C69.8873 15.7377 70.3469 16.8577 71.2477 17.7949C72.1461 18.732 73.2663 19.22 74.6255 19.22C75.8848 19.22 76.9636 18.7514 77.8839 17.8143C78.8226 16.8771 79.2822 15.7571 79.2822 14.4749ZM98.1132 21.4806L95.5948 21.868V19.444L95.0548 20.0543C94.5791 20.4975 94.0402 20.8684 93.4554 21.1549C92.5972 21.5486 91.6626 21.7503 90.7175 21.7457C88.7586 21.7457 87.0788 21.0326 85.7197 19.5857C84.3605 18.1389 83.6814 16.4291 83.6814 14.4337C83.6814 12.3766 84.3605 10.6051 85.7001 9.13771C87.0398 7.67029 88.6782 6.93771 90.6371 6.93771C91.7573 6.93771 92.7362 7.12057 93.5554 7.48743C94.1356 7.75257 94.6354 8.09886 95.0548 8.52743C95.1949 8.71029 95.3351 8.91371 95.4753 9.09657V2.74229L98.1523 2.35486L98.1132 21.4806ZM95.7545 14.6166C95.7545 13.1914 95.2742 11.9891 94.2953 11.012C93.3164 10.0131 92.2157 9.52514 90.9576 9.52514C89.5582 9.52514 88.4392 9.99371 87.5798 10.9309C86.779 11.8257 86.3596 12.9263 86.3596 14.2097C86.3596 15.6554 86.779 16.8566 87.6188 17.7937C88.4576 18.7309 89.518 19.1994 90.8175 19.1994C92.0963 19.1994 93.2165 18.772 94.216 17.8966C95.2351 16.9994 95.7545 15.9 95.7545 14.6166ZM112.245 5.39143H104.749V10.4623H110.565V13.0691H104.749V21.4611L101.831 21.8886V2.76286H111.665L112.245 5.39143ZM118.262 3.90343L116.463 6.164L114.744 3.90343L116.563 1.66343L118.262 3.90343ZM117.722 21.4806L115.044 21.8474V7.692L117.722 7.28514V21.4806ZM129.816 7.14229L128.557 10.0337C128.391 10.0086 128.224 9.99526 128.057 9.99372C127.797 9.99372 127.537 10.0143 127.277 10.0543C127.016 10.0943 126.737 10.1971 126.438 10.34C125.878 10.5846 125.398 11.1137 124.979 11.908C124.515 12.8095 124.274 13.8084 124.278 14.8211V21.4611L121.601 21.8886V7.692L124.079 7.244V10.1971C124.399 9.68743 124.739 9.17886 125.058 8.64971C125.518 8.11943 126.058 7.73314 126.657 7.508C126.977 7.38686 127.557 7.284 128.436 7.20286C129.276 7.14229 129.756 7.10114 129.816 7.14229ZM149.764 21.4806L147.085 21.868V12.1526C147.085 11.2554 146.886 10.604 146.486 10.1971C146.086 9.78914 145.486 9.58571 144.706 9.58571C143.767 9.58571 143.047 9.97314 142.568 10.7469C142.247 11.276 142.068 11.8463 142.068 12.4166V21.46L139.39 21.9491V12.2131C139.39 11.3583 139.19 10.7057 138.81 10.2589C138.41 9.80971 137.891 9.58571 137.21 9.58571H136.951C136.011 9.58571 135.331 9.97314 134.911 10.7674C134.592 11.3583 134.432 12.1114 134.432 13.028V21.46L131.654 21.9491V7.692L134.152 7.26457V9.07714C134.432 8.64857 134.711 8.30229 134.972 8.05886C135.691 7.38686 136.531 7.06 137.47 7.06C138.529 7.06 139.308 7.22343 139.848 7.56971C140.308 7.85543 140.748 8.42457 141.188 9.23943C142.107 7.79371 143.407 7.06 145.127 7.06C146.765 7.06 147.985 7.56971 148.784 8.60857C149.444 9.46343 149.764 10.7263 149.764 12.3766V21.4806ZM162 17.1834C162 18.4863 161.54 19.5663 160.621 20.4017C159.702 21.2566 158.542 21.6646 157.142 21.6646C156.083 21.6646 155.143 21.42 154.284 20.9309C153.424 20.4429 152.785 19.892 152.365 19.2406L154.245 17.5709C154.384 17.7743 154.504 17.9366 154.624 18.0589C155.325 18.772 156.163 19.1389 157.142 19.1389C157.822 19.1389 158.362 18.956 158.741 18.6097C159.141 18.2634 159.322 17.7743 159.322 17.1423C159.322 16.4303 158.862 15.9411 157.943 15.676C156.123 15.1263 155.143 14.8211 155.004 14.7594C154.164 14.332 153.564 13.884 153.184 13.3743C152.765 12.7834 152.545 12.0097 152.545 11.012C152.545 9.78914 153.005 8.772 153.904 7.95714C154.804 7.14229 155.883 6.75486 157.121 6.75486C158.062 6.75486 158.941 6.95829 159.741 7.38686C160.541 7.81429 161.12 8.26229 161.46 8.79257L159.861 10.5229C159.62 10.2837 159.36 10.0657 159.082 9.87143C158.442 9.42343 157.822 9.19943 157.243 9.19943C156.683 9.19943 156.223 9.32171 155.863 9.56514C155.443 9.87143 155.223 10.3194 155.223 10.9103C155.223 11.4806 155.423 11.908 155.844 12.1731C156.203 12.3971 156.963 12.6417 158.162 12.9057C159.361 13.1914 160.281 13.6806 160.94 14.3731C161.68 15.1057 162 16.0223 162 17.1834Z" fill="white"></path><path d="M44.5933 34.9635C44.743 34.5029 45.3947 34.5029 45.5444 34.9635L46.7527 38.6824C46.8196 38.8884 47.0116 39.0279 47.2282 39.0279H51.1385C51.6228 39.0279 51.8242 39.6477 51.4324 39.9324L48.2689 42.2307C48.0937 42.3581 48.0203 42.5838 48.0873 42.7898L49.2956 46.5086C49.4453 46.9693 48.918 47.3523 48.5262 47.0676L45.3627 44.7693C45.1875 44.6419 44.9502 44.6419 44.775 44.7693L41.6115 47.0676C41.2197 47.3523 40.6924 46.9693 40.8421 46.5086L42.0504 42.7898C42.1174 42.5838 42.044 42.3581 41.8688 42.2307L38.7053 39.9324C38.3135 39.6477 38.5149 39.0279 38.9992 39.0279H42.9095C43.1261 39.0279 43.3181 38.8884 43.385 38.6824L44.5933 34.9635Z" fill="#FFC66F"></path><path d="M62.5933 34.9635C62.743 34.5029 63.3947 34.5029 63.5444 34.9635L64.7527 38.6824C64.8196 38.8884 65.0116 39.0279 65.2282 39.0279H69.1385C69.6228 39.0279 69.8242 39.6477 69.4324 39.9324L66.2689 42.2307C66.0937 42.3581 66.0203 42.5838 66.0873 42.7898L67.2956 46.5086C67.4453 46.9693 66.918 47.3523 66.5262 47.0676L63.3627 44.7693C63.1875 44.6419 62.9502 44.6419 62.775 44.7693L59.6115 47.0676C59.2197 47.3523 58.6924 46.9693 58.8421 46.5086L60.0504 42.7898C60.1174 42.5838 60.044 42.3581 59.8688 42.2307L56.7053 39.9324C56.3135 39.6477 56.5149 39.0279 56.9992 39.0279H60.9095C61.1261 39.0279 61.3181 38.8884 61.385 38.6824L62.5933 34.9635Z" fill="#FFC66F"></path><path d="M80.5933 34.9635C80.743 34.5029 81.3947 34.5029 81.5444 34.9635L82.7527 38.6824C82.8196 38.8884 83.0116 39.0279 83.2282 39.0279H87.1385C87.6228 39.0279 87.8242 39.6477 87.4324 39.9324L84.2689 42.2307C84.0937 42.3581 84.0203 42.5838 84.0873 42.7898L85.2956 46.5086C85.4453 46.9693 84.918 47.3523 84.5262 47.0676L81.3627 44.7693C81.1875 44.6419 80.9502 44.6419 80.775 44.7693L77.6115 47.0676C77.2197 47.3523 76.6924 46.9693 76.8421 46.5086L78.0504 42.7898C78.1174 42.5838 78.044 42.3581 77.8688 42.2307L74.7053 39.9324C74.3135 39.6477 74.5149 39.0279 74.9992 39.0279H78.9095C79.1261 39.0279 79.3181 38.8884 79.385 38.6824L80.5933 34.9635Z" fill="#FFC66F"></path><path d="M98.5933 34.9635C98.743 34.5029 99.3947 34.5029 99.5444 34.9635L100.753 38.6824C100.82 38.8884 101.012 39.0279 101.228 39.0279H105.138C105.623 39.0279 105.824 39.6477 105.432 39.9324L102.269 42.2307C102.094 42.3581 102.02 42.5838 102.087 42.7898L103.296 46.5086C103.445 46.9693 102.918 47.3523 102.526 47.0676L99.3627 44.7693C99.1875 44.6419 98.9502 44.6419 98.775 44.7693L95.6115 47.0676C95.2197 47.3523 94.6924 46.9693 94.8421 46.5086L96.0504 42.7898C96.1174 42.5838 96.044 42.3581 95.8688 42.2307L92.7053 39.9324C92.3135 39.6477 92.5149 39.0279 92.9992 39.0279H96.9095C97.1261 39.0279 97.3181 38.8884 97.385 38.6824L98.5933 34.9635Z" fill="#FFC66F"></path><path d="M116.593 34.9635C116.743 34.5029 117.395 34.5029 117.544 34.9635L118.753 38.6824C118.82 38.8884 119.012 39.0279 119.228 39.0279H123.138C123.623 39.0279 123.824 39.6477 123.432 39.9324L120.269 42.2307C120.094 42.3581 120.02 42.5838 120.087 42.7898L121.296 46.5086C121.445 46.9693 120.918 47.3523 120.526 47.0676L117.363 44.7693C117.187 44.6419 116.95 44.6419 116.775 44.7693L113.612 47.0676C113.22 47.3523 112.692 46.9693 112.842 46.5086L114.05 42.7898C114.117 42.5838 114.044 42.3581 113.869 42.2307L110.705 39.9324C110.313 39.6477 110.515 39.0279 110.999 39.0279H114.909C115.126 39.0279 115.318 38.8884 115.385 38.6824L116.593 34.9635Z" fill="#FFC66F"></path><path fill-rule="evenodd" clip-rule="evenodd" d="M117.269 44.7157C117.302 44.7299 117.333 44.7478 117.363 44.7693L120.526 47.0676C120.918 47.3523 121.445 46.9693 121.295 46.5086L120.087 42.7898C120.02 42.5838 120.093 42.3581 120.269 42.2308L123.432 39.9324C123.824 39.6477 123.623 39.0279 123.138 39.0279H119.228C119.011 39.0279 118.819 38.8884 118.752 38.6824L117.544 34.9635C117.495 34.8119 117.391 34.7102 117.269 34.6584V44.7157Z" fill="#565656"></path></svg>