<svg xmlns="http://www.w3.org/2000/svg" width="118" height="52" viewBox="0 0 118 52" fill="none"><g clip-path="url(#clip0_302_62)"><path d="M52.8206 13.8335C52.8206 17.4424 49.9848 20.1017 46.5045 20.1017C43.0243 20.1017 40.1885 17.4424 40.1885 13.8335C40.1885 10.1991 43.0243 7.56522 46.5045 7.56522C49.9848 7.56522 52.8206 10.1991 52.8206 13.8335ZM50.0557 13.8335C50.0557 11.5783 48.4121 10.0352 46.5045 10.0352C44.5969 10.0352 42.9534 11.5783 42.9534 13.8335C42.9534 16.0661 44.5969 17.6317 46.5045 17.6317C48.4121 17.6317 50.0557 16.0633 50.0557 13.8335Z" fill="#EA4335"></path><path d="M66.4461 13.8335C66.4461 17.4424 63.6103 20.1017 60.13 20.1017C56.6498 20.1017 53.814 17.4424 53.814 13.8335C53.814 10.202 56.6498 7.56522 60.13 7.56522C63.6103 7.56522 66.4461 10.1991 66.4461 13.8335ZM63.6812 13.8335C63.6812 11.5783 62.0376 10.0352 60.13 10.0352C58.2224 10.0352 56.5788 11.5783 56.5788 13.8335C56.5788 16.0661 58.2224 17.6317 60.13 17.6317C62.0376 17.6317 63.6812 16.0633 63.6812 13.8335Z" fill="#FBBC05"></path><path d="M79.5042 7.94391V19.1974C79.5042 23.8265 76.762 25.7172 73.5202 25.7172C70.4686 25.7172 68.632 23.6852 67.9394 22.0235L70.3466 21.0259C70.7752 22.0461 71.8255 23.25 73.5174 23.25C75.5925 23.25 76.8784 21.9754 76.8784 19.5761V18.6746H76.7819C76.163 19.4348 74.9708 20.0989 73.4663 20.0989C70.3182 20.0989 67.4341 17.3689 67.4341 13.8561C67.4341 10.3178 70.3182 7.56522 73.4663 7.56522C74.9679 7.56522 76.1602 8.22935 76.7819 8.96695H76.8784V7.94674H79.5042V7.94391ZM77.0742 13.8561C77.0742 11.6489 75.5953 10.0352 73.7132 10.0352C71.8057 10.0352 70.2075 11.6489 70.2075 13.8561C70.2075 16.0406 71.8057 17.6317 73.7132 17.6317C75.5953 17.6317 77.0742 16.0406 77.0742 13.8561Z" fill="#4285F4"></path><path d="M83.8335 1.34782V19.7174H81.1367V1.34782H83.8335Z" fill="#34A853"></path><path d="M94.3419 15.8965L96.488 17.3209C95.7953 18.3411 94.1262 20.0989 91.2421 20.0989C87.6653 20.0989 84.9941 17.3463 84.9941 13.8307C84.9941 10.103 87.688 7.56239 90.9327 7.56239C94.2 7.56239 95.7982 10.1511 96.3205 11.55L96.6072 12.2622L88.1905 15.7326C88.8349 16.9902 89.8369 17.6317 91.2421 17.6317C92.6501 17.6317 93.6266 16.9422 94.3419 15.8965ZM87.7363 13.6413L93.3626 11.3154C93.0532 10.5326 92.1221 9.98718 91.0263 9.98718C89.6212 9.98718 87.6653 11.2222 87.7363 13.6413Z" fill="#EA4335"></path><path d="M29.9805 12.2028V9.54348H38.9819C39.0699 10.007 39.1153 10.5552 39.1153 11.1487C39.1153 13.1439 38.5675 15.6111 36.8018 17.3689C35.0844 19.1494 32.8901 20.0989 29.9833 20.0989C24.5955 20.0989 20.0649 15.7298 20.0649 10.3659C20.0649 5.00196 24.5955 0.632828 29.9833 0.632828C32.9639 0.632828 35.0872 1.79718 36.6826 3.31478L34.7977 5.19131C33.6537 4.12305 32.1038 3.29218 29.9805 3.29218C26.046 3.29218 22.9689 6.44892 22.9689 10.3659C22.9689 14.2828 26.046 17.4396 29.9805 17.4396C32.5324 17.4396 33.9858 16.4194 34.9169 15.4924C35.672 14.7407 36.1688 13.6667 36.3646 12.2L29.9805 12.2028Z" fill="#4285F4"></path></g><path d="M22.0933 36.9635C22.243 36.5029 22.8947 36.5029 23.0444 36.9635L24.2527 40.6824C24.3196 40.8884 24.5116 41.0279 24.7282 41.0279H28.6385C29.1228 41.0279 29.3242 41.6477 28.9324 41.9324L25.7689 44.2307C25.5937 44.3581 25.5203 44.5838 25.5873 44.7898L26.7956 48.5086C26.9453 48.9693 26.418 49.3523 26.0262 49.0676L22.8627 46.7693C22.6875 46.6419 22.4502 46.6419 22.275 46.7693L19.1115 49.0676C18.7197 49.3523 18.1924 48.9693 18.3421 48.5086L19.5504 44.7898C19.6174 44.5838 19.544 44.3581 19.3688 44.2307L16.2053 41.9324C15.8135 41.6477 16.0149 41.0279 16.4992 41.0279H20.4095C20.6261 41.0279 20.8181 40.8884 20.885 40.6824L22.0933 36.9635Z" fill="#FFC66F"></path><path d="M40.0933 36.9635C40.243 36.5029 40.8947 36.5029 41.0444 36.9635L42.2527 40.6824C42.3196 40.8884 42.5116 41.0279 42.7282 41.0279H46.6385C47.1228 41.0279 47.3242 41.6477 46.9324 41.9324L43.7689 44.2307C43.5937 44.3581 43.5203 44.5838 43.5873 44.7898L44.7956 48.5086C44.9453 48.9693 44.418 49.3523 44.0262 49.0676L40.8627 46.7693C40.6875 46.6419 40.4502 46.6419 40.275 46.7693L37.1115 49.0676C36.7197 49.3523 36.1924 48.9693 36.3421 48.5086L37.5504 44.7898C37.6174 44.5838 37.544 44.3581 37.3688 44.2307L34.2053 41.9324C33.8135 41.6477 34.0149 41.0279 34.4992 41.0279H38.4095C38.6261 41.0279 38.8181 40.8884 38.885 40.6824L40.0933 36.9635Z" fill="#FFC66F"></path><path d="M58.0933 36.9635C58.243 36.5029 58.8947 36.5029 59.0444 36.9635L60.2527 40.6824C60.3196 40.8884 60.5116 41.0279 60.7282 41.0279H64.6385C65.1228 41.0279 65.3242 41.6477 64.9324 41.9324L61.7689 44.2307C61.5937 44.3581 61.5203 44.5838 61.5873 44.7898L62.7956 48.5086C62.9453 48.9693 62.418 49.3523 62.0262 49.0676L58.8627 46.7693C58.6875 46.6419 58.4502 46.6419 58.275 46.7693L55.1115 49.0676C54.7197 49.3523 54.1924 48.9693 54.3421 48.5086L55.5504 44.7898C55.6174 44.5838 55.544 44.3581 55.3688 44.2307L52.2053 41.9324C51.8135 41.6477 52.0149 41.0279 52.4992 41.0279H56.4095C56.6261 41.0279 56.8181 40.8884 56.885 40.6824L58.0933 36.9635Z" fill="#FFC66F"></path><path d="M76.0933 36.9635C76.243 36.5029 76.8947 36.5029 77.0444 36.9635L78.2527 40.6824C78.3196 40.8884 78.5116 41.0279 78.7282 41.0279H82.6385C83.1228 41.0279 83.3242 41.6477 82.9324 41.9324L79.7689 44.2307C79.5937 44.3581 79.5203 44.5838 79.5873 44.7898L80.7956 48.5086C80.9453 48.9693 80.418 49.3523 80.0262 49.0676L76.8627 46.7693C76.6875 46.6419 76.4502 46.6419 76.275 46.7693L73.1115 49.0676C72.7197 49.3523 72.1924 48.9693 72.3421 48.5086L73.5504 44.7898C73.6174 44.5838 73.544 44.3581 73.3688 44.2307L70.2053 41.9324C69.8135 41.6477 70.0149 41.0279 70.4992 41.0279H74.4095C74.6261 41.0279 74.8181 40.8884 74.885 40.6824L76.0933 36.9635Z" fill="#FFC66F"></path><path d="M94.0933 36.9635C94.243 36.5029 94.8947 36.5029 95.0444 36.9635L96.2527 40.6824C96.3196 40.8884 96.5116 41.0279 96.7282 41.0279H100.638C101.123 41.0279 101.324 41.6477 100.932 41.9324L97.7689 44.2307C97.5937 44.3581 97.5203 44.5838 97.5873 44.7898L98.7956 48.5086C98.9453 48.9693 98.418 49.3523 98.0262 49.0676L94.8627 46.7693C94.6875 46.6419 94.4502 46.6419 94.275 46.7693L91.1115 49.0676C90.7197 49.3523 90.1924 48.9693 90.3421 48.5086L91.5504 44.7898C91.6174 44.5838 91.544 44.3581 91.3688 44.2307L88.2053 41.9324C87.8135 41.6477 88.0149 41.0279 88.4992 41.0279H92.4095C92.6261 41.0279 92.8181 40.8884 92.885 40.6824L94.0933 36.9635Z" fill="#FFC66F"></path><path fill-rule="evenodd" clip-rule="evenodd" d="M94.769 46.7157C94.8016 46.7299 94.8329 46.7478 94.8625 46.7693L98.0259 49.0676C98.4178 49.3523 98.945 48.9693 98.7954 48.5086L97.587 44.7898C97.5201 44.5838 97.5934 44.3581 97.7687 44.2308L100.932 41.9324C101.324 41.6477 101.123 41.0279 100.638 41.0279H96.728C96.5114 41.0279 96.3194 40.8884 96.2525 40.6824L95.0441 36.9635C94.9949 36.8119 94.8913 36.7102 94.769 36.6584V46.7157Z" fill="#565656"></path><defs><clipPath id="clip0_302_62"><rect width="77.2121" height="26" fill="white" transform="translate(19.9629 0.5)"></rect></clipPath></defs></svg>