<svg width="495" height="590" viewBox="0 0 495 590" fill="none" xmlns="http://www.w3.org/2000/svg">
<g clip-path="url(#clip0_581_2)">
<path opacity="0.1" d="M463.054 48.0197L465.897 51.4804C505.274 99.42 503.457 169.006 461.631 214.825C424.215 255.811 418.362 316.582 447.266 363.956L462.607 389.099C489.041 432.426 488.258 487.08 460.592 529.631C419.695 592.533 334.622 608.672 273.53 565.119L60.001 412.894C18.8818 383.581 -3.36623 334.473 1.71041 284.23C5.8223 243.535 27.4458 206.646 60.9452 183.178L288.056 24.0697C343.685 -14.9023 419.942 -4.46587 463.054 48.0197Z" stroke="#4A3C25" stroke-width="0.6" stroke-linecap="round"/>
<path d="M325.848 219.346L231.905 284.458C226.238 288.385 226.152 296.735 231.738 300.777L325.278 368.476C339.72 378.928 344.675 398.182 337.072 414.307C326.826 436.041 298.926 442.431 280.242 427.323L141.47 315.115C134.826 309.742 131.351 301.372 132.238 292.873C132.962 285.936 136.525 279.608 142.081 275.391L286.812 165.542C301.663 154.27 322.878 157.413 333.823 172.506C344.765 187.595 341.167 208.729 325.848 219.346Z" stroke="#4A3C25" stroke-width="0.6" stroke-linecap="round"/>
<path opacity="0.8" d="M325.848 219.346L231.905 284.458C226.238 288.385 226.153 296.735 231.738 300.777L325.278 368.476C339.72 378.928 344.675 398.182 337.072 414.307C326.826 436.041 298.927 442.431 280.242 427.323L141.471 315.115C134.826 309.742 131.352 301.372 132.238 292.873C132.962 285.936 136.525 279.608 142.081 275.391L286.812 165.542C301.663 154.27 322.878 157.413 333.824 172.506C344.766 187.595 341.167 208.729 325.848 219.346Z" stroke="#4A3C25" stroke-width="0.6" stroke-linecap="round"/>
<path opacity="0.7" d="M350.419 217.144L270.988 279.154C264.485 284.231 264.295 294.003 270.596 299.329L351.34 367.577C367.256 381.03 370.9 404.119 359.901 421.82L346.884 442.769C333.812 463.807 305.467 469.022 285.763 454.016L127.662 333.606C117.231 325.663 111.109 313.304 111.109 300.193V290.647C111.109 277.065 117.677 264.321 128.74 256.44L291.9 140.205C309.564 127.622 333.903 130.556 348.07 146.977L356.374 156.602C372.054 174.776 369.34 202.373 350.419 217.144Z" stroke="#4A3C25" stroke-width="0.6" stroke-linecap="round"/>
<path opacity="0.4" d="M365.249 228.205L311.347 271.213C299.383 280.76 298.213 298.524 308.821 309.557L368.988 372.133C389.274 393.231 392.663 425.403 377.217 450.264L372.349 458.102C352.861 489.471 310.94 497.883 280.859 476.459L129.938 368.977C105.65 351.68 92.5075 322.684 95.5081 293.017L96.0321 287.84C98.4621 263.815 111.235 242.038 131.019 228.192L284.77 120.587C314.046 100.098 354.383 106.363 376.275 134.605C398.721 163.56 393.887 205.355 365.249 228.205Z" stroke="#4A3C25" stroke-width="0.6" stroke-linecap="round"/>
<path opacity="0.3" d="M401.072 211.433L350.507 263.666C337.42 277.185 335.851 298.121 346.778 313.44L401.261 389.817C416.246 410.825 417.149 438.777 403.552 460.708L384.794 490.962C365.309 522.389 323.323 530.812 293.224 509.334L114.087 381.5C84.42 360.329 68.3703 324.885 72.0307 288.623C74.9959 259.248 90.5964 232.616 114.769 215.665L297.236 87.706C326.532 67.162 366.802 73.264 388.697 101.565L405.926 123.835C426.308 150.181 424.24 187.5 401.072 211.433Z" stroke="#4A3C25" stroke-width="0.6" stroke-linecap="round"/>
<path opacity="0.2" d="M435.051 202.149L395.763 252.546C380.43 272.213 378.374 299.152 390.542 320.919L442.899 414.573C455.418 436.966 453.355 464.67 437.658 484.962L412.572 517.392C382.769 555.919 328.102 564.54 287.889 537.055L78.653 394.046C45.7064 371.528 27.6995 332.805 31.7111 293.1L33.0822 279.529C36.2685 247.992 53.0252 219.404 78.9852 201.216L300.972 45.6865C339.875 18.4297 393.327 26.5288 422.41 64.0869L435.25 80.6689C462.956 116.449 462.874 166.46 435.051 202.149Z" stroke="#4A3C25" stroke-width="0.6" stroke-linecap="round"/>
</g>
<defs>
<clipPath id="clip0_581_2">
<rect width="495" height="590" fill="white"/>
</clipPath>
</defs>
</svg>
