<svg xmlns="http://www.w3.org/2000/svg" width="116" height="154" viewBox="0 0 116 154" fill="none"><path d="M106.196 34.2364L60.1716 65.2518C54.4277 69.1226 54.2631 77.5192 59.8509 81.612L106.824 116.018C115.827 122.613 118.039 135.129 111.842 144.41C105.007 154.645 90.8406 156.761 81.3129 148.972L5.4684 86.9629C2.00743 84.1332 0 79.899 0 75.4286C0 70.7754 2.17403 66.3895 5.87713 63.5719L84.4047 3.82219C92.652 -2.45295 104.428 -0.831558 110.673 7.43884C117.139 16.0029 115.095 28.2394 106.196 34.2364Z" fill="url(#paint0_radial_484_12)"></path><path d="M106.196 34.2364L60.1716 65.2518C54.4277 69.1226 54.2631 77.5192 59.8509 81.612L106.824 116.018C115.827 122.613 118.039 135.129 111.842 144.41C105.007 154.645 90.8406 156.761 81.3129 148.972L5.4684 86.9629C2.00743 84.1332 0 79.899 0 75.4286C0 70.7754 2.17403 66.3895 5.87713 63.5719L84.4047 3.82219C92.652 -2.45295 104.428 -0.831558 110.673 7.43884C117.139 16.0029 115.095 28.2394 106.196 34.2364Z" fill="url(#paint1_radial_484_12)" fill-opacity="0.49"></path><path d="M106.196 34.2364L60.1716 65.2518C54.4277 69.1226 54.2631 77.5192 59.8509 81.612L106.824 116.018C115.827 122.613 118.039 135.129 111.842 144.41C105.007 154.645 90.8406 156.761 81.3129 148.972L5.4684 86.9629C2.00743 84.1332 0 79.899 0 75.4286C0 70.7754 2.17403 66.3895 5.87713 63.5719L84.4047 3.82219C92.652 -2.45295 104.428 -0.831558 110.673 7.43884C117.139 16.0029 115.095 28.2394 106.196 34.2364Z" fill="url(#paint2_radial_484_12)"></path><defs><radialGradient id="paint0_radial_484_12" cx="0" cy="0" r="1" gradientUnits="userSpaceOnUse" gradientTransform="translate(67 154) rotate(98.5308) scale(60.6712 45.54)"><stop stop-color="#FF00C7" stop-opacity="0.64"></stop><stop offset="1" stop-color="#FF00A8" stop-opacity="0"></stop></radialGradient><radialGradient id="paint1_radial_484_12" cx="0" cy="0" r="1" gradientUnits="userSpaceOnUse" gradientTransform="translate(107 45) rotate(-21.8014) scale(64.622 48.5054)"><stop offset="0.0245453" stop-color="#0066FF" stop-opacity="0.6"></stop><stop offset="0.66092" stop-color="#0066FF" stop-opacity="0"></stop></radialGradient><radialGradient id="paint2_radial_484_12" cx="0" cy="0" r="1" gradientUnits="userSpaceOnUse" gradientTransform="translate(16.9253 76.395) rotate(169.343) scale(84.3808 63.3364)"><stop stop-color="#0057FF" stop-opacity="0.63"></stop><stop offset="1" stop-color="#135AE2" stop-opacity="0"></stop></radialGradient></defs></svg>